<?xml version="1.0" encoding="UTF-8"?>
<svg width="211px" height="52px" viewBox="0 0 211 52" version="1.1" xmlns="http://www.w3.org/2000/svg" xmlns:xlink="http://www.w3.org/1999/xlink">
    <!-- Generator: Sketch 41.2 (35397) - http://www.bohemiancoding.com/sketch -->
    <title>alfatype</title>
    <desc>Created with Sketch.</desc>
    <defs>
        <polygon id="path-1" points="0 0.380109375 0 36.2892656 37.9829906 36.2892656 37.9829906 0.380109375"></polygon>
    </defs>
    <g id="Page-1" stroke="none" stroke-width="1" fill="none" fill-rule="evenodd">
        <g id="Desktop-HD" transform="translate(-1045.000000, -1855.000000)">
            <g id="alfa" transform="translate(945.000000, 1727.000000)">
                <g id="alfatype" transform="translate(100.000000, 128.000000)">
                    <g id="Group-3" transform="translate(0.000000, 1.695338)">
                        <mask id="mask-2" fill="white">
                            <use xlink:href="#path-1"></use>
                        </mask>
                        <g id="Clip-2"></g>
                        <path d="M18.7155339,11.4289531 C18.6224945,11.4322656 18.5311165,11.4355781 18.4380772,11.4388906 C17.4030142,14.4731406 16.3679512,17.5090469 15.3046441,20.6294219 L21.9519748,20.6294219 C20.8454709,17.4842031 19.7805024,14.4565781 18.7155339,11.4289531 M37.9829906,36.2809844 L26.4726913,36.2809844 C26.2849512,32.8856719 24.9940299,29.8348594 24.0171165,26.6316719 L13.1747071,26.6316719 C12.1928094,29.7868281 10.8819512,32.8608281 10.7590063,36.2892656 L-0.000332283465,36.2892656 C1.61290394,32.2612656 3.21949449,28.3574844 4.74135276,24.4205781 C6.28647087,20.4190781 7.76513228,16.3943906 9.24047087,12.3663906 C10.6975339,8.38807812 12.1130614,4.39485937 13.5551717,0.380109375 L23.6216992,0.380109375 C23.7878409,0.810734375 23.9689354,1.25957812 24.1350772,1.71339062 C27.3465969,10.4401719 30.5531323,19.1686094 33.7663134,27.8953906 C34.7066756,30.4460156 35.934463,32.8591719 37.3666047,35.1696406 C37.5526835,35.4710781 37.7105181,35.7890781 37.9829906,36.2809844" id="Fill-1" fill="#3A3A3A" mask="url(#mask-2)"></path>
                    </g>
                    <path d="M167.047537,17.7806719 C166.997694,18.1549844 166.914624,18.4961719 166.914624,18.8390156 C166.906317,23.3009531 166.927915,27.7628906 166.891364,32.2248281 C166.884718,32.9999531 167.173805,33.3991094 167.8716,33.5962031 C168.218836,33.6939219 168.556104,33.8330469 168.908324,33.9092344 C170.79071,34.3183281 172.108214,33.6839844 172.847545,31.9200781 C173.15823,31.1813906 173.349293,30.3764531 173.482206,29.5831094 C173.877624,27.2063906 173.76797,24.8147656 173.424057,22.4479844 C173.264561,21.3498906 172.922309,20.2468281 172.46708,19.2332031 C171.878939,17.9214531 170.739206,17.2937344 169.277159,17.4162969 C168.561088,17.4759219 167.854986,17.6448594 167.047537,17.7806719 M157.421285,13.2624219 C157.913065,13.2292969 158.270269,13.1746406 158.625813,13.1878906 C161.94034,13.3071406 165.229946,12.9725781 168.522876,12.6645156 C170.832246,12.4475469 173.139954,12.5601719 175.40945,13.1050781 C178.215584,13.7808281 180.142828,15.4470156 181.177891,18.1500156 C181.880671,19.9867969 182.193017,21.8981094 182.332576,23.8375781 C182.538592,26.6763906 182.726332,29.5201719 182.191356,32.3457344 C181.284222,37.1455469 178.127529,39.6166719 173.242962,39.7988594 C172.505293,39.8270156 171.905521,39.5487656 171.395466,39.0833594 C170.362065,38.1376406 169.353584,37.1637656 168.350088,36.1865781 C167.94138,35.7890781 167.572545,35.3518281 166.951175,34.6777344 L166.951175,50.2912031 C163.66323,49.9980469 160.614529,49.2676406 157.46282,48.8121719 C157.515986,48.3832031 157.562506,48.0801094 157.59075,47.7753594 C157.733631,46.1572031 157.984506,44.5407031 157.992813,42.9242031 C158.036009,35.2441719 158.045978,27.5624844 157.98949,19.8824531 C157.974537,17.9512656 157.672159,16.0233906 157.502694,14.0922031 C157.482757,13.8719219 157.459498,13.6532969 157.421285,13.2624219" id="Fill-4" fill="#3A3A3A"></path>
                    <path d="M118.033566,8.9603125 C118.003661,9.39259375 117.970432,9.65925 117.970432,9.92590625 C117.968771,17.1968437 117.930558,24.4677812 117.998676,31.7370625 C118.016952,33.48275 118.390771,35.225125 118.606755,36.9691562 C118.643306,37.27225 118.711424,37.5736875 118.779543,37.9579375 L108.216251,37.9579375 C108.427251,36.8167812 108.658188,35.7667187 108.804393,34.7050625 C108.940629,33.7245625 109.055267,32.7308125 109.05859,31.7436875 C109.080188,24.5174687 109.071881,17.2929062 109.068558,10.0666875 C109.068558,9.7553125 109.03533,9.44228125 109.010409,8.99178125 C105.006393,8.7185 101.072157,8.84603125 97.1196449,10.0931875 L97.1196449,2.10178125 L129.87781,2.10178125 L129.87781,9.92259375 C127.874141,9.5963125 125.928621,9.15740625 123.959842,8.99509375 C122.034259,8.83609375 120.087078,8.9603125 118.033566,8.9603125" id="Fill-6" fill="#3A3A3A"></path>
                    <path d="M128.399647,51.3828375 L128.399647,48.0653688 C130.514631,46.9242125 132.205954,45.1967438 133.437065,43.0469313 C133.97038,42.1144625 134.395702,41.1024938 134.736293,40.0822438 C134.890805,39.6184938 134.857576,38.9924313 134.676482,38.5303375 C132.089655,31.9318375 129.491198,25.3383063 126.824624,18.7729313 C126.216545,17.2756813 125.340978,15.8860875 124.583372,14.4501188 C124.397293,14.0973375 124.189616,13.75615 123.986923,13.4000563 C124.950545,13.0986188 132.305639,13.020775 134.066742,13.2874313 C134.739616,18.3969625 137.273277,22.8936813 139.089206,27.953525 C139.856781,26.6119625 140.243891,25.3846813 140.747301,24.2153688 C141.265663,23.0145875 141.767411,21.8038688 142.240915,20.5832125 C142.697805,19.407275 143.177954,18.2329938 143.526852,17.022275 C143.88738,15.7784313 144.100041,14.491525 144.382482,13.206275 L154.477254,13.206275 C154.299482,13.5723063 154.174876,13.8373063 154.043624,14.10065 C153.015206,16.1560563 151.853876,18.1568063 150.978309,20.27515 C148.516088,26.2409625 146.181797,32.2581188 143.77108,38.2471188 C142.194395,42.1674625 139.924899,45.6058375 136.530624,48.2177438 C134.643254,49.670275 132.56482,50.7468375 130.205608,51.2056188 C129.64571,51.3149313 129.064214,51.3199 128.399647,51.3828375" id="Fill-8" fill="#3A3A3A"></path>
                    <path d="M193.35309,22.3138281 L201.344507,22.3138281 C201.384381,21.0186406 201.083665,19.9222031 200.437373,18.9052656 C199.217893,16.9840156 195.572743,16.3331094 194.175491,19.2083594 C193.720263,20.1474531 193.373027,21.1047656 193.35309,22.3138281 M210.020428,31.2443281 C209.872562,31.6683281 209.81109,31.9134531 209.704759,32.1387031 C208.90894,33.8115156 208.083216,35.4710781 207.315641,37.1554844 C207.049814,37.7434531 206.675995,38.0862969 206.054625,38.2535781 C201.31294,39.5189531 196.627743,39.5139844 192.105365,37.4519531 C187.451735,35.3319531 184.923058,31.6716406 184.592436,26.5604531 C184.454539,24.4305156 184.607389,22.3171406 185.185562,20.2484844 C186.55457,15.3426719 190.056838,12.2769531 195.137452,11.7519219 C196.876956,11.5713906 198.696208,11.5548281 200.414113,11.8463281 C204.909909,12.6098594 207.90046,15.2797344 209.369153,19.5876406 C210.271302,22.2376406 210.43246,24.9654844 210.118452,27.8291406 C209.74131,27.8755156 209.399058,27.9517031 209.056806,27.9533594 C205.114263,27.9616406 201.170058,27.9434219 197.227515,27.9666094 C195.964838,27.9732344 194.833413,27.5889844 193.610609,26.9132344 C193.658791,27.3753281 193.647161,27.7198281 193.736877,28.0361719 C194.958019,32.3937656 198.998586,34.8383906 203.409649,33.7336719 C205.240531,33.2765469 206.980035,32.4600156 208.757751,31.7975156 C209.121602,31.6617031 209.472161,31.4861406 210.020428,31.2443281" id="Fill-10" fill="#3A3A3A"></path>
                    <path d="M87.4533528,27.1613406 L79.4237228,27.1613406 C79.4237228,28.0159656 79.3389906,28.7844656 79.4419984,29.5264656 C79.6646283,31.1214344 80.5418567,32.2924031 82.0686992,32.8770594 C83.811526,33.5445281 85.6041953,33.3722781 87.4533528,33.1619344 L87.4533528,27.1613406 Z M96.3386126,37.7431219 L87.6045417,37.7431219 C87.5480535,37.1766844 87.498211,36.6914031 87.4300929,36.0007469 C86.6409197,36.3700906 85.9281717,36.6980281 85.2187465,37.0375594 C81.9607071,38.5927781 81.8560378,38.6242469 78.3172189,38.0760281 C77.4698961,37.9451844 76.6209118,37.7514031 75.8118016,37.4764656 C72.4457701,36.3336531 71.0701165,34.1010281 71.4871323,30.6013719 C71.8327071,27.7211531 73.2631874,25.6458719 75.933085,24.4185906 C78.0929276,23.4248406 80.4089433,22.9909031 82.6933921,22.4294344 C84.2684157,22.0435281 85.8351323,21.6195281 87.3902189,21.2170594 C87.6460772,19.8970281 87.3370535,18.8270906 86.7489118,17.8465906 C86.1740614,16.8859656 85.2652661,16.4354656 84.1305181,16.4205594 C82.545526,16.3990281 81.0386205,16.8379344 79.7094866,17.5865594 C78.2524236,18.4080594 77.0379276,18.3683094 75.7636205,17.3530281 C75.3814945,17.0482781 74.9129748,16.8511844 74.3946126,16.5530594 C74.5424787,16.2052469 74.6405024,15.8690281 74.818274,15.5791844 C75.9148094,13.7804969 77.4698961,12.4935906 79.4220614,11.7267469 C82.6518567,10.4580594 85.9680457,10.3934656 89.2942031,11.2845281 C92.171778,12.0563406 94.0242583,13.9328719 94.6356598,16.8395906 C94.9579748,18.3716219 95.0659669,19.9682469 95.1075024,21.5400281 C95.1789433,24.3390906 95.1556835,27.1431219 95.1191323,29.9438406 C95.0875654,32.3603094 95.3716677,34.7188094 96.1591795,37.0094031 C96.2306205,37.2147781 96.2638488,37.4334031 96.3386126,37.7431219 L96.3386126,37.7431219 Z" id="Fill-12" fill="#3A3A3A"></path>
                    <path d="M66.2358906,37.7601813 L55.9251346,37.7601813 C55.8703079,37.6160875 55.7988669,37.5233375 55.8154811,37.453775 C56.5298906,34.5768687 56.5980087,31.6486188 56.5614575,28.7071187 C56.5265677,25.9064 56.5531504,23.1056812 56.5531504,20.3049625 L56.5531504,18.84415 L52.0075126,18.84415 C52.0224654,17.7891187 53.0758039,14.9370562 54.139111,12.9959312 L56.4534654,12.9959312 C56.551489,11.841525 56.5830559,10.768275 56.7458748,9.71655625 C56.9469063,8.42965 57.1479378,7.124525 57.5433551,5.88730625 C58.4272291,3.11805625 60.3511504,1.39555625 63.2420165,0.88211875 C65.9218827,0.40511875 68.5535677,0.60055625 71.1669772,1.71024375 L71.1669772,8.2474625 C70.6668906,7.60980625 70.3179929,7.111275 69.9142685,6.66243125 C69.2098276,5.879025 68.4422528,5.05918125 67.2692921,5.322525 C66.0564575,5.59415 65.7274969,6.7104625 65.6161819,7.73236875 C65.433426,9.41843125 65.4467173,11.126025 65.373615,12.93465 L70.4824732,12.93465 C70.6187094,14.8923375 70.5422843,16.75065 70.5389614,18.7729312 L65.5015441,18.7729312 C65.4716386,19.3708375 65.4301031,19.8080875 65.4301031,20.2469937 C65.4234575,24.0414625 65.3785992,27.8359312 65.4500402,31.6287438 C65.4782843,33.15415 65.7607252,34.6745875 65.9451425,36.1933687 C66.0032921,36.67865 66.1212528,37.15565 66.2358906,37.7601813" id="Fill-14" fill="#3A3A3A"></path>
                    <path d="M49.2023756,37.5705406 L40.3453598,37.5705406 L40.3453598,35.9242281 C40.3453598,27.7936969 40.3503441,19.6631656 40.3436984,11.5326344 C40.3403756,8.28472812 40.5148244,5.02854062 39.709037,1.68622812 C42.8059189,0.975696875 45.887848,0.626228125 49.1159819,0.000165625 C49.295415,3.18844687 49.1757929,6.27735312 49.1973913,9.35963437 C49.2189898,12.5214156 49.2023756,15.6848531 49.2023756,18.8466344 L49.2023756,28.1961656 L49.2023756,37.5705406 Z" id="Fill-16" fill="#3A3A3A"></path>
                </g>
            </g>
        </g>
    </g>
</svg>