<?xml version="1.0" encoding="UTF-8"?>
<svg width="286px" height="39px" viewBox="0 0 286 39" version="1.1" xmlns="http://www.w3.org/2000/svg" xmlns:xlink="http://www.w3.org/1999/xlink">
    <!-- Generator: Sketch 41.2 (35397) - http://www.bohemiancoding.com/sketch -->
    <title>bolddecisions</title>
    <desc>Created with Sketch.</desc>
    <defs>
        <polygon id="path-1" points="17.7180417 0.0302786456 0.120100596 0.0302786456 0.120100596 38.4898044 17.7180417 38.4898044 17.7180417 0.0302786456"></polygon>
        <polygon id="path-3" points="0 38.6305909 285.974544 38.6305909 285.974544 0.171065795 0 0.171065795"></polygon>
    </defs>
    <g id="Page-1" stroke="none" stroke-width="1" fill="none" fill-rule="evenodd">
        <g id="Desktop-HD" transform="translate(-589.000000, -1533.000000)">
            <g id="bolddecisions" transform="translate(589.000000, 1533.000000)">
                <path d="M250.873357,17.6145251 L250.873357,38.2813259 C249.117208,38.2813259 247.478602,38.2914188 245.84068,38.2638772 C245.699046,38.2614823 245.515384,38.0334516 245.435769,37.8692284 C245.367088,37.7272438 245.417488,37.5267547 245.417488,37.3520965 C245.417318,25.398532 245.417318,13.4451385 245.417318,1.49157398 L245.417318,0.590570442 C247.205416,0.590570442 248.916973,0.579964363 250.627848,0.609900877 C250.769652,0.612466864 250.979112,0.866157437 251.03515,1.04218414 C252.568001,5.85340961 254.085988,10.6692539 255.603804,15.4852692 C256.157011,17.2407464 256.699283,18.9996449 257.256419,20.7537535 C257.33518,21.0017989 257.469979,21.2317113 257.57881,21.470006 C257.640315,21.4578603 257.701821,21.4455436 257.763326,21.4333979 L257.763326,0.641719115 L263.278308,0.641719115 L263.278308,1.47959938 C263.278308,13.4581395 263.273183,25.4365086 263.292318,37.4148776 C263.293343,38.0911007 263.132745,38.3305928 262.424408,38.2975771 C261.156031,38.2385594 259.88287,38.2683249 258.611929,38.2881685 C258.175241,38.2948401 257.966123,38.1663697 257.817314,37.714756 C255.700504,31.2859324 253.558067,24.865662 251.418021,18.4445364 C251.320296,18.1511585 251.188401,17.8692421 251.072395,17.5820226 C251.006106,17.5927998 250.939646,17.603748 250.873357,17.6145251 Z" id="Fill-1" fill="#3A3A3A"></path>
                <path d="M5.32091553,9.29003589 C5.32091553,10.2365429 5.34124648,11.1837342 5.31271481,12.129557 C5.29750932,12.6371092 5.47570406,12.881049 5.99200753,12.8502572 C7.42559534,12.7645532 8.86840896,12.7549736 10.2903791,12.5770651 C11.9201007,12.3729836 13.1934329,10.9733233 13.2122262,9.38172716 C13.2287984,7.97436886 12.4671569,6.42263104 10.6225081,6.09435578 C9.02781039,5.8107287 7.36801947,5.8827474 5.73590597,5.8432312 C5.60213178,5.83998095 5.3484221,6.18519172 5.34039223,6.37644328 C5.2995595,7.34621527 5.32159892,8.31855324 5.32091553,9.29003589 M5.32040299,29.6809075 C5.32040299,30.6534166 5.33133728,31.6262677 5.31527754,32.5986057 C5.30827276,33.0228489 5.42496213,33.259775 5.90179964,33.2409578 C7.34256308,33.1838218 8.79972796,33.2619989 10.2216981,33.0721158 C12.326207,32.7910547 13.3567638,31.00547 13.1838654,29.3938591 C13.000716,27.6881621 11.8329681,26.5194406 10.1198725,26.3038977 C8.74505651,26.1309502 7.34598005,26.1528466 5.95783787,26.0844203 C5.47399558,26.0606421 5.30195137,26.2873043 5.31339821,26.7630383 C5.33646272,27.7352052 5.32023214,28.7082274 5.32040299,29.6809075 M1.70848267e-05,38.2158932 L1.70848267e-05,0.59818287 L0.778743489,0.59818287 C3.8695595,0.597669673 6.96037551,0.611697068 10.0510207,0.593393028 C14.2110051,0.568588488 17.7687495,3.83286598 18.2150051,7.93126028 C18.6298247,11.7410666 17.4062094,14.7863799 14.0990995,16.8521704 C12.8286718,17.6455736 11.391667,17.9606768 9.90631219,17.9989955 C8.61111147,18.0325244 7.31386057,18.0234579 6.01831816,17.9971138 C5.51875783,17.9870209 5.2751282,18.112241 5.31237312,18.663244 C5.35081398,19.2346037 5.34073393,19.8116086 5.31391075,20.3843369 C5.29187133,20.8515176 5.48783429,20.9722901 5.93289403,20.9763956 C7.57508757,20.9917916 9.22394421,20.9651053 10.8577662,21.1038397 C14.4478008,21.40885 16.9179251,23.7184093 17.8623743,26.7274566 C18.8295464,29.8081805 18.3904663,32.7097985 16.2902286,35.2208733 C14.6996312,37.1226117 12.5905093,38.1856146 10.1142345,38.2545541 C6.87648901,38.3447058 3.63430143,38.2795297 0.39399319,38.277819 C0.274228554,38.277648 0.154463919,38.241211 1.70848267e-05,38.2158932" id="Fill-3" fill="#3A3A3A"></path>
                <path d="M112.877298,19.3537853 L112.877298,20.4759769 C112.877298,24.3413796 112.876785,28.2067823 112.87781,32.072185 C112.877981,33.1185944 112.880202,33.1189366 113.955521,33.1192787 C115.001625,33.1196208 116.048754,33.0883158 117.09332,33.1273188 C118.271319,33.1712827 119.062176,32.5492875 119.53833,31.6012408 C119.873705,30.9332289 120.105375,30.1334963 120.110159,29.3908997 C120.152359,22.7077012 120.150138,16.0241606 120.122802,9.34096218 C120.115455,7.56375964 119.198171,6.21405052 117.490884,5.77235864 C116.340392,5.47470416 115.08107,5.57990962 113.869243,5.54586753 C112.899679,5.518497 112.879177,5.56040812 112.878665,6.56062982 C112.876273,10.8249579 112.877639,15.0894571 112.877298,19.3537853 M107.704525,38.2827286 L107.704525,0.598131551 L108.389455,0.598131551 C111.30481,0.59693409 114.220165,0.588209735 117.13552,0.596763024 C120.761945,0.607198038 124.442359,3.58408499 125.102858,7.34445329 C125.243808,8.147094 125.31061,8.97282859 125.31266,9.78812816 C125.32889,16.4246257 125.323765,23.0612942 125.321031,29.6977917 C125.319323,33.8945489 122.47692,37.3066272 118.331629,38.0598299 C117.602619,38.1924059 116.85362,38.2652799 116.112993,38.2728068 C113.596569,38.2986377 111.079632,38.2827286 108.563037,38.2827286 L107.704525,38.2827286" id="Fill-5" fill="#3A3A3A"></path>
                <path d="M74.9159403,19.3163732 L74.9159403,25.6015015 C74.9159403,27.8460558 74.9174779,30.0907812 74.9152569,32.3353355 C74.9147443,32.7537624 74.8956093,33.1379762 75.5115173,33.1261726 C76.8560932,33.1001706 78.2015233,33.1251462 79.5464409,33.1051315 C79.782724,33.1015392 80.0357503,33.0163484 80.2498232,32.9075506 C81.7011792,32.1699148 82.161957,30.8220874 82.1711828,29.3563957 C82.2130406,22.6974886 82.2068901,16.0382394 82.1785293,9.37916117 C82.1708411,7.56483735 81.2441601,6.21033839 79.5004827,5.75975109 C78.3503321,5.4626098 77.0891302,5.57739495 75.8766201,5.54557671 C74.9535269,5.52128537 74.9179904,5.57671069 74.917307,6.5218492 C74.9147443,10.7866905 74.916282,15.0515319 74.9159403,19.3163732 L74.9159403,19.3163732 Z M69.7334289,0.61323666 C73.2170251,0.61323666 76.6396284,0.45175055 80.0378005,0.67139903 C82.2167993,0.812186179 84.0773369,2.01477871 85.4685544,3.77316402 C86.7471828,5.38905151 87.3688996,7.22920626 87.3620657,9.30953739 C87.3401971,16.0715972 87.3225998,22.833828 87.3646284,29.5955457 C87.3940143,34.3220936 83.8612139,38.0246417 79.0800251,38.2504485 C76.1209331,38.3902093 73.1502234,38.280385 70.18481,38.2774769 C70.0423226,38.2774769 69.8998351,38.2285521 69.7334289,38.1981024 L69.7334289,0.61323666 Z" id="Fill-7" fill="#3A3A3A"></path>
                <path d="M35.7158133,19.4798779 C35.7158133,16.0376919 35.7200845,12.595506 35.7101753,9.15349117 C35.7089793,8.75901345 35.6973616,8.34178398 35.5740092,7.97450572 C34.9821908,6.21252803 33.1942637,5.23813727 31.2107153,5.55529325 C29.6404489,5.80641784 28.5365982,7.2649248 28.535744,9.11619883 C28.532327,16.0005707 28.545824,22.8849425 28.5277141,29.7691433 C28.5220761,31.9011363 30.0610773,33.291388 32.1124524,33.3582747 C34.0107476,33.4202005 35.7108587,31.6792639 35.7139339,29.7315088 C35.7195719,26.3142985 35.7154716,22.8970882 35.7158133,19.4798779 M41.1161562,19.3006009 C41.1161562,22.8430314 41.0732732,26.3859751 41.1279447,29.9273791 C41.1856914,33.6742332 38.3595194,36.9472351 34.9738192,38.0446221 C30.5551705,39.476956 26.0505851,37.4065467 24.1246125,33.7534367 C23.5247643,32.615336 23.145652,31.427284 23.1475313,30.1188018 C23.1582947,23.0342829 23.1820427,15.949422 23.1406974,8.86507424 C23.1203664,5.39192542 24.7630725,2.94072365 27.7088384,1.40284215 C31.1775707,-0.40788928 34.5699339,-0.000239492112 37.7502744,2.26586909 C39.4466269,3.47461999 40.4918766,5.12386532 41.0085217,7.11558436 C41.1248694,7.56411888 41.1108599,8.05336705 41.1118849,8.52414012 C41.1195731,12.1163507 41.1161562,15.7085614 41.1161562,19.3006009" id="Fill-9" fill="#3A3A3A"></path>
                <path d="M233.939304,19.3951319 C233.939304,15.9529459 233.943233,12.510589 233.937766,9.06840305 C233.93452,7.02399574 232.392444,5.51656396 230.323471,5.51810355 C228.160874,5.51981421 226.762651,6.88851163 226.760089,9.05095434 C226.751717,15.9603018 226.763335,22.8698203 226.753084,29.7791677 C226.749838,31.9383602 228.315662,33.2955962 230.348757,33.3582063 C232.245514,33.4165397 233.934691,31.6764585 233.937766,29.7218607 C233.942892,26.2796748 233.939133,22.8373178 233.939304,19.3951319 M239.341868,19.2776097 C239.342039,22.8198691 239.294372,26.3629838 239.355023,29.9043879 C239.41892,33.635675 236.649128,36.9468245 233.221058,38.0318949 C230.040205,39.0387881 227.100589,38.5050628 224.535986,36.402151 C222.525785,34.7539321 221.372047,32.603464 221.375464,29.9173889 C221.384519,22.8576746 221.452004,15.7969339 221.347616,8.73875926 C221.295507,5.2062506 223.874291,2.05213948 226.988171,0.891629134 C231.417242,-0.758984717 236.358515,1.29619974 238.41587,5.01790716 C239.002563,6.07937042 239.357757,7.18958743 239.349898,8.42605099 C239.327004,12.0430661 239.341868,15.6604234 239.341868,19.2776097" id="Fill-11" fill="#3A3A3A"></path>
                <path d="M149.200887,0.630137961 L149.200887,5.51697451 L148.383549,5.51697451 C144.794881,5.51697451 141.205871,5.53510749 137.617374,5.50192072 C136.887852,5.49524916 136.687618,5.72978036 136.696502,6.44209833 C136.732209,9.31121384 136.709999,12.1811847 136.711878,15.0509844 C136.712391,16.0029656 136.738018,16.0322178 137.663845,16.0344417 C139.458264,16.0388894 141.252684,16.0354681 143.047103,16.0354681 C143.265789,16.035297 143.484474,16.0354681 143.751681,16.0354681 L143.751681,20.9722559 C141.697402,20.9722559 139.706507,20.9712295 137.715612,20.972598 C136.715124,20.9732822 136.71222,20.975164 136.711707,21.9596476 C136.710341,25.4531533 136.728792,28.94683 136.696502,32.4399935 C136.689839,33.1716419 136.943036,33.3880402 137.646077,33.3832503 C141.209801,33.358959 144.773695,33.3723021 148.337419,33.3724732 L149.186877,33.3724732 L149.186877,38.2387818 L131.563878,38.2387818 L131.563878,0.630137961 L149.200887,0.630137961 Z" id="Fill-13" fill="#3A3A3A"></path>
                <path d="M186.976259,29.6497565 L192.123234,29.6497565 C192.305016,30.8439668 192.705314,31.9069696 193.784562,32.5855876 C195.040126,33.3752273 196.339598,33.376938 197.610026,32.7173083 C198.856193,32.0701664 199.497728,30.9801351 199.512421,29.5577231 C199.52421,28.4098716 199.516351,27.261849 199.515155,26.1139975 C199.512592,23.6475709 198.283851,22.3449049 195.804672,22.3462734 C194.079959,22.3471287 192.437594,22.1006229 190.907819,21.2892579 C188.524486,20.0250817 187.271314,17.9430399 187.093802,15.3368525 C186.924833,12.8541746 186.898864,10.3377968 187.100807,7.85990874 C187.339824,4.9249329 189.364547,2.11603256 192.713343,0.936533905 C197.064507,-0.595702416 201.583615,1.12042963 203.71751,5.19607219 C204.244747,6.20296546 204.394581,7.4110321 204.693395,8.53322371 C204.826657,9.03410436 204.559621,9.18173414 204.081416,9.17420724 C202.760759,9.15316615 201.439419,9.15094229 200.118932,9.17523364 C199.626548,9.18430012 199.43366,9.01973483 199.344136,8.51680139 C199.031483,6.76063995 197.72364,5.62750012 196.002685,5.54299362 C194.255249,5.45728966 192.465955,6.69563494 192.336965,8.48583848 C192.179101,10.678902 192.308091,12.9089157 192.506788,15.1054005 C192.613397,16.2847281 193.666335,16.9688202 194.883629,17.1070413 C196.262545,17.2637376 197.669652,17.3219 199.007906,17.6527412 C201.890458,18.3654013 203.720072,20.2864702 204.442419,23.1389923 C205.02672,25.4463277 204.957014,27.8125098 204.777623,30.1874162 C204.505633,33.7862984 202.586665,36.1769429 199.429731,37.5675368 C194.12643,39.9034402 188.324251,36.8959324 187.101149,31.2854876 C186.991806,30.7839227 187.018629,30.2525923 186.976259,29.6497565" id="Fill-15" fill="#3A3A3A"></path>
                <path d="M268.11791,29.6683342 L273.220977,29.6683342 C273.402759,31.1495929 274.045832,32.3029185 275.47549,32.9155051 C277.834051,33.9261618 280.568477,32.1696582 280.594788,29.6072637 C280.606406,28.4595833 280.597692,27.3115607 280.59718,26.1635382 C280.596155,23.6069599 279.370831,22.3304669 276.787947,22.3438101 C275.085444,22.3525344 273.468194,22.0798556 271.968488,21.2785834 C269.593185,20.0096173 268.357097,17.9214172 268.173265,15.3118085 C268.012326,13.0280801 268.098091,10.7239949 268.139266,8.43000261 C268.199575,5.08498206 270.619641,2.0176013 273.818775,0.92380661 C278.171305,-0.564465802 282.631641,1.10992619 284.774078,5.15426371 C285.316863,6.17877675 285.469431,7.41370072 285.777983,8.55813089 C285.899968,9.01111311 285.670861,9.17875759 285.214525,9.17294135 C283.84398,9.15532158 282.472923,9.15566371 281.102207,9.17259922 C280.658002,9.17807333 280.517735,8.98357152 280.437608,8.56599992 C280.058324,6.59001892 278.473878,5.32464524 276.539875,5.56447948 C274.868637,5.77164016 273.391312,6.97919361 273.314772,9.10246225 C273.254634,10.771038 273.270523,12.4467985 273.349113,14.11469 C273.438979,16.0261792 274.453647,17.0228085 276.363901,17.1295536 C278.259292,17.2356144 280.130935,17.372296 281.844543,18.3234218 C284.269563,19.6695385 285.48344,21.8141904 285.79951,24.4758031 C285.978046,25.9786161 285.99086,27.509826 285.963524,29.0263243 C285.931234,30.8271339 285.673594,32.5908222 284.604938,34.1381123 C282.732783,36.8488209 280.198762,38.3015117 276.877471,38.3071568 C273.095916,38.3136573 270.466561,36.4800031 268.807795,33.1703931 C268.271673,32.1003766 267.98704,30.9384977 268.11791,29.6683342" id="Fill-17" fill="#3A3A3A"></path>
                <g id="Group-21" transform="translate(154.446834, 0.140787)">
                    <mask id="mask-2" fill="white">
                        <use xlink:href="#path-1"></use>
                    </mask>
                    <g id="Clip-20"></g>
                    <path d="M17.7180417,8.53671345 L12.4882054,8.53671345 C12.3305124,7.04946743 11.664375,5.91427482 10.3527729,5.21410252 C8.42201661,4.18343111 5.91413489,5.50901995 5.59909068,7.72723011 C5.55364504,8.04695208 5.54612772,8.37420095 5.54595687,8.69785743 C5.54305245,15.760822 5.53997718,22.8237865 5.55125317,29.8865799 C5.55210741,30.4045672 5.57875974,30.950096 5.73781947,31.4352386 C6.21636547,32.894943 7.2988601,33.6012737 8.87220179,33.5774955 C10.375154,33.5545727 11.6990572,32.5853139 12.1398458,31.1851404 C12.5681624,29.8248252 12.5681624,29.8248252 13.9790274,29.8248252 C14.9012663,29.8248252 15.8252137,29.8597226 16.7450608,29.8130216 C17.4192281,29.7788085 17.6380847,30.0232615 17.5518063,30.6813516 C17.1197311,33.9747103 15.1343033,37.0102728 11.4463726,38.0607879 C8.06033082,39.0254279 4.90920538,38.4001824 2.36578722,35.8100752 C0.921265114,34.3392515 0.16218626,32.5138084 0.162015412,30.4160286 C0.160990323,23.2033815 0.261278256,15.9888527 0.121524373,8.77894262 C0.0466928315,4.91542165 2.93180753,1.34100187 6.37320418,0.372940539 C10.6913941,-0.841626603 15.2947299,1.25136339 16.9130047,5.39406374 C17.2917753,6.36332253 17.4399007,7.422733 17.7180417,8.53671345" id="Fill-19" fill="#3A3A3A" mask="url(#mask-2)"></path>
                </g>
                <path d="M52.5887711,0.642933682 L52.5887711,1.46764188 C52.5887711,11.7278261 52.5886002,21.9878393 52.5887711,32.2480235 C52.5887711,33.3681623 52.5894545,33.3712415 53.6938177,33.3717547 C57.2091916,33.3732943 60.7247364,33.372439 64.2401104,33.372439 L65.0215704,33.372439 L65.0215704,38.2274573 L47.1660471,38.2274573 L47.1660471,0.642933682 L52.5887711,0.642933682 Z" id="Fill-22" fill="#3A3A3A"></path>
                <mask id="mask-4" fill="white">
                    <use xlink:href="#path-3"></use>
                </mask>
                <g id="Clip-25"></g>
                <polygon id="Fill-24" fill="#3A3A3A" mask="url(#mask-4)" points="177.001539 38.2236254 182.341914 38.2236254 182.341914 0.613441939 177.001539 0.613441939"></polygon>
                <polygon id="Fill-26" fill="#3A3A3A" mask="url(#mask-4)" points="210.021384 38.2125061 215.399004 38.2125061 215.399004 0.626956137 210.021384 0.626956137"></polygon>
            </g>
        </g>
    </g>
</svg>