<?xml version="1.0" encoding="UTF-8"?>
<svg width="270px" height="60px" viewBox="0 0 270 60" version="1.1" xmlns="http://www.w3.org/2000/svg" xmlns:xlink="http://www.w3.org/1999/xlink">
    <!-- Generator: Sketch 41.2 (35397) - http://www.bohemiancoding.com/sketch -->
    <title>Colophon</title>
    <desc>Created with Sketch.</desc>
    <defs></defs>
    <g id="Page-1" stroke="none" stroke-width="1" fill="none" fill-rule="evenodd">
        <g id="Desktop-HD" transform="translate(-586.000000, -523.000000)" fill="#3A3A3A">
            <path d="M625.876,537.256 C623.764,528.68 617.044,523.688 607.316,523.688 C596.116,523.688 586.132,531.624 586.132,546.6 C586.132,561.576 596.116,569.512 607.316,569.512 C617.044,569.512 623.764,564.52 625.876,555.944 L618.388,554.024 C616.66,558.568 613.524,561.832 607.316,561.832 C600.404,561.832 594.58,556.968 594.58,546.6 C594.58,536.232 600.404,531.368 607.316,531.368 C613.524,531.368 616.66,534.632 618.388,539.176 L625.876,537.256 Z M629.508,552.872 C629.508,562.216 635.524,569.512 645.892,569.512 C656.26,569.512 662.276,562.216 662.276,552.872 C662.276,543.528 656.26,536.232 645.892,536.232 C635.524,536.232 629.508,543.528 629.508,552.872 Z M637.828,552.872 C637.828,547.56 640.772,543.016 645.892,543.016 C651.012,543.016 653.956,547.56 653.956,552.872 C653.956,558.184 651.012,562.728 645.892,562.728 C640.772,562.728 637.828,558.184 637.828,552.872 Z M667.764,523.688 L667.764,569 L675.7,569 L675.7,523.688 L667.764,523.688 Z M681.06,552.872 C681.06,562.216 687.076,569.512 697.444,569.512 C707.812,569.512 713.828,562.216 713.828,552.872 C713.828,543.528 707.812,536.232 697.444,536.232 C687.076,536.232 681.06,543.528 681.06,552.872 Z M689.38,552.872 C689.38,547.56 692.324,543.016 697.444,543.016 C702.564,543.016 705.508,547.56 705.508,552.872 C705.508,558.184 702.564,562.728 697.444,562.728 C692.324,562.728 689.38,558.184 689.38,552.872 Z M750.036,552.872 C750.036,542.952 745.044,536.232 735.316,536.232 C731.348,536.232 728.404,538.408 727.508,540.072 L727.508,536.744 L719.572,536.744 L719.572,582.056 L727.508,582.056 L727.508,566.056 C728.916,567.848 732.052,569.512 735.316,569.512 C745.044,569.512 750.036,562.792 750.036,552.872 Z M741.716,552.872 C741.716,559.272 738.388,562.728 734.228,562.728 C730.068,562.728 726.804,559.272 726.804,552.872 C726.804,546.472 730.068,543.016 734.228,543.016 C738.388,543.016 741.716,546.472 741.716,552.872 Z M755.652,523.688 L755.652,569 L763.588,569 L763.588,555.368 C763.588,546.664 767.492,543.016 771.14,543.016 C774.404,543.016 775.94,544.872 775.94,548.776 L775.94,569 L783.876,569 L783.876,545.96 C783.876,539.368 779.908,536.232 773.828,536.232 C769.156,536.232 765.636,538.664 763.588,541.928 L763.588,523.688 L755.652,523.688 Z M789.556,552.872 C789.556,562.216 795.572,569.512 805.94,569.512 C816.308,569.512 822.324,562.216 822.324,552.872 C822.324,543.528 816.308,536.232 805.94,536.232 C795.572,536.232 789.556,543.528 789.556,552.872 Z M797.876,552.872 C797.876,547.56 800.82,543.016 805.94,543.016 C811.06,543.016 814.004,547.56 814.004,552.872 C814.004,558.184 811.06,562.728 805.94,562.728 C800.82,562.728 797.876,558.184 797.876,552.872 Z M827.492,536.744 L827.492,569 L835.428,569 L835.428,556.136 C835.428,547.624 838.948,543.016 842.788,543.016 C845.476,543.016 847.396,544.488 847.396,548.328 L847.396,569 L855.332,569 L855.332,545.96 C855.332,539.496 851.172,536.232 845.412,536.232 C841.252,536.232 837.796,538.536 835.428,541.928 L835.428,536.744 L827.492,536.744 Z" id="Colophon"></path>
        </g>
    </g>
</svg>