<?xml version="1.0" encoding="UTF-8"?>
<svg width="335px" height="50px" viewBox="0 0 335 50" version="1.1" xmlns="http://www.w3.org/2000/svg" xmlns:xlink="http://www.w3.org/1999/xlink">
    <!-- Generator: Sketch 41.2 (35397) - http://www.bohemiancoding.com/sketch -->
    <title>commercial</title>
    <desc>Created with Sketch.</desc>
    <defs></defs>
    <g id="Page-1" stroke="none" stroke-width="1" fill="none" fill-rule="evenodd">
        <g id="Desktop-HD" transform="translate(-553.000000, -214.000000)" fill="#3A3A3A">
            <path d="M570.77,237.45 C568.229987,237.45 566.035009,237.280002 564.185,236.94 C562.334991,236.599998 560.770006,236.145003 559.49,235.575 C558.209994,235.004997 557.170004,234.340004 556.37,233.58 C555.569996,232.819996 554.950002,232.025004 554.51,231.195 C554.069998,230.364996 553.775001,229.525004 553.625,228.675 C553.474999,227.824996 553.4,227.010004 553.4,226.23 L553.4,225.33 C553.4,224.549996 553.474999,223.735004 553.625,222.885 C553.775001,222.034996 554.064998,221.200004 554.495,220.38 C554.925002,219.559996 555.534996,218.775004 556.325,218.025 C557.115004,217.274996 558.154994,216.620003 559.445,216.06 C560.735006,215.499997 562.304991,215.055002 564.155,214.725 C566.005009,214.394998 568.209987,214.23 570.77,214.23 L571.82,214.23 C574.280012,214.23 576.399991,214.389998 578.18,214.71 C579.960009,215.030002 581.469994,215.444997 582.71,215.955 C583.950006,216.465003 584.949996,217.054997 585.71,217.725 C586.470004,218.395003 587.054998,219.079996 587.465,219.78 C587.875002,220.480004 588.149999,221.174997 588.29,221.865 C588.430001,222.555003 588.5,223.169997 588.5,223.71 L588.5,224.16 L576.95,224.16 C576.91,224.039999 576.830001,223.825002 576.71,223.515 C576.589999,223.204998 576.330002,222.890002 575.93,222.57 C575.529998,222.249998 574.950004,221.965001 574.19,221.715 C573.429996,221.464999 572.410006,221.34 571.13,221.34 C569.849994,221.34 568.820004,221.464999 568.04,221.715 C567.259996,221.965001 566.655002,222.289998 566.225,222.69 C565.794998,223.090002 565.505001,223.539997 565.355,224.04 C565.204999,224.540003 565.13,225.029998 565.13,225.51 L565.13,225.87 C565.13,226.350002 565.209999,226.849997 565.37,227.37 C565.530001,227.890003 565.824998,228.364998 566.255,228.795 C566.685002,229.225002 567.289996,229.579999 568.07,229.86 C568.850004,230.140001 569.869994,230.28 571.13,230.28 C572.450007,230.28 573.489996,230.145001 574.25,229.875 C575.010004,229.604999 575.584998,229.295002 575.975,228.945 C576.365002,228.594998 576.619999,228.255002 576.74,227.925 C576.860001,227.594998 576.93,227.360001 576.95,227.22 L588.5,227.22 L588.5,228 C588.5,228.520003 588.430001,229.114997 588.29,229.785 C588.149999,230.455003 587.875002,231.139996 587.465,231.84 C587.054998,232.540004 586.470004,233.224997 585.71,233.895 C584.949996,234.565003 583.955006,235.164997 582.725,235.695 C581.494994,236.225003 579.985009,236.649998 578.195,236.97 C576.404991,237.290002 574.280012,237.45 571.82,237.45 L570.77,237.45 Z M608.21,214.23 C610.730013,214.23 612.904991,214.394998 614.735,214.725 C616.565009,215.055002 618.124994,215.499997 619.415,216.06 C620.705006,216.620003 621.749996,217.274996 622.55,218.025 C623.350004,218.775004 623.974998,219.559996 624.425,220.38 C624.875002,221.200004 625.179999,222.034996 625.34,222.885 C625.500001,223.735004 625.58,224.549996 625.58,225.33 L625.58,226.23 C625.58,226.990004 625.500001,227.794996 625.34,228.645 C625.179999,229.495004 624.875002,230.339996 624.425,231.18 C623.974998,232.020004 623.350004,232.814996 622.55,233.565 C621.749996,234.315004 620.705006,234.979997 619.415,235.56 C618.124994,236.140003 616.560009,236.599998 614.72,236.94 C612.879991,237.280002 610.710013,237.45 608.21,237.45 L606.71,237.45 C604.209988,237.45 602.045009,237.280002 600.215,236.94 C598.384991,236.599998 596.825006,236.140003 595.535,235.56 C594.244994,234.979997 593.195004,234.315004 592.385,233.565 C591.574996,232.814996 590.945002,232.020004 590.495,231.18 C590.044998,230.339996 589.740001,229.495004 589.58,228.645 C589.419999,227.794996 589.34,226.990004 589.34,226.23 L589.34,225.33 C589.34,224.549996 589.419999,223.735004 589.58,222.885 C589.740001,222.034996 590.044998,221.200004 590.495,220.38 C590.945002,219.559996 591.569996,218.775004 592.37,218.025 C593.170004,217.274996 594.214994,216.620003 595.505,216.06 C596.795006,215.499997 598.354991,215.055002 600.185,214.725 C602.015009,214.394998 604.189987,214.23 606.71,214.23 L608.21,214.23 Z M613.82,225.51 C613.82,225.029998 613.715001,224.540003 613.505,224.04 C613.294999,223.539997 612.945002,223.090002 612.455,222.69 C611.964998,222.289998 611.310004,221.965001 610.49,221.715 C609.669996,221.464999 608.650006,221.34 607.43,221.34 C606.189994,221.34 605.160004,221.464999 604.34,221.715 C603.519996,221.965001 602.870002,222.289998 602.39,222.69 C601.909998,223.090002 601.570001,223.539997 601.37,224.04 C601.169999,224.540003 601.07,225.029998 601.07,225.51 L601.07,225.87 C601.07,226.370002 601.174999,226.879997 601.385,227.4 C601.595001,227.920003 601.949997,228.394998 602.45,228.825 C602.950002,229.255002 603.604996,229.604999 604.415,229.875 C605.225004,230.145001 606.229994,230.28 607.43,230.28 C608.650006,230.28 609.664996,230.150001 610.475,229.89 C611.285004,229.629999 611.939998,229.290002 612.44,228.87 C612.940002,228.449998 613.294999,227.980003 613.505,227.46 C613.715001,226.939997 613.82,226.430003 613.82,225.93 L613.82,225.51 Z M626.96,214.68 L641.99,214.68 L647.24,224.61 L652.7,214.68 L667.01,214.68 L667.01,237 L655.67,237 L655.67,225.96 L649.67,237 L644.24,237 L638.27,225.96 L638.27,237 L626.96,237 L626.96,214.68 Z M668.87,214.68 L683.9,214.68 L689.15,224.61 L694.61,214.68 L708.92,214.68 L708.92,237 L697.58,237 L697.58,225.96 L691.58,237 L686.15,237 L680.18,225.96 L680.18,237 L668.87,237 L668.87,214.68 Z M737.69,214.68 L737.69,220.92 L722,220.92 L722,222.66 L737.51,222.66 L737.51,228.78 L722,228.78 L722,230.7 L737.81,230.7 L737.81,237 L710.78,237 L710.78,214.68 L737.69,214.68 Z M759.14,223.59 C759.920004,223.59 760.459998,223.455001 760.76,223.185 C761.060001,222.914999 761.21,222.580002 761.21,222.18 C761.21,221.759998 761.055002,221.420001 760.745,221.16 C760.434998,220.899999 759.900004,220.77 759.14,220.77 L750.83,220.77 L750.83,223.59 L759.14,223.59 Z M750.83,237 L739.43,237 L739.43,214.68 L764.09,214.68 C765.290006,214.68 766.424995,214.764999 767.495,214.935 C768.565005,215.105001 769.494996,215.404998 770.285,215.835 C771.075004,216.265002 771.704998,216.844996 772.175,217.575 C772.645002,218.305004 772.88,219.219995 772.88,220.32 L772.88,220.59 C772.88,221.430004 772.705002,222.149997 772.355,222.75 C772.004998,223.350003 771.575003,223.854998 771.065,224.265 C770.554997,224.675002 769.995003,224.999999 769.385,225.24 C768.774997,225.480001 768.220002,225.65 767.72,225.75 C769.500009,226.090002 770.824996,226.744995 771.695,227.715 C772.565004,228.685005 773,229.899993 773,231.36 L773,234.75 C773,235.310003 773.035,235.739999 773.105,236.04 C773.175,236.340001 773.269999,236.599999 773.39,236.82 L773.39,237 L761.66,237 C761.58,236.92 761.535,236.825001 761.525,236.715 C761.515,236.604999 761.51,236.470001 761.51,236.31 L761.51,233.61 C761.51,232.469994 761.190003,231.560003 760.55,230.88 C759.909997,230.199997 758.790008,229.86 757.19,229.86 L750.83,229.86 L750.83,237 Z M791.42,237.45 C788.879987,237.45 786.685009,237.280002 784.835,236.94 C782.984991,236.599998 781.420006,236.145003 780.14,235.575 C778.859994,235.004997 777.820004,234.340004 777.02,233.58 C776.219996,232.819996 775.600002,232.025004 775.16,231.195 C774.719998,230.364996 774.425001,229.525004 774.275,228.675 C774.124999,227.824996 774.05,227.010004 774.05,226.23 L774.05,225.33 C774.05,224.549996 774.124999,223.735004 774.275,222.885 C774.425001,222.034996 774.714998,221.200004 775.145,220.38 C775.575002,219.559996 776.184996,218.775004 776.975,218.025 C777.765004,217.274996 778.804994,216.620003 780.095,216.06 C781.385006,215.499997 782.954991,215.055002 784.805,214.725 C786.655009,214.394998 788.859987,214.23 791.42,214.23 L792.47,214.23 C794.930012,214.23 797.049991,214.389998 798.83,214.71 C800.610009,215.030002 802.119994,215.444997 803.36,215.955 C804.600006,216.465003 805.599996,217.054997 806.36,217.725 C807.120004,218.395003 807.704998,219.079996 808.115,219.78 C808.525002,220.480004 808.799999,221.174997 808.94,221.865 C809.080001,222.555003 809.15,223.169997 809.15,223.71 L809.15,224.16 L797.6,224.16 C797.56,224.039999 797.480001,223.825002 797.36,223.515 C797.239999,223.204998 796.980002,222.890002 796.58,222.57 C796.179998,222.249998 795.600004,221.965001 794.84,221.715 C794.079996,221.464999 793.060006,221.34 791.78,221.34 C790.499994,221.34 789.470004,221.464999 788.69,221.715 C787.909996,221.965001 787.305002,222.289998 786.875,222.69 C786.444998,223.090002 786.155001,223.539997 786.005,224.04 C785.854999,224.540003 785.78,225.029998 785.78,225.51 L785.78,225.87 C785.78,226.350002 785.859999,226.849997 786.02,227.37 C786.180001,227.890003 786.474998,228.364998 786.905,228.795 C787.335002,229.225002 787.939996,229.579999 788.72,229.86 C789.500004,230.140001 790.519994,230.28 791.78,230.28 C793.100007,230.28 794.139996,230.145001 794.9,229.875 C795.660004,229.604999 796.234998,229.295002 796.625,228.945 C797.015002,228.594998 797.269999,228.255002 797.39,227.925 C797.510001,227.594998 797.58,227.360001 797.6,227.22 L809.15,227.22 L809.15,228 C809.15,228.520003 809.080001,229.114997 808.94,229.785 C808.799999,230.455003 808.525002,231.139996 808.115,231.84 C807.704998,232.540004 807.120004,233.224997 806.36,233.895 C805.599996,234.565003 804.605006,235.164997 803.375,235.695 C802.144994,236.225003 800.635009,236.649998 798.845,236.97 C797.054991,237.290002 794.930012,237.45 792.47,237.45 L791.42,237.45 Z M821.84,237 L810.47,237 L810.47,214.68 L821.84,214.68 L821.84,237 Z M840.53,221.55 L837.86,227.73 L843.26,227.73 L840.53,221.55 Z M846.17,234.33 L835.01,234.33 L833.84,237 L822.32,237 L832.85,214.68 L848.87,214.68 L860.06,237 L847.34,237 L846.17,234.33 Z M871.94,214.68 L871.94,229.05 L887.42,229.05 L887.42,237 L860.54,237 L860.54,214.68 L871.94,214.68 Z M665.45,249.36 L655.82,249.36 L655.82,241.68 L686.48,241.68 L686.48,249.36 L676.85,249.36 L676.85,264 L665.45,264 L665.45,249.36 Z M699.32,256.08 L686.57,241.68 L699.71,241.68 L705.44,248.4 L711.26,241.68 L723.35,241.68 L710.72,256.23 L710.72,264 L699.32,264 L699.32,256.08 Z M735.17,257.91 L735.17,264 L723.77,264 L723.77,241.68 L745.94,241.68 C748.100011,241.68 749.884993,241.879998 751.295,242.28 C752.705007,242.680002 753.824996,243.224997 754.655,243.915 C755.485004,244.605003 756.064998,245.414995 756.395,246.345 C756.725002,247.275005 756.89,248.259995 756.89,249.3 L756.89,250.08 C756.89,251.120005 756.720002,252.114995 756.38,253.065 C756.039998,254.015005 755.450004,254.849996 754.61,255.57 C753.769996,256.290004 752.645007,256.859998 751.235,257.28 C749.824993,257.700002 748.060011,257.91 745.94,257.91 L735.17,257.91 Z M735.17,251.16 L743.15,251.16 C743.930004,251.16 744.459999,251.015001 744.74,250.725 C745.020001,250.434999 745.16,250.100002 745.16,249.72 L745.16,249.66 C745.16,249.259998 745.020001,248.920001 744.74,248.64 C744.459999,248.359999 743.930004,248.22 743.15,248.22 L735.17,248.22 L735.17,251.16 Z M784.97,241.68 L784.97,247.92 L769.28,247.92 L769.28,249.66 L784.79,249.66 L784.79,255.78 L769.28,255.78 L769.28,257.7 L785.09,257.7 L785.09,264 L758.06,264 L758.06,241.68 L784.97,241.68 Z" id="commercial"></path>
        </g>
    </g>
</svg>