<?xml version="1.0" encoding="UTF-8"?>
<svg width="190px" height="40px" viewBox="0 0 190 40" version="1.1" xmlns="http://www.w3.org/2000/svg" xmlns:xlink="http://www.w3.org/1999/xlink">
    <!-- Generator: Sketch 41.2 (35397) - http://www.bohemiancoding.com/sketch -->
    <title>dinamo</title>
    <desc>Created with Sketch.</desc>
    <defs></defs>
    <g id="Page-1" stroke="none" stroke-width="1" fill="none" fill-rule="evenodd">
        <g id="Desktop-HD" transform="translate(-197.000000, -542.000000)" fill="#3A3A3A">
            <g id="dinamo" transform="translate(197.000000, 542.000000)">
                <path d="M5.11750897,19.6407132 C5.11750897,24.2131163 5.13021697,28.7855194 5.10356117,33.3579225 C5.09984176,34.0190078 5.25295759,34.2645891 5.95747635,34.2537364 C8.43584502,34.2146667 10.9154535,34.2583876 13.3941321,34.2335814 C16.732925,34.2004031 19.6780799,33.1008682 22.0771011,30.756062 C26.1771338,26.748 27.4129086,21.8174574 26.4808858,16.2813333 C25.4118646,9.93218605 20.4101843,5.66893023 14.2282104,5.13311628 C11.4587977,4.89311628 8.65684013,5.04350388 5.8703801,4.97311628 C5.23002121,4.95699225 5.10170147,5.1728062 5.10480098,5.76846512 C5.12804731,10.3923411 5.11750897,15.0165271 5.11750897,19.6407132 L5.11750897,19.6407132 Z M-9.29853181e-05,0.0515658915 C0.175959217,0.0391627907 0.301179445,0.0224186047 0.426399674,0.0227286822 C5.04746003,0.0304806202 9.67130995,-0.0606821705 14.2886509,0.0754418605 C19.8237569,0.238542636 24.5976232,2.26737984 28.2262202,6.56164341 C30.5883573,9.3576124 31.7946868,12.6506357 32.1247847,16.3095504 C32.5515873,21.0416434 31.0291077,25.1433488 28.2866607,28.876062 C25.8767912,32.1563721 22.84454,34.8692403 20.0779168,37.8255194 C19.1604617,38.8059845 18.2513752,39.1442791 16.9399723,39.1262946 C11.5970359,39.0537364 6.2522398,39.0962171 0.908063622,39.0962171 L-9.29853181e-05,39.0962171 L-9.29853181e-05,0.0515658915 Z" id="Fill-1"></path>
                <path d="M115.10823,10.9275969 C116.68929,10.9275969 118.155669,10.9108527 119.620498,10.9539535 C119.762765,10.9582946 119.998638,11.3257364 120.011966,11.535969 C120.059698,12.2820155 120.024674,13.0333333 120.031493,13.7827907 C120.033662,14.0262016 120.067447,14.2693023 120.103711,14.7282171 C120.917333,13.9266667 121.639829,13.3111628 122.247953,12.5979845 C124.190416,10.3207752 126.748442,10.1710078 129.401313,10.5551938 C132.378393,10.9865116 134.577806,12.6075969 135.960188,15.3031008 C136.005131,15.3908527 136.086648,15.4596899 136.19978,15.5964341 C136.383891,15.4451163 136.565522,15.3189147 136.720188,15.1657364 C137.563874,14.3291473 138.4804,13.5502326 139.222423,12.6308527 C140.368312,11.2106977 141.89575,10.6937984 143.594902,10.4541085 C147.541819,9.89782946 151.305555,11.6978295 153.29823,15.1524031 C154.203907,16.7220155 154.640628,18.444186 154.642798,20.26 C154.650237,26.3062016 154.637838,32.3524031 154.658605,38.3986047 C154.660465,39.0007752 154.450318,39.1465116 153.894266,39.1294574 C152.758915,39.0944186 151.620775,39.0916279 150.485734,39.1297674 C149.87606,39.1502326 149.699698,38.9555039 149.703108,38.3337984 C149.729144,33.1663566 149.739682,27.9982946 149.706207,22.8308527 C149.693809,20.9108527 149.43624,19.0299225 148.278573,17.3865116 C146.870775,15.388062 144.897316,14.7725581 142.585701,15.0407752 C140.450759,15.2885271 138.914641,16.5034109 138.132945,18.4367442 C137.641672,19.6516279 137.358067,21.0308527 137.33637,22.3421705 C137.249584,27.6376744 137.286468,32.9356589 137.317773,38.2324031 C137.322113,38.9533333 137.119405,39.1734884 136.410546,39.1334884 C135.406615,39.0767442 134.394005,39.0714729 133.390693,39.1347287 C132.65456,39.1812403 132.426436,38.9706977 132.431395,38.2069767 C132.464869,33.0137984 132.487496,27.8193798 132.420856,22.6268217 C132.405049,21.384031 132.171966,20.1046512 131.805294,18.9139535 C131.001591,16.3031008 128.838752,14.9595349 125.817039,15.0057364 C123.348899,15.0435659 121.274086,16.5868217 120.593744,19.0755039 C120.264576,20.280155 120.067447,21.5579845 120.053189,22.8051163 C119.994608,27.9722481 120.015065,33.1406202 120.04544,38.308062 C120.04947,38.9809302 119.836223,39.1533333 119.210122,39.1300775 C118.126843,39.0900775 117.038605,39.0779845 115.956876,39.1337984 C115.268785,39.1694574 115.091183,38.9496124 115.093042,38.2658915 C115.116289,29.4293023 115.10823,20.5924031 115.10823,11.7555039 L115.10823,10.9275969 Z" id="Fill-4"></path>
                <path d="M95.614137,35.3299225 C96.526633,35.0852713 97.488721,34.9525581 98.3410865,34.5730233 C100.059455,33.808062 101.159781,32.4790698 101.277253,30.5348837 C101.393794,28.5990698 100.432326,27.2105426 98.793925,26.3106977 C96.6977259,25.1596899 94.5296183,25.1544186 92.4275302,26.2775194 C89.7653605,27.6995349 89.2201566,31.1928682 91.2611843,33.4229457 C92.4182316,34.6871318 93.904137,35.16 95.614137,35.3299225 M100.982179,23.4427907 C100.901592,21.3221705 101.23107,19.3277519 100.380564,17.4415504 C99.9512822,16.4902326 99.2538923,15.7906977 98.2973834,15.3500775 C96.0211028,14.3020155 92.9621958,14.9575194 91.7772529,16.764031 C91.6083295,17.0213953 91.4003524,17.2939535 91.3538597,17.5826357 C91.2109723,18.4703876 90.6939739,18.6151938 89.889031,18.5699225 C88.6070734,18.4973643 87.317677,18.5503876 85.9532724,18.5503876 C85.9755889,16.8223256 86.5734845,15.3807752 87.6040718,14.1137984 C89.4929135,11.7916279 92.0345122,10.6831008 94.9409233,10.4483721 C97.615801,10.2322481 100.207302,10.6449612 102.484202,12.2043411 C104.879194,13.8443411 105.898313,16.2545736 105.922489,19.0527132 C105.97952,25.6905426 105.940777,32.3293023 105.940777,39.0328682 L100.993338,39.0328682 L100.993338,36.5544186 C100.931347,36.5268217 100.869357,36.4989147 100.807367,36.4713178 C100.47076,36.804031 100.09417,37.1057364 99.8043654,37.4753488 C98.8196509,38.7308527 97.5026688,39.3547287 95.9600424,39.5218605 C92.1411354,39.935814 88.7970734,39.0037209 86.462832,35.7631008 C83.2080359,31.2449612 84.9223752,24.7110078 89.9590799,22.3255814 C93.2048874,20.7882171 96.4739413,20.7032558 99.6735661,22.5196899 C100.073093,22.7463566 100.429537,23.0496124 100.982179,23.4427907" id="Fill-6"></path>
                <path d="M166.623088,24.1322481 C166.567607,28.3942636 169.009401,32.3381395 172.866432,34.2246512 C177.500201,36.4910078 183.031277,34.1427907 184.602729,29.2420155 C186.159613,24.3868217 184.310445,19.2286822 180.020413,16.4609302 C176.930201,14.4671318 173.207998,14.4336434 170.343431,16.4463566 C167.697069,18.3058915 166.671131,20.9911628 166.623088,24.1322481 M176.062338,39.8048062 C171.518145,39.5449612 167.757509,37.8141085 164.866595,34.3462016 C160.979499,29.683876 160.712321,22.7790698 164.403529,17.8941085 C166.120038,15.6221705 168.216237,13.6255814 170.243936,11.6085271 C170.743268,11.112093 171.626938,10.9291473 172.369581,10.7632558 C178.365894,9.42651163 184.274801,11.7896124 187.712158,16.8578295 C190.766106,21.3604651 190.700706,27.8996899 187.340837,32.1893023 C185.629287,34.3744186 183.600038,36.3142636 181.665943,38.3176744 C181.333675,38.6618605 180.776693,38.8581395 180.28852,38.9697674 C178.889401,39.2900775 177.472305,39.531938 176.062338,39.8048062" id="Fill-8"></path>
                <path d="M58.994969,39.0603411 L54.0825546,39.0603411 L54.0825546,10.9725891 C55.6109233,10.9725891 57.1213148,10.9573953 58.6298467,11.0004961 C58.7572365,11.003907 58.9711028,11.396155 58.9782316,11.6135194 C59.0144959,12.6950698 58.9946591,13.7784806 58.9946591,15.0662326 C59.5804666,14.4922791 60.0512822,14.0470078 60.5031909,13.5837519 C61.1522284,12.9189457 61.7442349,12.1908837 62.4447243,11.5877829 C62.8541697,11.2349147 63.4024731,10.9697984 63.9309396,10.8408062 C67.66554,9.92855814 71.180075,10.3111938 74.1683132,12.9418915 C76.4972855,14.992124 77.4959478,17.7552248 77.5542186,20.752124 C77.6713801,26.7682481 77.595752,32.7877829 77.5969918,38.8060775 C77.5973018,38.8773953 77.5635171,38.9490233 77.5368613,39.056 L72.643354,39.056 L72.643354,38.1378605 C72.643354,33.2045271 72.6374649,28.2708837 72.6464535,23.3375504 C72.649553,21.5332093 72.3826852,19.7977054 71.5625546,18.1648372 C69.337416,13.736 62.5082643,14.0615814 60.249031,18.0653023 C59.4822121,19.4246822 59.0312333,20.8684031 59.020385,22.407938 C58.9831909,27.6510388 58.9993083,32.8944496 58.994969,38.1378605 C58.9946591,38.4184806 58.994969,38.6994109 58.994969,39.0603411" id="Fill-11"></path>
                <path d="M39.6138842,25.0683721 C39.6145041,20.6779845 39.627522,16.2875969 39.6008662,11.8975194 C39.5968369,11.2097674 39.7536721,10.9260465 40.4984845,10.9716279 C41.553248,11.035814 42.61731,11.0348837 43.6717635,10.971938 C44.4168858,10.9272868 44.574031,11.2141085 44.5715514,11.9015504 C44.548925,18.3576744 44.5572936,24.8141085 44.5569837,31.2702326 C44.5566737,33.6206202 44.5411762,35.9706977 44.5700016,38.3204651 C44.5771305,38.9176744 44.4196754,39.1390698 43.788925,39.1102326 C42.6554339,39.0587597 41.5163638,39.0587597 40.3825628,39.1102326 C39.7487129,39.1390698 39.5999364,38.9093023 39.6027259,38.3167442 C39.6222529,33.9006202 39.6132643,29.4844961 39.6138842,25.0683721" id="Fill-13"></path>
                <polygon id="Fill-15" points="38.9295432 7.62263566 45.3039967 7.62263566 45.3039967 1.63596899 38.9295432 1.63596899"></polygon>
            </g>
        </g>
    </g>
</svg>