<?xml version="1.0" encoding="UTF-8"?>
<svg width="143px" height="70px" viewBox="0 0 143 70" version="1.1" xmlns="http://www.w3.org/2000/svg" xmlns:xlink="http://www.w3.org/1999/xlink">
    <!-- Generator: Sketch 41.2 (35397) - http://www.bohemiancoding.com/sketch -->
    <title>f37</title>
    <desc>Created with Sketch.</desc>
    <defs>
        <polygon id="path-1" points="42.8533463 65.4790303 42.8533463 0.0564834375 0.179029756 0.0564834375 0.179029756 65.4790303 42.8533463 65.4790303"></polygon>
    </defs>
    <g id="Page-1" stroke="none" stroke-width="1" fill="none" fill-rule="evenodd">
        <g id="Desktop-HD" transform="translate(-650.000000, -1220.000000)">
            <g id="f37" transform="translate(650.000000, 1220.000000)">
                <g id="Group-3" transform="translate(48.204878, 1.008591)" fill="#3A3A3A">
                    <path d="M18.9078695,35.6492981 L18.9078695,28.7911575 C19.1259768,28.7911575 19.3174134,28.7915512 19.50885,28.7911575 C21.7294354,28.7876137 23.9529841,28.8521887 26.1561841,28.4775356 C28.4557939,28.086345 30.6248159,27.3921637 32.4380305,25.8453169 C34.1739988,24.3644231 35.0665793,22.4366231 35.4089524,20.2330012 C35.6596573,18.61902 35.6709183,17.0001169 35.2890329,15.398145 C34.6961524,12.9100387 33.2215573,11.0470106 31.1301768,9.633645 C28.8732402,8.10845437 26.3636232,7.5160575 23.6550622,7.58496375 C21.4372427,7.64127 19.2672329,7.89327 17.1724939,8.67309187 C14.2934378,9.74487937 12.4104841,11.7994669 11.2346012,14.5624106 C10.3175232,16.7172075 9.96882805,18.9944606 9.83073293,21.351645 L0.853562195,21.351645 C0.853562195,20.8998169 0.835189024,20.431845 0.85652561,19.9658419 C1.00015244,16.8103294 1.58631585,13.756995 2.98445488,10.89207 C4.77751829,7.21798875 7.56253537,4.527495 11.1972622,2.69143875 C14.3777963,1.08493875 17.789872,0.39312 21.3254232,0.225579375 C24.9751646,0.05252625 28.5930988,0.266529375 32.1377378,1.21527 C35.8305476,2.20377937 39.0737085,3.93726375 41.5017329,6.97209187 C43.439411,9.394245 44.3930378,12.204045 44.7024183,15.24852 C44.9493695,17.6793356 44.8624427,20.0934169 44.1741402,22.4608387 C43.0857768,26.2036294 40.6589378,28.798245 37.218611,30.5242481 C36.7656037,30.7516387 36.3039037,30.9619012 35.7477695,31.226895 C36.253328,31.3836075 36.6686012,31.5019294 37.0767622,31.6403325 C39.5577329,32.4811856 41.7893817,33.7203169 43.5877793,35.6634731 C45.2463037,37.4554294 46.3103671,39.56022 46.8190866,41.9254762 C47.8373159,46.6581544 47.5684354,51.3240919 45.7650988,55.8341044 C44.0832622,60.0401419 41.0084232,63.0048825 37.0360646,65.0958919 C33.7869768,66.8059481 30.2978524,67.6619606 26.6554207,67.968495 C22.9602402,68.2797544 19.2935085,68.1368231 15.6779451,67.2621075 C11.6320939,66.2834419 8.10088902,64.3989544 5.27873049,61.2973856 C2.91985244,58.7051325 1.46501341,55.6474669 0.784415854,52.2442856 C0.451723171,50.5802981 0.35235,48.8698481 0.15380122,47.1796762 C0.131279268,46.9865419 0.150837805,46.7884856 0.150837805,46.5514481 L9.14025732,46.5514481 C9.2740061,47.4590419 9.37772561,48.3701794 9.54604756,49.2693075 C10.1592768,52.54452 11.4920232,55.4525606 14.0419427,57.6983137 C15.6579915,59.1213262 17.5676159,59.9781262 19.6783573,60.3608512 C23.2783134,61.0136887 26.8423134,60.8670169 30.2425354,59.4510919 C34.4002061,57.71997 37.0143329,54.6904575 37.6139305,50.1280762 C37.9432646,47.62107 37.7964768,45.1459575 36.8874988,42.7686919 C35.6760549,39.6005794 33.4124012,37.5560325 30.121628,36.6313106 C27.9217866,36.0131231 25.6796671,35.71407 23.4041598,35.6563856 C21.9260085,35.6187825 20.4460793,35.6492981 18.9078695,35.6492981" id="Fill-1"></path>
                </g>
                <polygon id="Fill-4" fill="#3A3A3A" points="0 3.93749999e-05 43.0945683 3.93749999e-05 43.0945683 8.56233 9.33258293 8.56233 9.33258293 29.8773956 39.1237902 29.8773956 39.1237902 38.4194081 9.30927073 38.4194081 9.30927073 67.8526144 0 67.8526144"></polygon>
                <g id="Group-8" transform="translate(100.163415, 2.386716)">
                    <mask id="mask-2" fill="white">
                        <use xlink:href="#path-1"></use>
                    </mask>
                    <g id="Clip-7"></g>
                    <path d="M18.3522688,65.4790303 L9.44088585,65.4790303 C9.44088585,65.1819459 9.42982244,64.8943116 9.44246634,64.6074647 C9.77575171,57.1260178 11.1999688,49.8442022 13.5629956,42.7468584 C15.550459,36.7772147 18.1558932,31.0741397 21.229942,25.5817209 C24.6222615,19.5207272 28.5786176,13.8499397 33.0650298,8.54415844 C33.1900859,8.39630531 33.3078322,8.24254594 33.4848468,8.02204594 L0.179029756,8.02204594 L0.179029756,0.0564834375 L42.8275054,0.0564834375 C42.8360005,0.213195937 42.8504224,0.355339687 42.85062,0.497680312 C42.8520029,2.76174281 42.8603005,5.02580531 42.839359,7.28967094 C42.8369883,7.53733969 42.7279346,7.84013344 42.5627737,8.02204594 C37.3048859,13.8164709 32.8660859,20.1841959 29.1754493,27.0677334 C25.1143859,34.6419084 21.8882151,42.5381709 20.0704566,50.9644209 C19.0860102,55.5275897 18.4893761,60.1362366 18.419242,64.8074897 C18.417859,64.9055334 18.4127224,65.0039709 18.4028444,65.1016209 C18.3915834,65.2144303 18.3732102,65.3266491 18.3522688,65.4790303" id="Fill-6" fill="#3A3A3A" mask="url(#mask-2)"></path>
                </g>
            </g>
        </g>
    </g>
</svg>