<?xml version="1.0" encoding="UTF-8"?>
<svg width="265px" height="62px" viewBox="0 0 265 62" version="1.1" xmlns="http://www.w3.org/2000/svg" xmlns:xlink="http://www.w3.org/1999/xlink">
    <!-- Generator: Sketch 41.2 (35397) - http://www.bohemiancoding.com/sketch -->
    <title>gt</title>
    <desc>Created with Sketch.</desc>
    <defs></defs>
    <g id="Page-1" stroke="none" stroke-width="1" fill="none" fill-rule="evenodd">
        <g id="Desktop-HD" transform="translate(-158.000000, -212.000000)" fill="#3A3A3A">
            <path d="M197.108,255.056 L197.108,239.056 L200.884,238.544 L200.884,237.84 L185.204,237.84 L185.204,238.544 L190.26,239.056 L190.26,254.288 C188.66,256.272 185.524,258.128 181.428,258.128 C171.316,258.128 166.452,247.568 166.452,235.856 C166.452,222.48 172.404,213.072 182.068,213.072 C186.74,213.072 189.684,214.992 191.796,217.168 L195.828,226.128 L196.468,226.128 L196.468,215.568 C193.524,213.84 188.532,212.176 182.132,212.176 C167.604,213.328 158.644,222.352 158.644,236.368 C158.644,250.96 168.628,259.024 180.596,259.024 C187.316,258.832 192.82,257.04 197.108,255.056 Z M218.404,258 L218.404,257.36 L212.58,256.912 L212.58,238.416 L215.716,234.064 L223.076,234.064 L223.076,227.536 L218.852,227.536 L212.58,237.52 L212.324,227.536 L211.684,227.536 L202.276,229.968 L202.404,230.544 L206.5,229.648 L206.5,256.976 L202.532,257.36 L202.532,258 L218.404,258 Z M227.924,216.336 L228.244,219.856 L229.844,220.176 L234.324,219.856 L234.9,216.848 L234.58,213.584 L232.852,213.264 L228.5,213.584 L227.924,216.336 Z M238.292,258 L238.292,257.36 L234.26,256.976 L234.26,227.536 L233.62,227.536 L223.956,229.968 L224.084,230.608 L228.18,229.648 L228.18,256.976 L224.212,257.36 L224.212,258 L238.292,258 Z M253.636,258 L253.636,257.36 L249.668,256.976 L249.668,212.304 L249.028,212.304 L239.492,214.416 L239.62,215.056 L243.588,214.352 L243.588,256.976 L239.556,257.36 L239.556,258 L253.636,258 Z M268.66,258 L268.66,257.36 L264.692,256.976 L264.692,212.304 L264.052,212.304 L254.516,214.416 L254.644,215.056 L258.612,214.352 L258.612,256.976 L254.58,257.36 L254.58,258 L268.66,258 Z M273.508,216.336 L273.828,219.856 L275.428,220.176 L279.908,219.856 L280.484,216.848 L280.164,213.584 L278.436,213.264 L274.084,213.584 L273.508,216.336 Z M283.876,258 L283.876,257.36 L279.844,256.976 L279.844,227.536 L279.204,227.536 L269.54,229.968 L269.668,230.608 L273.764,229.648 L273.764,256.976 L269.796,257.36 L269.796,258 L283.876,258 Z M323.908,257.36 L318.212,256.976 L318.212,214.096 L327.236,214.096 L331.844,225.808 L332.484,225.808 L332.484,213.2 L297.092,213.2 L297.092,225.808 L297.732,225.808 L302.34,214.096 L311.364,214.096 L311.364,256.976 L305.668,257.36 L305.668,258 L323.908,258 L323.908,257.36 Z M336.756,267.024 L336.756,273.04 L343.732,273.04 L351.668,255.568 L361.012,229.2 L364.724,228.816 L364.724,228.176 L355.444,228.176 L355.444,228.816 L359.796,229.2 L350.9,254.352 L341.748,229.2 L345.396,228.816 L345.396,228.176 L331.444,228.176 L331.444,228.816 L334.772,229.2 L345.204,257.616 L350.58,255.184 L343.86,267.024 L336.756,267.024 Z M388.324,243.856 C388.324,252.24 384.932,257.552 379.748,257.616 C377.316,257.68 375.332,256.464 374.308,254.8 L374.308,234.32 L375.46,233.616 C377.7,232.208 378.724,231.312 380.964,231.312 C385.764,231.312 388.324,236.88 388.324,243.856 Z M380.388,272.08 L374.308,271.696 L374.308,257.04 C376.1,258.448 378.404,258.96 380.708,258.96 C390.82,256.528 394.916,249.808 394.916,241.104 C394.916,233.232 390.116,227.216 383.46,227.216 L374.244,233.552 L374.116,227.536 L373.476,227.536 L364.004,229.968 L364.132,230.544 L368.228,229.648 L368.228,271.696 L364.132,272.08 L364.132,272.72 L380.388,272.72 L380.388,272.08 Z M411.668,258.96 C416.084,256.976 418.772,255.184 422.612,251.792 L422.228,251.344 C419.796,252.88 417.172,254.096 414.292,254.096 C407.828,254.096 402.708,249.36 402.708,240.592 L402.708,240.528 L422.356,240.528 L422.356,238.736 C422.356,231.696 418.708,227.216 411.348,227.216 C403.604,228.88 397.14,234.32 397.14,244.304 C397.14,253.84 404.052,258.96 411.668,258.96 Z M409.684,228.816 C414.612,228.816 415.7,232.976 415.7,238.736 L415.7,239.888 L402.708,239.888 C402.836,233.232 404.948,228.816 409.684,228.816 Z" id="gt"></path>
        </g>
    </g>
</svg>