<?xml version="1.0" encoding="UTF-8"?>
<svg width="293px" height="20px" viewBox="0 0 293 20" version="1.1" xmlns="http://www.w3.org/2000/svg" xmlns:xlink="http://www.w3.org/1999/xlink">
    <!-- Generator: Sketch 41.2 (35397) - http://www.bohemiancoding.com/sketch -->
    <title>heavyweight</title>
    <desc>Created with Sketch.</desc>
    <defs></defs>
    <g id="Page-1" stroke="none" stroke-width="1" fill="none" fill-rule="evenodd">
        <g id="Desktop-HD" transform="translate(-150.000000, -1543.000000)" fill="#3A3A3A">
            <path d="M170.476786,1562 L175.226786,1562 L175.226786,1543.95 L170.476786,1543.95 L170.476786,1551.1 L155.476786,1551.1 L155.476786,1543.95 L150.726786,1543.95 L150.726786,1562 L155.476786,1562 L155.476786,1554.85 L170.476786,1554.85 L170.476786,1562 Z M180.119643,1562 L202.219643,1562 L202.219643,1558.325 L184.869643,1558.325 L184.869643,1554.75 L201.119643,1554.75 L201.119643,1551.175 L184.869643,1551.175 L184.869643,1547.625 L202.219643,1547.625 L202.219643,1543.95 L180.119643,1543.95 L180.119643,1562 Z M222.3125,1554.7 L213.9625,1554.7 L218.2625,1547.775 L222.3125,1554.7 Z M226.5875,1562 L231.6875,1562 L220.7625,1543.95 L215.8625,1543.95 L204.3625,1562 L209.4625,1562 L211.7125,1558.375 L224.4625,1558.375 L226.5875,1562 Z M248.905357,1562 L259.780357,1544.05 L259.705357,1543.95 L254.730357,1543.95 L246.405357,1557.975 L237.655357,1543.95 L232.655357,1543.95 L232.580357,1544.05 L244.005357,1562 L248.905357,1562 Z M271.273214,1555.8 L271.273214,1562 L276.023214,1562 L276.023214,1555.8 L286.623214,1544.05 L286.548214,1543.95 L281.148214,1543.95 L273.648214,1552.425 L266.173214,1543.95 L260.748214,1543.95 L260.673214,1544.05 L271.273214,1555.8 Z M295.016071,1562 L299.641071,1562 L304.641071,1549.25 L309.641071,1562 L314.266071,1562 L321.766071,1544.05 L321.691071,1543.95 L316.841071,1543.95 L311.866071,1556.6 L306.916071,1543.95 L302.391071,1543.95 L297.441071,1556.625 L292.491071,1543.95 L287.591071,1543.95 L287.516071,1544.05 L295.016071,1562 Z M324.658929,1562 L346.758929,1562 L346.758929,1558.325 L329.408929,1558.325 L329.408929,1554.75 L345.658929,1554.75 L345.658929,1551.175 L329.408929,1551.175 L329.408929,1547.625 L346.758929,1547.625 L346.758929,1543.95 L324.658929,1543.95 L324.658929,1562 Z M355.651786,1562 L355.651786,1543.95 L350.901786,1543.95 L350.901786,1562 L355.651786,1562 Z M384.094643,1559.85 L384.094643,1551.35 L368.569643,1551.35 L368.569643,1554.45 L379.344643,1554.45 L379.344643,1557.725 C377.569643,1558.25 375.719643,1558.55 373.819643,1558.55 C367.519643,1558.55 364.294643,1556.425 364.294643,1552.9 C364.294643,1549.325 367.594643,1547.2 373.819643,1547.2 C377.419643,1547.2 380.819643,1548.25 383.969643,1549.975 L384.119643,1549.95 L384.119643,1545.9 C380.869643,1544.225 377.469643,1543.45 373.369643,1543.45 C364.744643,1543.45 359.544643,1546.925 359.544643,1552.875 C359.544643,1558.825 364.769643,1562.3 373.644643,1562.3 C377.394643,1562.3 380.544643,1561.675 384.094643,1559.85 Z M408.7625,1562 L413.5125,1562 L413.5125,1543.95 L408.7625,1543.95 L408.7625,1551.1 L393.7625,1551.1 L393.7625,1543.95 L389.0125,1543.95 L389.0125,1562 L393.7625,1562 L393.7625,1554.85 L408.7625,1554.85 L408.7625,1562 Z M442.880357,1547.625 L442.880357,1543.95 L416.905357,1543.95 L416.905357,1547.625 L427.505357,1547.625 L427.505357,1562 L432.255357,1562 L432.255357,1547.625 L442.880357,1547.625 Z" id="heavyweight"></path>
        </g>
    </g>
</svg>