<?xml version="1.0" encoding="UTF-8"?>
<svg width="267px" height="93px" viewBox="0 0 267 93" version="1.1" xmlns="http://www.w3.org/2000/svg" xmlns:xlink="http://www.w3.org/1999/xlink">
    <!-- Generator: Sketch 41.2 (35397) - http://www.bohemiancoding.com/sketch -->
    <title>indian</title>
    <desc>Created with Sketch.</desc>
    <defs>
        <polygon id="path-1" points="29.5630183 0.0114785894 0.000749522185 0.0114785894 0.000749522185 35.0778431 29.5630183 35.0778431 29.5630183 0.0114785894"></polygon>
    </defs>
    <g id="Page-1" stroke="none" stroke-width="1" fill="none" fill-rule="evenodd">
        <g id="Desktop-HD" transform="translate(-1018.000000, -1212.000000)">
            <g id="indian" transform="translate(1018.000000, 1212.000000)">
                <path d="M173.668099,70.6406214 C173.668099,68.5344174 173.668333,66.4282134 173.668099,64.3220093 C173.66763,62.4481882 173.687321,62.4018053 171.936232,61.6472637 C168.793884,60.2930244 165.099016,60.9051378 163.24244,64.3484804 C161.294911,67.9602537 161.11277,71.7676315 162.575995,75.5811 C163.345349,77.5863393 164.798729,79.0469312 166.918555,79.7133922 C169.137069,80.4107751 171.185397,79.9043116 173.158947,78.8243872 C173.534247,78.6189438 173.67982,78.3835156 173.676303,77.9538884 C173.65755,75.5162108 173.667396,73.078299 173.668099,70.6406214 M182.268593,82.210571 C179.613127,82.210571 176.957661,82.2065887 174.302429,82.2154904 C173.937912,82.2166617 173.887512,82.0212914 173.890325,81.7329212 C173.89642,81.1189338 173.892201,80.5047121 173.892201,79.740566 C173.553235,79.9490547 173.34226,80.0643091 173.146523,80.2013494 C171.4674,81.3770849 169.685134,82.3380068 167.616646,82.5792914 C162.585137,83.1663393 158.06325,80.6412839 156.690274,75.361367 C155.754016,71.7606038 155.942018,68.1851403 157.668493,64.8275358 C159.2215,61.8074955 161.809923,60.0845358 165.098313,59.3871529 C167.997806,58.7719942 170.760401,59.144697 173.354684,60.6165332 C173.401802,60.6432385 173.465798,60.640896 173.608323,60.6694753 C173.62942,60.4766819 173.66552,60.2984123 173.66552,60.1201428 C173.668802,57.055828 173.677476,53.9915131 173.650752,50.9271982 C173.648173,50.6414048 173.48291,50.2869741 173.275452,50.0852788 C172.423583,49.2567121 171.528817,48.4719514 170.642958,47.6787574 C170.517546,47.5665484 170.354392,47.4967398 170.208585,47.4072537 C170.249139,47.3320572 170.289928,47.2568607 170.330482,47.1816642 C170.541222,47.1561302 170.751962,47.1085761 170.962936,47.1081076 C173.384924,47.1029539 175.806912,47.1041252 178.228665,47.1050622 C179.009271,47.1052965 179.011615,47.1071705 179.011615,47.8827952 C179.012084,56.6465811 179.011615,65.410367 179.011615,74.1741529 C179.011615,75.7940395 179.023805,77.4141605 179.003176,79.0340471 C178.998253,79.4107322 179.117102,79.6358531 179.427938,79.8476214 C180.265976,80.4185055 181.072836,81.034367 181.901497,81.6190723 C182.083873,81.7479136 182.305162,81.8217045 182.508401,81.9207952 C182.428465,82.0175433 182.348529,82.1140572 182.268593,82.210571" id="Fill-1" fill="#3A3A3A"></path>
                <path d="M64.9537862,23.7614531 L64.9537862,17.5004683 C64.9537862,15.5903373 64.9734772,15.5439544 63.1813657,14.7835564 C60.0249522,13.4443096 56.4201005,14.0992919 54.477025,17.5114783 C53.6931374,18.887972 53.2894728,20.3757378 53.0766229,21.9340149 C52.7648494,24.2159116 52.8933095,26.4577504 53.7822155,28.5951106 C54.7416809,30.9020728 56.3579802,32.5086068 58.8967072,33.0387302 C60.7289039,33.4212718 62.4016975,32.9635338 64.0451892,32.1874406 C64.7324974,31.863229 64.9957467,31.4507025 64.9751181,30.6654733 C64.9148731,28.3655388 64.9537862,26.0630275 64.9537862,23.7614531 M73.5301356,35.3585766 L72.6700628,35.3585766 C70.365752,35.3585766 68.0612068,35.3466295 65.7571304,35.3686496 C65.2932208,35.3728662 65.1258477,35.2365287 65.151399,34.771763 C65.1830452,34.197365 65.1589004,33.6196874 65.1589004,32.8913826 C64.820169,33.0989343 64.6094289,33.2127831 64.4148635,33.3498234 C62.6879197,34.5651484 60.8461119,35.5361433 58.7117529,35.7523625 C53.9420874,36.2356345 49.5624903,33.8827579 48.0985615,28.9563348 C46.9778178,25.1847982 47.1559741,21.4580048 48.9644947,17.932438 C50.5022647,14.9341836 53.0925632,13.230433 56.3579802,12.537501 C59.2553639,11.9228108 62.018896,12.2854406 64.6120075,13.7621962 C64.6727212,13.796632 64.755939,13.7919469 64.9031523,13.8191207 C64.9216712,13.5839267 64.9514421,13.3798889 64.9516765,13.1760854 C64.9544895,10.1902466 64.9465193,7.20440781 64.9612875,4.21880327 C64.9633973,3.77301234 64.83986,3.44950353 64.4957371,3.15293426 C63.6105817,2.38902242 62.7526185,1.59325164 61.8911392,0.802634509 C61.7654921,0.687380101 61.679227,0.529490932 61.5034148,0.297342317 C61.831363,0.276727708 62.0179583,0.255176071 62.2045536,0.254941814 C64.645529,0.252599244 67.0869732,0.271339798 69.5274798,0.240417884 C70.1219592,0.232921662 70.2869881,0.408614358 70.2860505,1.00105013 C70.2691725,11.3437277 70.2776115,21.6866395 70.2619056,32.0293171 C70.2612024,32.5158688 70.4011488,32.8117353 70.8022349,33.0787882 C71.6130803,33.6187504 72.391342,34.2079065 73.1773393,34.7848814 C73.3362735,34.9015413 73.4691874,35.0538083 73.614291,35.1896773 C73.5861611,35.245899 73.5582656,35.3021207 73.5301356,35.3585766" id="Fill-3" fill="#3A3A3A"></path>
                <path d="M223.043244,24.360167 L223.045119,24.360167 C223.045119,26.8777262 223.037149,29.3952854 223.057543,31.9126103 C223.059653,32.1702929 223.158577,32.5699353 223.336733,32.6605927 C224.690252,33.3493081 226.136834,33.7817463 227.665227,33.6939 C230.520885,33.5296859 232.482245,31.970706 233.647762,29.4608773 C235.206629,26.1044441 235.243901,22.611439 234.037127,19.1563836 C233.197917,16.7543131 231.419636,15.3492401 228.831916,15.0479856 C227.007221,14.8355146 225.320362,15.3232375 223.645928,15.9594793 C223.180612,16.1361091 223.031523,16.3888723 223.035039,16.8660537 C223.05262,19.3639353 223.043244,21.8620511 223.043244,24.360167 M214.296708,12.5166053 C214.655131,12.488963 214.823207,12.4650688 214.991283,12.4648345 C217.432962,12.4627262 219.874641,12.4763131 222.316085,12.4540587 C222.819611,12.4493736 223.026835,12.5805574 222.990969,13.1092753 C222.951118,13.7014768 222.981827,14.2983635 222.981827,15.008162 C223.814473,14.5237186 224.517956,14.0812073 225.250506,13.6937463 C228.887004,11.7700285 232.534051,11.6589907 236.102099,13.818371 C238.257555,15.1224793 239.408539,17.1881569 239.974185,19.5871821 C240.578275,22.1487816 240.446534,24.7162375 239.712108,27.2188043 C238.809137,30.2953005 236.865592,32.5460411 233.942892,33.9194894 C231.821191,34.9164869 229.566577,35.308633 227.242809,35.3545474 C226.051741,35.3782073 224.859266,35.3805499 223.668666,35.3482224 C223.168891,35.3348698 223.033867,35.5168874 223.037383,35.9898521 C223.05473,38.292832 223.05473,40.5962804 223.03668,42.8994945 C223.033164,43.3478622 223.19327,43.6174919 223.576541,43.8374592 C224.608206,44.4289579 225.622525,45.0509101 226.640829,45.665366 C226.764835,45.740094 226.871494,45.8434013 226.95143,46.0645398 L214.294599,46.0645398 C214.584102,45.8045146 214.734832,45.6412375 214.911816,45.5152073 C215.721958,44.9384668 216.529288,44.3565725 217.359824,43.8100511 C217.682146,43.5980486 217.774741,43.3473937 217.772865,42.983827 C217.761848,40.6806128 217.767474,38.3771645 217.767474,36.0739504 C217.767474,29.6323534 217.760676,23.1909907 217.779429,16.7493937 C217.78107,16.1930335 217.627762,15.7947967 217.218471,15.423968 C216.394498,14.6778597 215.605922,13.8926305 214.808204,13.1179428 C214.662397,12.9762174 214.542611,12.8075524 214.296708,12.5166053" id="Fill-5" fill="#3A3A3A"></path>
                <path d="M37.0893943,47.1286987 L63.6909395,47.1286987 L63.6909395,55.8704645 C63.4806682,55.6823562 63.3198587,55.5706156 63.1991344,55.4256106 C61.5378271,53.4330212 59.8744101,51.4423058 58.2325594,49.4337869 C57.9596989,49.0999708 57.6868385,48.9629305 57.2487147,48.965273 C53.6748061,48.9842479 50.1006629,48.9842479 46.5265198,48.965273 C46.0696428,48.9629305 45.9184443,49.0711572 45.9200853,49.5464645 C45.9360255,54.1329809 45.9364944,58.7194972 45.9196164,63.3060136 C45.9177411,63.8113058 46.1029299,63.9305426 46.5696524,63.9282 C49.6555067,63.9129733 52.7413609,63.9115678 55.8272152,63.9298398 C56.2859676,63.9326509 56.5923495,63.7707793 56.8781028,63.4350892 C57.7881063,62.3664091 58.7168631,61.3138927 59.6428069,60.2587995 C59.762828,60.1222277 59.9088693,60.0086131 60.1575848,59.77787 L60.1575848,70.3700312 C59.9639571,70.2037088 59.8432327,70.1294494 59.7604838,70.0249708 C58.7792178,68.7869229 57.7934979,67.5521547 56.8335637,66.2972403 C56.5848482,65.9720917 56.3258183,65.8247441 55.9069167,65.8268524 C52.7821493,65.8427819 49.6571476,65.8441874 46.5323802,65.8261496 C46.0733934,65.8235728 45.9196164,65.9535854 45.9212573,66.4197567 C45.9355567,70.5768801 45.9341502,74.7342378 45.9228982,78.8913612 C45.9217262,79.2938146 46.0602661,79.5264317 46.4095462,79.7288297 C47.4890326,80.3542957 48.5483592,81.014666 49.6109676,81.6687113 C49.7769342,81.7708474 49.918756,81.9121043 50.0172108,82.157137 L36.9344452,82.157137 C37.1407314,81.9320161 37.2520791,81.7682705 37.4016366,81.6541874 C38.2387367,81.0149003 39.1049044,80.4119229 39.915281,79.7412453 C40.1466498,79.5498574 40.3543425,79.1748121 40.3550457,78.8833965 C40.3777841,69.4175426 40.3712205,59.9516887 40.3824724,50.4858348 C40.3829413,50.063001 40.2333838,49.8078952 39.9023881,49.5668448 C39.0514575,48.947001 38.2293601,48.2873335 37.3875716,47.654137 C37.2366076,47.5405224 37.0474338,47.4782101 36.8758412,47.3922378 C36.9468693,47.3043914 37.0181318,47.2165451 37.0893943,47.1286987" id="Fill-7" fill="#3A3A3A"></path>
                <g id="Group-11" transform="translate(160.106234, 0.222778)">
                    <mask id="mask-2" fill="white">
                        <use xlink:href="#path-1"></use>
                    </mask>
                    <g id="Clip-10"></g>
                    <path d="M0.0701841967,8.73120076 C0.0495555751,8.54590353 0.0111113257,8.3606063 0.0106424934,8.17530907 C0.00665741879,5.65774987 0.0153308165,3.14019068 0.000797014925,0.622631486 C-0.00178156277,0.185273804 0.099486216,0.010518136 0.58754065,0.0114551637 C10.0982729,0.0257448363 19.6087707,0.0219967254 29.1192685,0.0229337531 C29.2531201,0.0229337531 29.3869717,0.0346465995 29.5630183,0.0428455919 L29.5630183,8.88627884 C29.3450112,8.67263652 29.2041271,8.55949043 29.0934827,8.42198161 C27.4563203,6.38628892 25.8154072,4.3534073 24.1972325,2.30272217 C23.9393747,1.97593375 23.6737812,1.84217305 23.2626153,1.84662393 C21.5832579,1.86489597 19.9034318,1.87122091 18.2243089,1.84381285 C17.7153914,1.83561385 17.5475494,1.98530403 17.5515345,2.50488589 C17.5731008,5.3541529 17.5618488,8.2034199 17.5618488,11.0526869 C17.5618488,17.8831504 17.5693501,24.7136139 17.5480183,31.5440773 C17.5463773,32.1208179 17.7257057,32.4886013 18.1856302,32.808362 C18.985927,33.3647222 19.7576249,33.9623116 20.5358866,34.5495937 C20.6964616,34.6707045 20.8342983,34.8220345 21.1099717,35.0778431 L8.71662406,35.0778431 C8.64676804,34.9953846 8.57691203,34.9126919 8.50705601,34.8299992 C8.68357138,34.755037 8.88235628,34.710294 9.03285145,34.6001932 C9.88354767,33.9780068 10.710099,33.3220874 11.5718128,32.7158305 C11.9316416,32.462833 12.061977,32.1864098 12.0610393,31.7474123 C12.0474432,25.2877776 12.0516627,18.8279086 12.0516627,12.3682738 C12.0516627,9.07017053 12.0429893,5.77206725 12.0615082,2.47396398 C12.0643212,1.99444005 11.9351579,1.83561385 11.441243,1.84357859 C9.72320702,1.87145516 8.00399895,1.83655088 6.28619737,1.87192368 C6.00466356,1.8777801 5.63897436,2.0452738 5.46339666,2.26079018 C3.88601036,4.19575239 2.34331765,6.15882544 0.787732046,8.11135693 C0.608403687,8.33671209 0.413135031,8.54918312 0.225367691,8.76774484 C0.173561721,8.75556348 0.121990167,8.74338212 0.0701841967,8.73120076" id="Fill-9" fill="#3A3A3A" mask="url(#mask-2)"></path>
                </g>
                <path d="M129.053524,35.3041821 L117.113537,35.3041821 C117.093612,35.2634214 117.073921,35.2226607 117.05423,35.1816657 C117.204256,35.0532929 117.344203,34.9106305 117.50595,34.7988899 C118.356177,34.2111393 119.227971,33.6526708 120.054991,33.0339982 C120.263153,32.8782174 120.449982,32.5397161 120.45092,32.2841418 C120.473658,27.0543559 120.473424,21.82457 120.452092,16.5947841 C120.451154,16.3267942 120.283312,15.9967262 120.086872,15.80323 C119.240395,14.9678698 118.351958,14.1753786 117.485087,13.3603987 C117.324043,13.2088345 117.192535,13.0261141 116.956713,12.7522678 C117.263564,12.7236884 117.427655,12.6953433 117.591746,12.6951091 C120.091326,12.692298 122.59114,12.7040108 125.090485,12.6838647 C125.567053,12.6801166 125.750835,12.8054441 125.726456,13.3048798 C125.688715,14.0814416 125.71661,14.8612829 125.71661,15.7664516 C126.185911,15.5272753 126.575511,15.3342476 126.959953,15.1316154 C129.08728,14.0092904 131.262427,13.0017514 133.657457,12.6009378 C135.110369,12.3577791 136.579689,12.3493458 138.019004,12.6979202 C140.127578,13.2088345 141.307629,14.6577136 141.738485,16.7030108 C141.973839,17.8208849 142.105347,18.9795196 142.118005,20.1215222 C142.162779,24.1214592 142.140744,28.1223332 142.127851,32.1227388 C142.126444,32.5704038 142.222555,32.8765776 142.635596,33.1326204 C143.497075,33.6667262 144.31847,34.2652526 145.152288,34.8433987 C145.295985,34.9429579 145.419757,35.071565 145.489144,35.3058219 L133.506962,35.3058219 C133.486334,35.2636557 133.465705,35.2214894 133.445076,35.1793232 C133.581038,35.0680511 133.709732,34.9460033 133.854132,34.8469126 C134.72241,34.2507287 135.609675,33.6805474 136.453339,33.0518018 C136.661032,32.8969579 136.845283,32.5572854 136.84622,32.3019453 C136.863567,28.1846456 136.866614,24.0671116 136.826529,19.9500461 C136.819262,19.2203358 136.674393,18.4711821 136.467404,17.7681771 C136.030686,16.2848622 134.770934,15.4551242 133.035786,15.3267514 C130.712722,15.1552753 128.627824,15.9210612 126.555351,16.8290411 C125.904846,17.1138975 125.69059,17.4488849 125.696685,18.1664139 C125.735598,22.8300008 125.724815,27.4942904 125.704655,32.1581116 C125.702545,32.6509882 125.86312,32.9470889 126.265144,33.2021947 C127.055361,33.7037388 127.822839,34.2413584 128.595709,34.7700763 C128.780195,34.8961065 128.948974,35.045094 129.124787,35.1835398 C129.101111,35.223832 129.0772,35.2638899 129.053524,35.3041821" id="Fill-12" fill="#3A3A3A"></path>
                <path d="M152.751309,82.1684985 L140.640902,82.1684985 C140.82445,81.9707856 140.902042,81.8510804 141.010811,81.7763524 C141.89456,81.1677529 142.777137,80.5570451 143.675654,79.9704657 C144.00032,79.7584632 144.147299,79.5249091 144.145189,79.117302 C144.122685,75.0180401 144.140501,70.9185438 144.099009,66.8195161 C144.091508,66.070831 143.945701,65.3008285 143.728866,64.5811912 C143.284647,63.1086521 142.009424,62.2943751 140.269353,62.1744355 C137.945116,62.0146723 135.863735,62.7940451 133.789387,63.6964028 C133.142633,63.9777453 132.970102,64.3295992 132.974556,65.0040249 C133.005265,69.6889292 132.997763,74.374302 132.97901,79.0592063 C132.977369,79.5094481 133.124583,79.7802491 133.486052,80.0140375 C134.305102,80.544161 135.109384,81.0970073 135.913432,81.6498537 C136.088072,81.7700275 136.236223,81.9286194 136.515881,82.1743549 L124.261542,82.1743549 C124.47322,81.9522793 124.583396,81.7915791 124.732953,81.6873348 C125.597011,81.0843574 126.485917,80.5158159 127.329346,79.8861332 C127.537977,79.7305866 127.724806,79.3913826 127.725744,79.1355741 C127.748482,73.9039141 127.748248,68.6722542 127.726916,63.4405942 C127.725744,63.1730728 127.55462,62.8441761 127.357945,62.6502113 C126.510765,61.8150854 125.623031,61.0211887 124.754285,60.2076144 C124.603086,60.0661232 124.472986,59.9023776 124.237866,59.6439922 C124.514243,59.5969065 124.667551,59.5481811 124.820859,59.5477126 C127.360289,59.5432617 129.899954,59.5538033 132.43915,59.536234 C132.885478,59.5331887 133.013704,59.687564 132.998467,60.1148486 C132.970571,60.9087453 132.990496,61.7042819 132.990496,62.6160098 C133.455344,62.3808159 133.831113,62.1992668 134.199146,62.003428 C136.080101,61.0026824 138.007237,60.1141458 140.092368,59.621035 C141.806654,59.2155363 143.539927,59.1511156 145.257494,59.5449015 C147.397713,60.0354355 148.588782,61.5030552 149.016122,63.577166 C149.246554,64.6962113 149.379233,65.8541433 149.391892,66.9963801 C149.435962,70.9977227 149.413692,74.999768 149.402206,79.0015791 C149.401034,79.4279267 149.492222,79.7200451 149.88651,79.9657806 C150.747051,80.5019947 151.569149,81.1002869 152.40367,81.677496 C152.552759,81.780569 152.687079,81.9044909 152.827964,82.0188083 L152.751309,82.1684985 Z" id="Fill-14" fill="#3A3A3A"></path>
                <path d="M27.5705513,35.3336751 L15.5077304,35.3336751 C15.7592589,35.0834887 15.884906,34.9166977 16.0480596,34.8030831 C16.8961773,34.2120529 17.7696119,33.6556927 18.5973353,33.0379572 C18.8080754,32.8805365 19.0040473,32.5439093 19.004985,32.2888035 C19.0284266,27.0576121 19.0270201,21.8261864 19.007798,16.594995 C19.0068603,16.3403577 18.8570684,16.0245793 18.6723485,15.8430302 C17.8104003,14.9952544 16.9090701,14.1875365 16.0290719,13.3575642 C15.8713098,13.2088111 15.7487102,13.0230453 15.5241395,12.7503703 C15.8349753,12.722728 16.0004731,12.6955542 16.1662054,12.6953199 C18.6664881,12.6925088 21.1667708,12.7049244 23.6668191,12.6831385 C24.1424494,12.6789219 24.2786452,12.8419647 24.263877,13.290801 C24.2376224,14.0814181 24.2566101,14.8734408 24.2566101,15.7788438 C24.7603704,15.5169446 25.1504389,15.3159521 25.5388665,15.1121486 C27.6511904,14.0034106 29.8075846,12.9958715 32.1850333,12.6072393 C33.7551527,12.350728 35.3358208,12.3371411 36.8839051,12.7948791 C38.6078015,13.3046222 39.7034626,14.4911335 40.1242396,16.1850453 C40.440467,17.4591688 40.6420649,18.7923249 40.6643344,20.1032267 C40.7325495,24.103398 40.6957462,28.1056776 40.6802747,32.1072544 C40.6783994,32.5816247 40.7902159,32.8990428 41.2182598,33.1637531 C42.0642677,33.6866146 42.8715969,34.2717884 43.6899437,34.8382217 C43.8334064,34.9375466 43.9534275,35.0706045 44.2180833,35.3081411 L31.9932809,35.3081411 C32.1343994,35.135728 32.215273,34.9790101 32.3430298,34.8899924 C33.2070877,34.2872494 34.0746619,33.6894257 34.955129,33.1112796 C35.2605732,32.9107557 35.4077866,32.6891486 35.4061457,32.3054358 C35.3862203,28.1480781 35.4019262,23.9904861 35.3583248,19.8333627 C35.350589,19.105995 35.188373,18.3573098 34.9661465,17.6601612 C34.5088006,16.2253375 33.2422501,15.4358917 31.5209323,15.3215743 C29.2187313,15.1686045 27.1521184,15.9311108 25.0976953,16.8304232 C24.4504723,17.1136398 24.2298867,17.4479244 24.2362159,18.1699043 C24.2767699,22.8152191 24.2673932,27.4610025 24.2427795,32.1065516 C24.2397321,32.651199 24.4267962,32.9653375 24.8637479,33.2405894 C25.6722493,33.7503325 26.4561369,34.2989622 27.2456505,34.8384559 C27.3921606,34.9387179 27.5166356,35.0713073 27.6511904,35.1889043 C27.624467,35.2371612 27.5975091,35.2854181 27.5705513,35.3336751" id="Fill-16" fill="#3A3A3A"></path>
                <path d="M109.53852,59.6152254 C109.728163,59.5913312 109.917571,59.549165 110.107682,59.5461196 C112.761742,59.5013766 115.416036,59.4669408 118.069861,59.4149358 C118.403201,59.4083766 118.541976,59.5161348 118.520175,59.8447972 C118.510095,60.0003438 118.519472,60.1570617 118.519472,60.3130768 C118.519472,66.4417065 118.524394,72.570102 118.510564,78.6987317 C118.509392,79.2087091 118.618161,79.5636083 119.072694,79.8695479 C119.913544,80.4348098 120.696494,81.0853413 121.515779,81.6836335 C121.665805,81.7932657 121.873732,81.8237191 122.054936,81.8907166 C121.978047,81.9823111 121.901393,82.0739055 121.824505,82.1655 L113.355284,82.1655 L113.355284,79.4015025 C112.697512,79.7777191 112.149447,80.0960743 111.596928,80.406699 C109.334343,81.6787141 106.925952,82.4953338 104.315025,82.5229761 C103.331883,82.5335176 102.320378,82.4070189 101.367007,82.1650315 C99.6384224,81.7265025 98.5751107,80.4964194 98.2180949,78.8008678 C97.9192143,77.3812708 97.7532477,75.9115428 97.7293372,74.4607897 C97.6646384,70.5388602 97.7014417,66.6150567 97.7152723,62.6919559 C97.7166788,62.2756814 97.5978298,62.0161247 97.2365945,61.7865529 C96.364332,61.2327695 95.522778,60.630495 94.6718473,60.0434471 C94.5522951,59.9609887 94.4489176,59.8548703 94.2327859,59.6693388 C94.5377613,59.6112431 94.7145111,59.5508048 94.8926673,59.5475252 C97.4686665,59.5006738 100.0449,59.4563992 102.621368,59.4360189 C102.751703,59.4348476 102.926109,59.6351373 103.002294,59.7820164 C103.066524,59.9052355 103.018,60.0874874 103.018,60.2435025 C103.018235,65.0253892 103.003232,69.8072758 103.031831,74.5889282 C103.036988,75.4385781 103.142241,76.3065 103.342198,77.1320214 C103.709293,78.647898 104.797219,79.4900516 106.337333,79.6762859 C108.521154,79.9405277 110.494,79.3042859 112.430043,78.3920894 C113.001315,78.1229282 113.207836,77.8216738 113.203148,77.1725479 C113.169626,72.3908955 113.175721,67.6090088 113.198225,62.8273564 C113.200569,62.2878627 113.03976,61.9819232 112.569755,61.7190869 C111.668425,61.214966 110.80507,60.6429106 109.928588,60.0942809 C109.77317,59.99683 109.631349,59.8773589 109.483198,59.7681952 C109.501717,59.7171272 109.520001,59.6662935 109.53852,59.6152254" id="Fill-18" fill="#3A3A3A"></path>
                <path d="M106.075678,22.7415219 C105.924479,22.7532348 105.863062,22.7445673 105.812194,22.7637763 C103.318006,23.7083003 100.822412,24.6490761 98.3357249,25.6132776 C98.1226406,25.6959703 97.9266687,25.9065673 97.7968022,26.1061542 C97.1465318,27.1038544 96.9327442,28.2095471 96.9836126,29.3939501 C97.0525309,31.0035295 98.0701314,32.4268746 99.6109488,32.9085068 C101.939873,33.6361088 103.900061,32.8508796 105.635444,31.3279753 C105.873845,31.1187839 106.048485,30.7088343 106.056221,30.3869652 C106.097478,28.6921164 106.075678,26.995862 106.075678,25.3000761 L106.075678,22.7415219 M114.722586,35.3220559 L106.256178,35.3220559 L106.256178,32.1251516 C105.999023,32.3453531 105.859546,32.4538141 105.732492,32.5751592 C103.967339,34.259935 101.957923,35.5057134 99.4834264,35.7521516 C96.7787328,36.0217814 94.3211139,35.4494917 92.6065941,33.1329249 C91.1492289,31.163527 91.2558882,29.0242927 92.1551086,26.8564791 C92.2073834,26.7304489 92.265753,26.6069955 92.3250603,26.4840106 C92.7723263,25.559867 93.3553193,24.9198771 94.4741876,24.654464 C98.1725713,23.7769375 101.837199,22.7586227 105.519408,21.8119904 C105.924714,21.7079804 106.135688,21.553605 106.078491,21.1094539 C105.904554,19.7608368 105.867985,18.3803607 105.54871,17.0678191 C105.07308,15.1108368 103.637984,14.105406 101.688345,13.8125849 C99.0856222,13.4218443 99.0879664,13.4323859 97.3924343,15.4366882 C96.1446371,16.911804 94.8832438,18.3752071 93.6363843,19.8512599 C93.5276152,19.979867 93.4826073,20.1625874 93.4078285,20.3202423 C93.3356284,20.2654262 93.2634282,20.2103758 93.1909936,20.1555597 C93.1715371,20.0098519 93.135437,19.8641441 93.1352025,19.7184363 C93.1316863,17.551794 93.1356714,15.3851516 93.1295766,13.2185093 C93.1286389,12.8879728 93.1663799,12.676673 93.5918452,12.6591038 C96.7109866,12.5295597 99.828487,12.2866353 102.947394,12.2723456 C104.323651,12.2662549 105.759919,12.5393985 107.06632,12.9854237 C109.497216,13.8151617 110.625461,15.8239149 111.008965,18.2271567 C111.265886,19.8372045 111.373717,21.4821567 111.407239,23.1144589 C111.468187,26.099595 111.433962,29.0870736 111.414271,32.0733809 C111.411458,32.5140181 111.538277,32.7909098 111.905138,33.0382851 C112.745989,33.6054212 113.55871,34.2140207 114.378698,34.8120786 C114.528255,34.9210081 114.656715,35.0589854 114.795021,35.1838443 C114.770876,35.2299929 114.746731,35.2759073 114.722586,35.3220559" id="Fill-20" fill="#3A3A3A"></path>
                <path d="M85.5859241,71.5742055 C85.5259135,70.7782005 85.5050505,69.9768076 85.3983911,69.1871275 C85.0889618,66.8951577 84.4225167,64.7252358 82.9285825,62.9045909 C81.3856554,61.0242106 79.4207792,60.1181048 76.9772252,60.6906287 C75.0770478,61.1359511 73.9115307,62.501669 73.1562419,64.2019058 C71.6679337,67.5522484 71.6988766,71.0183139 72.565982,74.5082736 C73.048176,76.4481552 73.8859794,78.2203088 75.370068,79.6162458 C76.5916106,80.7655103 78.0344421,81.3619285 79.7358345,81.2152836 C81.7351699,81.0426363 83.0521198,79.866198 84.0022085,78.2189033 C85.1850724,76.1677496 85.5577941,73.9146665 85.5859241,71.5742055 M78.2111918,82.6875884 C74.0791383,82.5111929 70.4037274,80.8997395 68.0171365,77.0227874 C64.8300145,71.8450065 66.1338371,64.4141426 72.078162,60.9333189 C74.0950786,59.7521955 76.285932,59.103538 78.5942278,59.0958076 C83.149637,59.0805809 86.9645255,60.6955481 89.4683244,64.6781501 C93.0860689,70.4319688 90.9252208,78.0640594 84.8697827,81.1567194 C82.8671655,82.1794851 80.7440584,82.6646312 78.2111918,82.6875884" id="Fill-22" fill="#3A3A3A"></path>
                <g id="Group-26" transform="translate(0.000000, 0.222778)" fill="#3A3A3A">
                    <path d="M12.3077623,35.0931166 L0.00794670764,35.0931166 C0.241425198,34.8469126 0.358867691,34.6850411 0.511003775,34.5688496 C1.33286681,33.9417438 2.15660518,33.3162778 2.99464293,32.7111922 C3.3221223,32.474827 3.4744928,32.215036 3.47402397,31.790094 C3.46159991,22.3240058 3.46230316,12.8579176 3.47238306,3.39182947 C3.47285189,2.99663804 3.34720483,2.74879421 3.02839886,2.51711411 C2.16105909,1.8862602 1.31833301,1.22143904 0.471856277,0.562474307 C0.333550746,0.454950378 0.225953731,0.308071285 -2.34416154e-05,0.0693634761 L12.4425516,0.0693634761 C12.268146,0.273635516 12.1762549,0.424965491 12.0456851,0.527101511 C11.184909,1.19965315 10.3009256,1.8438597 9.45984047,2.53960277 C9.25331984,2.71037607 9.05898885,3.03833577 9.05852002,3.29461285 C9.03812581,12.819031 9.03765698,22.3436834 9.05898885,31.8683358 C9.0596921,32.1426506 9.25800817,32.4966128 9.47695285,32.6765222 C10.2901425,33.3439202 11.1520907,33.9520511 11.9915349,34.5880587 C12.1359353,34.6972224 12.2601759,34.8333257 12.3937931,34.9570134 C12.3651943,35.0024592 12.3363611,35.0476708 12.3077623,35.0931166" id="Fill-24"></path>
                </g>
                <path d="M250.556527,24.1368733 C250.79446,24.1368733 250.876974,24.1565509 250.945658,24.1340622 C254.182945,23.0672562 257.420701,22.0009186 260.650721,20.9120924 C260.788792,20.8657096 260.957806,20.5937373 260.939288,20.4489665 C260.720343,18.7386567 260.351372,17.0662965 259.398236,15.5907121 C258.834465,14.7185736 258.10754,14.0364174 257.051964,13.7813116 C255.190935,13.3315383 253.145419,14.2008657 251.956929,15.9819212 C250.928546,17.5230975 250.544572,19.2633922 250.493704,21.0814602 C250.465574,22.0850169 250.531914,23.0909161 250.556527,24.1368733 M266.779532,21.8502914 C261.369441,22.9644174 256.109612,24.0473872 250.853532,25.1298884 C251.424336,28.7027751 253.856872,31.9118607 257.908052,32.5837096 C260.675569,33.0426189 263.307594,32.6635912 265.776699,31.2955307 C265.860386,31.2491479 265.951339,31.2158834 266.039011,31.1765282 C266.092927,31.2081529 266.146608,31.2400118 266.200524,31.2716365 C266.062453,31.5147952 265.971734,31.8071479 265.778809,31.9938506 C262.962065,34.7191957 259.566078,35.9677851 255.671253,35.7951378 C252.001937,35.6323292 249.000004,34.1438607 246.924718,31.0401907 C245.318498,28.6378859 244.832788,25.9310471 245.059937,23.1052058 C245.357177,19.4091 246.816183,16.2932486 249.954781,14.1338683 C253.573229,11.6446542 258.935967,11.5973343 262.328906,14.0071353 C264.039676,15.2224602 265.17425,16.8847474 265.884531,18.8311882 C266.236155,19.7944526 266.472446,20.7996491 266.779532,21.8502914" id="Fill-27" fill="#3A3A3A"></path>
                <path d="M200.498247,35.4086139 C199.94901,35.4086139 199.533624,35.3418506 199.150823,35.4243091 C198.585645,35.5461227 198.298251,35.3781605 198.069461,34.8494426 C196.553257,31.345896 195.01033,27.853828 193.474904,24.3587146 C192.307746,21.7015383 191.118788,19.0537322 189.984213,16.3827348 C189.673846,15.6523217 189.22658,15.0875282 188.614754,14.6108154 C188.061532,14.1795484 187.541128,13.7063494 186.992126,13.2694602 C186.858508,13.1631076 186.669803,13.126095 186.506415,13.0574577 C186.571114,12.9663317 186.635579,12.8749715 186.700043,12.7838456 L198.653157,12.7838456 C198.67191,12.8264804 198.690898,12.8691151 198.709886,12.9115156 C198.560797,13.0426995 198.422726,13.1898128 198.26051,13.3020219 C197.411455,13.8904753 196.545287,14.4552688 195.712875,15.0659766 C195.562849,15.1760773 195.420324,15.511299 195.479866,15.6607549 C197.491156,20.7092259 199.527061,25.7480924 201.561558,30.7874275 C201.580312,30.8338103 201.630008,30.8677776 201.734792,30.9865458 C201.836763,30.7757146 201.927248,30.621105 201.988899,30.4554854 C203.811485,25.5660748 205.626803,20.6736189 207.459234,15.7879564 C207.614887,15.3735559 207.520651,15.1545257 207.161526,14.9301076 C206.318097,14.4030295 205.496234,13.8412814 204.668041,13.2898406 C204.512389,13.1860647 204.368692,13.0642511 204.204835,12.9396264 C204.620455,12.6458683 212.331809,12.5990169 212.985595,12.8857474 C212.827833,13.0312209 212.706874,13.1677927 212.562709,13.2713343 C211.99214,13.6808154 211.442434,14.1301202 210.832717,14.4707297 C209.978974,14.9479111 209.52866,15.6654401 209.180552,16.5535081 C207.303113,21.3400798 205.331205,26.0898733 203.491507,30.8905005 C201.80582,35.2891428 200.246718,39.7365106 198.631122,44.1623267 C198.571112,44.3270093 198.504772,44.4891151 198.441479,44.6526264 C197.869738,46.1291479 197.869738,46.1291479 196.257658,46.1291479 C195.300772,46.1291479 194.343885,46.1354728 193.387233,46.1242285 C193.184697,46.1218859 192.983099,46.0555912 192.781032,46.0188128 C192.856749,45.811964 192.888161,45.5718506 193.014745,45.4029514 C194.5347,43.3740521 196.068719,41.3559287 197.598988,39.3349942 C198.458357,38.2002537 199.318899,37.0662159 200.175456,35.929367 C200.265706,35.809896 200.334624,35.6744955 200.498247,35.4086139" id="Fill-29" fill="#3A3A3A"></path>
                <path d="M217.924087,82.2276718 C217.483854,82.2485207 217.039635,82.2382134 216.605028,82.2986516 C216.179328,82.3576844 215.913969,82.2639816 215.729249,81.8402108 C214.086929,78.0731252 212.428669,74.3130673 210.775098,70.5506668 C209.607237,67.8934904 208.464223,65.2250698 207.248776,62.5899136 C207.035222,62.1272562 206.537323,61.7828985 206.136002,61.4226113 C205.516909,60.8669539 204.867811,60.3447952 204.218947,59.7978053 C204.656836,59.4869463 215.72667,59.4525106 216.326776,59.7565761 C216.147916,59.9067348 216.002812,60.0484602 215.838721,60.1625433 C215.038424,60.7189035 214.244222,61.2858053 213.424,61.8114778 C213.054092,62.0485458 212.931258,62.2389967 213.119494,62.6997801 C214.820652,66.865571 216.490164,71.0442461 218.169287,75.2189388 C218.509424,76.064372 218.851203,76.9091025 219.251586,77.9016491 C219.40044,77.6392814 219.506865,77.4991957 219.565704,77.3413065 C220.867885,73.857906 222.165379,70.3726315 223.462169,66.8871227 C223.978119,65.5003217 224.468752,64.1032134 225.016348,62.7290622 C225.207866,62.2486013 225.113631,61.9941982 224.685352,61.7327675 C223.853409,61.2246642 223.051237,60.6678355 222.239454,60.1269363 C222.087318,60.0257373 221.948075,59.9046264 221.779061,59.7741453 C222.225389,59.5138859 229.811096,59.4555559 230.579043,59.6984804 C230.408623,59.8676139 230.287899,60.0238632 230.134122,60.1334955 C229.340388,60.700163 228.523214,61.2349715 227.747296,61.8245962 C227.484985,62.0239489 227.244239,62.3207524 227.12164,62.6245836 C225.096753,67.6456466 223.051003,72.6589791 221.09691,77.7076844 C219.698852,81.3196919 218.431598,84.982299 217.101755,88.6207776 C216.627063,89.919498 216.123771,91.2079111 215.670645,92.5138935 C215.54406,92.8779287 215.368482,92.9934174 214.998105,92.9882637 C213.65115,92.9702259 212.303491,92.9863897 210.956301,92.9753796 C210.756813,92.9739741 210.558028,92.8971378 210.359009,92.8549715 C210.442227,92.6481227 210.485359,92.4110547 210.614757,92.2386416 C211.913188,90.5072486 213.227091,88.7875685 214.533726,87.0622662 C215.605243,85.6475887 216.673712,84.2305685 217.740774,82.8126113 C217.84087,82.6793191 217.921509,82.5317373 218.01129,82.3907146 C217.982222,82.336367 217.953155,82.2820194 217.924087,82.2276718" id="Fill-31" fill="#3A3A3A"></path>
                <path d="M184.755678,59.5889652 C184.938992,59.5730358 185.122305,59.5435194 185.305619,59.5432851 C187.727841,59.5402398 190.150063,59.5547637 192.57205,59.5301668 C193.076045,59.5252474 193.201458,59.6969577 193.18458,60.1694539 C193.151762,61.0856327 193.173562,62.0039199 193.176141,62.92127 C193.17661,63.106333 193.191612,63.291396 193.204974,63.5881995 C193.788201,62.9617965 194.249532,62.3920836 194.785173,61.9043607 C196.827173,60.045532 199.307999,59.2839627 202.008942,59.1251365 C202.125915,59.1181088 202.361504,59.3109023 202.362441,59.4121013 C202.382835,61.711333 202.378147,64.010799 202.378147,66.4344212 C202.122399,66.2955068 201.955729,66.2205446 201.805234,66.1209854 C200.245194,65.0869753 198.695704,64.0360987 197.119724,63.0266856 C196.903827,62.8884741 196.517978,62.844668 196.280983,62.9369652 C194.52966,63.6200584 193.434468,64.8234363 193.42931,66.8000962 C193.418527,70.9185673 193.412901,75.0372725 193.433061,79.1557436 C193.434233,79.3614212 193.65646,79.6387814 193.851963,79.7587209 C194.932621,80.4214338 196.038362,81.0429174 197.130976,81.6861869 C197.299052,81.7850433 197.44439,81.9227864 197.540501,82.1628997 L184.632375,82.1628997 C184.822956,81.9621416 184.936179,81.8019098 185.086205,81.6915748 C185.950966,81.0560358 186.839872,80.4518872 187.683536,79.7898771 C187.88865,79.6289426 188.067275,79.2918469 188.068447,79.0351013 C188.090482,73.7062247 188.090482,68.3773481 188.069151,63.0484715 C188.068213,62.7868065 187.899433,62.4534589 187.699711,62.277532 C186.864955,61.5429023 185.993396,60.8492675 185.123243,60.1561013 C184.960324,60.0263229 184.741379,59.9668217 184.54822,59.8749929 C184.617373,59.7796504 184.686525,59.6843078 184.755678,59.5889652" id="Fill-33" fill="#3A3A3A"></path>
                <path d="M87.9501516,35.331965 L75.9100691,35.331965 C76.1262008,35.0984108 76.2452842,34.9224839 76.4065625,34.8034814 C77.2385054,34.189494 78.0725581,33.5771463 78.9253641,32.9926753 C79.2308083,32.7832496 79.367473,32.5560204 79.3667697,32.179101 C79.3569242,26.869902 79.3653632,21.5604688 79.3440313,16.2512698 C79.3428593,15.987965 79.1736108,15.6539146 78.9734194,15.4749423 C78.1302245,14.7211035 77.2436626,14.0155217 76.3774949,13.2872169 C76.2396582,13.171494 76.124091,13.0293 75.9018645,12.8001967 C76.2141068,12.7669322 76.3767917,12.7343705 76.5394765,12.7341363 C79.0397592,12.7313252 81.5400419,12.7432723 84.0400902,12.723829 C84.522753,12.7200809 84.6643404,12.8552471 84.6629339,13.3528088 C84.6446494,19.5404713 84.6566047,25.7281338 84.6404299,31.9157962 C84.6390234,32.4410003 84.7895186,32.7818441 85.2346749,33.0739625 C86.0333307,33.597761 86.79448,34.1787181 87.5643026,34.7456199 C87.738005,34.8732899 87.8821709,35.0410179 88.0401674,35.1902395 C88.0101622,35.2375594 87.9801569,35.2846451 87.9501516,35.331965" id="Fill-35" fill="#3A3A3A"></path>
                <path d="M85.414894,4.6112539 C85.3902803,6.50194156 83.9615139,7.8559466 82.0001539,7.84727909 C79.992614,7.83861159 78.6751952,6.46469471 78.7075446,4.41307254 C78.735909,2.61093401 80.1963216,1.2192136 82.0528975,1.22530428 C83.9493242,1.23139496 85.4392733,2.73204484 85.414894,4.6112539" id="Fill-37" fill="#3A3A3A"></path>
            </g>
        </g>
    </g>
</svg>