<?xml version="1.0" encoding="UTF-8"?>
<svg width="155px" height="53px" viewBox="0 0 155 53" version="1.1" xmlns="http://www.w3.org/2000/svg" xmlns:xlink="http://www.w3.org/1999/xlink">
    <!-- Generator: Sketch 41.2 (35397) - http://www.bohemiancoding.com/sketch -->
    <title>Klim</title>
    <desc>Created with Sketch.</desc>
    <defs>
        <polygon id="path-1" points="61.1982042 37.6933223 61.1982042 0.125117031 0.0678673621 0.125117031 0.0678673621 37.6933223 61.1982042 37.6933223"></polygon>
    </defs>
    <g id="Page-1" stroke="none" stroke-width="1" fill="none" fill-rule="evenodd">
        <g id="Desktop-HD" transform="translate(-1073.000000, -869.000000)">
            <g id="Klim" transform="translate(1073.000000, 869.000000)">
                <g id="Group-3" transform="translate(93.785395, 15.175590)">
                    <mask id="mask-2" fill="white">
                        <use xlink:href="#path-1"></use>
                    </mask>
                    <g id="Clip-2"></g>
                    <path d="M0.0678673621,35.3819205 C1.18682414,35.1058114 2.28776304,34.9053834 3.33973025,34.5566017 C4.6816006,34.1117721 5.29651863,33.0603354 5.33417139,31.6765493 C5.36628018,30.5010603 5.35704024,29.324414 5.35750224,28.1482306 C5.35911923,21.4949948 5.35380626,14.841759 5.36835917,8.18875459 C5.36928316,7.74438777 5.25540089,7.51248384 4.83382861,7.32038777 C3.52221908,6.72303843 2.24641431,6.04746201 0.936421759,5.44640961 C0.511846498,5.25176769 0.29609389,5.03166725 0.36585544,4.55026987 C0.404201192,4.28665852 0.372785395,4.01286376 0.372785395,3.70689869 C1.75484948,3.20490306 3.12443964,2.70568472 4.4956468,2.21016943 C6.10385842,1.62902096 7.69890313,1.0050559 9.32882861,0.492876856 C10.0735678,0.258658515 10.8882996,0.247549345 11.741839,0.125117031 L11.741839,6.99683319 C12.0439851,6.71933537 12.2301699,6.55339214 12.4108107,6.38166288 C14.5969806,4.30447948 16.8831729,2.36754934 19.7124426,1.20224367 C22.1467049,0.199409607 24.6636647,-0.0329572052 27.2356021,0.490793886 C30.5945514,1.17493362 32.4494694,3.38403843 33.2778301,6.59759738 C33.3113249,6.72789869 33.3404307,6.85935721 33.3766975,6.98896419 C33.3917124,7.04173275 33.4208182,7.09033537 33.4614739,7.1812917 C33.9509598,6.72419563 34.4221967,6.27728297 34.9005946,5.83777642 C37.1419732,3.77887686 39.5554456,1.98312576 42.4611759,0.960619214 C44.9832176,0.0732742358 47.5454531,-0.0533240175 50.1097675,0.727095197 C52.7068838,1.51746638 54.3127854,3.31599476 55.1185082,5.8822131 C55.6962355,7.72286376 55.8641714,9.61697729 55.8669434,11.530069 C55.8754903,17.5274009 55.8701773,23.5249642 55.8701773,29.5225275 C55.8701773,29.8888987 55.8699463,30.2552699 55.8701773,30.621641 C55.8704083,33.5433528 56.7070849,34.5380865 59.5984933,35.0474882 C60.1251699,35.1402961 60.6541565,35.2203747 61.198389,35.3087852 L61.198389,37.682676 L44.1306021,37.682676 L44.1306021,35.3282262 C44.917383,35.1773266 45.7182548,35.0685493 46.4951028,34.8662699 C48.7847601,34.2703092 49.4936945,33.432724 49.5054754,31.0933179 C49.5368912,24.8451039 49.5274203,18.59689 49.5045514,12.348676 C49.5008554,11.3523223 49.4260119,10.340462 49.2398271,9.3633179 C48.7584262,6.83713886 47.3738212,5.67113886 44.8217496,5.43368035 C41.0010343,5.0781869 37.6873607,6.36916507 34.5954456,8.47342707 C34.0228003,8.8631738 33.8289925,9.28856245 33.8317645,9.98080262 C33.8597154,16.961759 33.8481654,23.9429467 33.8504754,30.9239031 C33.8504754,31.309021 33.8428525,31.6985362 33.8939031,32.0785624 C34.0810119,33.4773921 34.9123756,34.341593 36.235535,34.7086585 C37.1773159,34.969724 38.1445067,35.1384445 39.1447303,35.3580821 L39.1447303,37.6866105 L22.1048942,37.6866105 L22.1048942,35.3363266 C22.9607437,35.1648288 23.8152072,35.0370734 24.6458778,34.8183616 C26.7391863,34.267069 27.4564367,33.3017284 27.4566677,31.1294227 C27.4568987,24.6881869 27.4659076,18.2471825 27.4453487,11.8061782 C27.4425768,10.9646585 27.3550283,10.1092524 27.1870924,9.28462795 C26.6860566,6.8271869 25.3166975,5.67484192 22.8193726,5.435069 C19.5255648,5.11845764 16.5401401,6.02292926 13.7441341,7.68166725 C13.0691565,8.08206026 12.2366379,8.45074585 11.8707362,9.06823057 C11.5461833,9.61582009 11.753158,10.4890472 11.752696,11.2185493 C11.748538,17.9102044 11.748538,24.6020908 11.754775,31.2937459 C11.755006,31.695759 11.7827258,32.1054096 11.8619583,32.4983965 C12.1125917,33.7393834 12.9739851,34.4017677 14.1222787,34.71051 C15.0654456,34.9641694 16.0305574,35.1363616 17.026623,35.3536847 L17.026623,37.6933223 L0.0678673621,37.6933223 L0.0678673621,35.3819205 Z" id="Fill-1" fill="#3A3A3A" mask="url(#mask-2)"></path>
                </g>
                <path d="M20.7342645,50.2291183 L20.7342645,52.8610659 L0.0185491803,52.8610659 L0.0185491803,50.2376817 C1.04995753,50.1228869 2.07928689,50.0310048 3.10099329,49.8842712 C3.59140313,49.8139131 4.07880999,49.6729655 4.54704396,49.5060965 C5.97715574,48.9964633 6.72882489,47.9246598 6.9445775,46.4557035 C7.01711103,45.9620397 7.04783383,45.4577297 7.04806483,44.9582799 C7.05383979,34.0053323 7.05430179,23.0526162 7.04690984,12.0996686 C7.04644784,11.5430528 7.00740909,10.9794939 6.91431669,10.4314415 C6.64589642,8.8488476 5.71243145,7.80157686 4.16658942,7.43312271 C3.03261773,7.163031 1.85637332,7.07091747 0.698146796,6.90404847 C0.472923249,6.87164672 0.244696721,6.86146332 6.92995529e-05,6.83947642 L6.92995529e-05,4.19086507 L20.7206356,4.19086507 L20.7206356,6.82072969 C19.6973122,6.93876463 18.6707548,7.05494803 17.6451215,7.17738035 C17.4739516,7.19774716 17.3046297,7.23917511 17.1366937,7.28037162 C14.9121781,7.82657249 13.9265075,9.01039345 13.7911423,11.3014284 C13.7752034,11.5705943 13.7715075,11.8409175 13.7715075,12.1105463 C13.7705835,23.0634939 13.7703525,34.0164415 13.7722004,44.9691576 C13.7724314,45.3158563 13.7703525,45.6655638 13.8119322,46.0085594 C14.0992943,48.3773585 15.239041,49.533638 17.6666043,49.8854284 C18.6702928,50.0307734 19.6829903,50.1131664 20.7342645,50.2291183" id="Fill-4" fill="#3A3A3A"></path>
                <path d="M21.390693,26.2333568 C22.8369747,27.8527498 24.2469896,29.4316406 25.6574665,31.0103 C30.0450522,35.9205533 34.4213189,40.8414528 38.8271535,45.7355052 C40.3840835,47.4650642 42.1131073,49.0016013 44.3884426,49.7297148 C45.1502757,49.9734223 45.9553055,50.0812738 46.7841282,50.2606406 L46.7841282,52.8990686 L46.2507526,52.8990686 C43.4794635,52.8990686 40.7081744,52.9060118 37.9368852,52.8886537 C37.6485991,52.8868022 37.3286662,52.795383 37.0784948,52.6505009 C34.8163264,51.3393873 32.9875112,49.5107716 31.2829732,47.5712956 C27.6343517,43.420169 24.0416319,39.2199769 20.4285842,35.0378371 C18.603234,32.9250118 16.7829657,30.8073262 14.9608495,28.6917236 C14.8111624,28.5179114 14.6642474,28.3415533 14.5469001,28.2029201 C15.184918,27.5275751 15.7751192,26.85061 16.4191431,26.2294223 C21.5329881,21.297645 26.660231,16.380217 31.771766,11.4463568 C32.239769,10.9945838 32.6846721,10.4965227 33.0383308,9.95333057 C33.789307,8.79959694 33.3735097,7.71436987 32.0408793,7.41349651 C31.0328018,7.18598996 29.9921535,7.10151397 28.9649031,6.96102926 C28.6075484,6.9121952 28.2469598,6.88719956 27.8720492,6.84947467 L27.8720492,4.19392009 L45.4715946,4.19392009 L45.4715946,6.84692882 C45.0574143,6.89946594 44.6259091,6.95015153 44.1957899,7.00893755 C41.7213338,7.34614716 39.7435246,8.63481092 37.9879359,10.31461 C32.9249106,15.1595969 27.8752832,20.0184703 22.8198808,24.8715576 C22.3622727,25.3108328 21.9014307,25.7468677 21.390693,26.2333568" id="Fill-6" fill="#3A3A3A"></path>
                <path d="M61.1061051,2.31441049e-05 L61.1061051,0.891996943 C61.1063361,15.9520974 61.1061051,31.0119664 61.1079531,46.0718354 C61.1079531,46.4569533 61.0980201,46.8464686 61.1472228,47.2269576 C61.3313286,48.6505515 62.1723942,49.5258616 63.5218875,49.8922328 C64.4638994,50.1479751 65.4292422,50.3169271 66.4137578,50.53101 L66.4137578,52.8521323 L49.3524389,52.8521323 L49.3524389,50.5212895 C50.2517161,50.3352109 51.1558443,50.1826913 52.0412615,49.9568048 C53.2805686,49.6408878 54.2817161,49.011831 54.5905611,47.6551236 C54.6753376,47.2831978 54.7092943,46.8920624 54.7095253,46.5097218 C54.7150693,33.6672895 54.7118353,20.8248572 54.7224613,7.98242489 C54.7229232,7.55356463 54.5889441,7.33554716 54.1969396,7.15618035 C52.8516043,6.5407786 51.5330648,5.86659083 50.1881915,5.24980044 C49.80381,5.0736738 49.642804,4.87394017 49.6601289,4.43512795 C49.6954717,3.53505371 49.6684449,3.53459083 50.5457772,3.22052533 C53.3133703,2.22995764 56.0705686,1.20768253 58.8561796,0.270114847 C59.5383182,0.0405253275 60.3128562,0.0870449782 61.1061051,2.31441049e-05" id="Fill-8" fill="#3A3A3A"></path>
                <path d="M88.5939113,50.5352686 L88.5939113,52.8631026 L71.6074359,52.8631026 L71.6074359,50.5095786 C72.4459605,50.3401638 73.296959,50.2066223 74.1271677,49.9927707 C76.1306177,49.4764258 76.8899098,48.4634083 76.8901408,46.3822904 C76.8908338,38.7454301 76.8839039,31.1085699 76.9037697,23.471941 C76.9051557,22.9266659 76.7332928,22.655417 76.247041,22.4339279 C74.9358934,21.8363472 73.6626297,21.1552162 72.3494031,20.5627271 C71.6462437,20.2454214 72.0188443,19.6760764 71.9280618,19.2162031 C71.8449024,18.7952118 72.206877,18.7702162 72.4618994,18.6781026 C75.3708636,17.6255087 78.2728979,16.5516223 81.200342,15.5520284 C81.8134121,15.3425742 82.5216535,15.4124694 83.2818696,15.3451201 L83.2818696,16.1590983 C83.2821006,26.1293472 83.2821006,36.0995961 83.2830246,46.069845 C83.2830246,46.3202642 83.2869516,46.5709148 83.2980395,46.8211026 C83.373807,48.5099279 84.0425477,49.4174083 85.6706252,49.8870022 C86.6091721,50.1577882 87.5800589,50.3147052 88.5939113,50.5352686" id="Fill-10" fill="#3A3A3A"></path>
                <path d="M79.8260626,10.4553493 C77.3146468,10.4713188 75.3162787,8.41843668 75.3174337,5.82398253 C75.3185887,3.26031004 77.285541,1.20580786 79.769006,1.17433188 C82.246465,1.14308734 84.2783279,3.20638428 84.3192146,5.7950524 C84.3594083,8.33928384 82.3344754,10.4393799 79.8260626,10.4553493" id="Fill-12" fill="#3A3A3A"></path>
            </g>
        </g>
    </g>
</svg>