<?xml version="1.0" encoding="UTF-8"?>
<svg width="170px" height="49px" viewBox="0 0 170 49" version="1.1" xmlns="http://www.w3.org/2000/svg" xmlns:xlink="http://www.w3.org/1999/xlink">
    <!-- Generator: Sketch 41.2 (35397) - http://www.bohemiancoding.com/sketch -->
    <title>Lineto</title>
    <desc>Created with Sketch.</desc>
    <defs></defs>
    <g id="Page-1" stroke="none" stroke-width="1" fill="none" fill-rule="evenodd">
        <g id="Desktop-HD" transform="translate(-1068.000000, -211.000000)" fill="#3A3A3A">
            <path d="M1097.076,259 L1097.076,250.552 L1076.852,250.552 L1076.852,213.624 L1068.02,213.624 L1068.02,259 L1097.076,259 Z M1109.732,259 L1109.732,227.512 L1101.22,227.512 L1101.22,259 L1109.732,259 Z M1100.196,217.208 C1100.196,220.024 1102.564,222.392 1105.444,222.392 C1108.388,222.392 1110.692,220.024 1110.692,217.208 C1110.692,214.264 1108.388,211.896 1105.444,211.896 C1102.564,211.896 1100.196,214.264 1100.196,217.208 Z M1125.332,240.888 C1125.332,237.24 1127.508,234.36 1131.22,234.36 C1135.316,234.36 1137.044,237.112 1137.044,240.632 L1137.044,259 L1145.556,259 L1145.556,239.16 C1145.556,232.248 1141.972,226.68 1134.164,226.68 C1130.772,226.68 1126.996,228.152 1125.076,231.416 L1125.076,227.512 L1116.82,227.512 L1116.82,259 L1125.332,259 L1125.332,240.888 Z M1158.404,239.672 C1158.596,236.792 1161.028,233.464 1165.444,233.464 C1170.308,233.464 1172.356,236.536 1172.484,239.672 L1158.404,239.672 Z M1173.316,247.864 C1172.292,250.68 1170.116,252.664 1166.148,252.664 C1161.924,252.664 1158.404,249.656 1158.212,245.496 L1180.74,245.496 C1180.74,245.368 1180.868,244.088 1180.868,242.872 C1180.868,232.76 1175.044,226.552 1165.316,226.552 C1157.252,226.552 1149.828,233.08 1149.828,243.128 C1149.828,253.752 1157.444,259.96 1166.084,259.96 C1173.828,259.96 1178.82,255.416 1180.42,249.976 L1173.316,247.864 Z M1196.084,218.104 L1188.404,218.104 L1188.404,222.52 C1188.404,225.336 1186.868,227.512 1183.54,227.512 L1181.94,227.512 L1181.94,235.064 L1187.636,235.064 L1187.636,249.72 C1187.636,255.8 1191.476,259.448 1197.62,259.448 C1200.116,259.448 1201.652,259 1202.42,258.68 L1202.42,251.64 C1201.972,251.768 1200.82,251.896 1199.796,251.896 C1197.364,251.896 1196.084,251 1196.084,248.248 L1196.084,235.064 L1202.42,235.064 L1202.42,227.512 L1196.084,227.512 L1196.084,218.104 Z M1221.476,252.216 C1217.316,252.216 1213.476,249.144 1213.476,243.256 C1213.476,237.304 1217.316,234.296 1221.476,234.296 C1225.636,234.296 1229.476,237.304 1229.476,243.256 C1229.476,249.208 1225.636,252.216 1221.476,252.216 Z M1221.476,226.552 C1212.068,226.552 1204.964,233.528 1204.964,243.256 C1204.964,252.92 1212.068,259.96 1221.476,259.96 C1230.884,259.96 1237.988,252.92 1237.988,243.256 C1237.988,233.528 1230.884,226.552 1221.476,226.552 Z" id="Lineto"></path>
        </g>
    </g>
</svg>