<?xml version="1.0" encoding="UTF-8"?>
<svg width="273px" height="117px" viewBox="0 0 273 117" version="1.1" xmlns="http://www.w3.org/2000/svg" xmlns:xlink="http://www.w3.org/1999/xlink">
    <!-- Generator: Sketch 41.2 (35397) - http://www.bohemiancoding.com/sketch -->
    <title>Milieu Grotesque</title>
    <desc>Created with Sketch.</desc>
    <defs></defs>
    <g id="Page-1" stroke="none" stroke-width="1" fill="none" fill-rule="evenodd">
        <g id="Desktop-HD" transform="translate(-156.000000, -841.000000)" fill="#3A3A3A">
            <path d="M217.2,885 L217.2,843 L224.22,843 L237.36,875.22 L237.48,875.22 L250.62,843 L257.64,843 L257.64,885 L252.78,885 L252.78,849.96 L252.66,849.96 L238.2,885 L236.64,885 L222.18,849.96 L222.06,849.96 L222.06,885 L217.2,885 Z M267.8,885 L267.8,853.2 L272.72,853.2 L272.72,885 L267.8,885 Z M267.44,846.78 L267.44,841.2 L273.08,841.2 L273.08,846.78 L267.44,846.78 Z M282.28,885 L282.28,841.2 L287.26,841.2 L287.26,885 L282.28,885 Z M296.82,885 L296.82,853.2 L301.74,853.2 L301.74,885 L296.82,885 Z M296.46,846.78 L296.46,841.2 L302.1,841.2 L302.1,846.78 L296.46,846.78 Z M333.32,875.22 L337.28,877.8 C336.079994,880.120012 334.370011,882.049992 332.15,883.59 C329.929989,885.130008 327.200016,885.9 323.96,885.9 C319.639978,885.9 316.100014,884.370015 313.34,881.31 C310.579986,878.249985 309.2,874.180025 309.2,869.1 C309.2,864.019975 310.549987,859.950015 313.25,856.89 C315.950014,853.829985 319.439979,852.3 323.72,852.3 C327.960021,852.3 331.399987,853.799985 334.04,856.8 C336.680013,859.800015 338,863.899974 338,869.1 L338,870.54 L314.12,870.54 C314.16,873.580015 315.009992,876.159989 316.67,878.28 C318.330008,880.400011 320.719984,881.46 323.84,881.46 C325.040006,881.46 326.159995,881.290002 327.2,880.95 C328.240005,880.609998 329.039997,880.270002 329.6,879.93 C330.160003,879.589998 330.749997,879.030004 331.37,878.25 C331.990003,877.469996 332.369999,876.960001 332.51,876.72 C332.650001,876.479999 332.919998,875.980004 333.32,875.22 Z M314.24,866.64 L333.14,866.64 C333.06,863.959987 332.260008,861.64001 330.74,859.68 C329.219992,857.71999 326.880016,856.74 323.72,856.74 C320.639985,856.74 318.300008,857.78999 316.7,859.89 C315.099992,861.990011 314.28,864.239988 314.24,866.64 Z M344.8,873.9 L344.8,853.2 L349.72,853.2 L349.72,873.18 C349.72,876.140015 350.289994,878.239994 351.43,879.48 C352.570006,880.720006 354.459987,881.34 357.1,881.34 C359.500012,881.34 361.339994,880.600007 362.62,879.12 C363.900006,877.639993 364.54,875.580013 364.54,872.94 L364.54,853.2 L369.4,853.2 L369.4,885 L364.6,885 L364.6,881.94 L364.48,881.94 C364.279999,882.220001 363.980002,882.579998 363.58,883.02 C363.179998,883.460002 362.250007,884.049996 360.79,884.79 C359.329993,885.530004 357.740009,885.9 356.02,885.9 C352.499982,885.9 349.75001,884.90001 347.77,882.9 C345.78999,880.89999 344.8,877.90002 344.8,873.9 Z M174.37,944.9 C171.969988,944.9 169.74001,944.480004 167.68,943.64 C165.61999,942.799996 163.740008,941.520009 162.04,939.8 C160.339991,938.079991 159.010005,935.750015 158.05,932.81 C157.089995,929.869985 156.61,926.460019 156.61,922.58 C156.61,915.779966 158.339983,910.500019 161.8,906.74 C165.260017,902.979981 169.449975,901.1 174.37,901.1 C178.490021,901.1 181.969986,902.379987 184.81,904.94 C187.650014,907.500013 189.409997,910.839979 190.09,914.96 L185.11,915.86 C183.709993,909.179967 180.130029,905.84 174.37,905.84 C170.769982,905.84 167.780012,907.259986 165.4,910.1 C163.019988,912.940014 161.83,917.099973 161.83,922.58 C161.83,928.300029 162.999988,932.669985 165.34,935.69 C167.680012,938.710015 170.689982,940.22 174.37,940.22 C177.850017,940.22 180.58999,939.130011 182.59,936.95 C184.59001,934.769989 185.55,931.780019 185.47,927.98 L174.91,927.98 L174.91,923.42 L190.45,923.42 L190.45,927.5 C190.45,932.940027 188.970015,937.199985 186.01,940.28 C183.049985,943.360015 179.170024,944.9 174.37,944.9 Z M197.85,944 L197.85,912.2 L202.53,912.2 L202.53,915.62 L202.65,915.62 C203.290003,914.339994 204.229994,913.360003 205.47,912.68 C206.710006,911.999997 207.969994,911.66 209.25,911.66 C209.730002,911.66 210.199998,911.709999 210.66,911.81 C211.120002,911.910001 211.469999,912 211.71,912.08 L212.01,912.26 L211.11,917.12 C210.509997,916.799998 209.670005,916.64 208.59,916.64 C206.54999,916.64 205.070005,917.309993 204.15,918.65 C203.229995,919.990007 202.77,922.139985 202.77,925.1 L202.77,944 L197.85,944 Z M229.07,940.46 C231.750013,940.46 233.979991,939.370011 235.76,937.19 C237.540009,935.009989 238.43,931.980019 238.43,928.1 C238.43,924.219981 237.550009,921.190011 235.79,919.01 C234.029991,916.829989 231.790014,915.74 229.07,915.74 C226.269986,915.74 223.970009,916.809989 222.17,918.95 C220.369991,921.090011 219.47,924.13998 219.47,928.1 C219.47,932.06002 220.369991,935.109989 222.17,937.25 C223.970009,939.390011 226.269986,940.46 229.07,940.46 Z M229.07,944.9 C224.869979,944.9 221.410014,943.420015 218.69,940.46 C215.969986,937.499985 214.61,933.380026 214.61,928.1 C214.61,922.899974 216.009986,918.800015 218.81,915.8 C221.610014,912.799985 225.02998,911.3 229.07,911.3 C233.07002,911.3 236.439986,912.799985 239.18,915.8 C241.920014,918.800015 243.29,922.899974 243.29,928.1 C243.29,933.380026 241.950013,937.499985 239.27,940.46 C236.589987,943.420015 233.190021,944.9 229.07,944.9 Z M251.53,934.76 L251.53,916.58 L247.09,916.58 L247.09,912.2 L251.65,912.2 L251.65,904.4 L256.33,904.4 L256.33,912.2 L264.19,912.2 L264.19,916.58 L256.39,916.58 L256.39,934.16 C256.39,936.040009 256.649997,937.359996 257.17,938.12 C257.690003,938.880004 258.729992,939.26 260.29,939.26 L262.69,939.26 L262.69,944 L260.05,944 C257.049985,944 254.880007,943.230008 253.54,941.69 C252.199993,940.149992 251.53,937.840015 251.53,934.76 Z M291.81,934.22 L295.77,936.8 C294.569994,939.120012 292.860011,941.049992 290.64,942.59 C288.419989,944.130008 285.690016,944.9 282.45,944.9 C278.129978,944.9 274.590014,943.370015 271.83,940.31 C269.069986,937.249985 267.69,933.180025 267.69,928.1 C267.69,923.019975 269.039986,918.950015 271.74,915.89 C274.440013,912.829985 277.929979,911.3 282.21,911.3 C286.450021,911.3 289.889987,912.799985 292.53,915.8 C295.170013,918.800015 296.49,922.899974 296.49,928.1 L296.49,929.54 L272.61,929.54 C272.65,932.580015 273.499992,935.159989 275.16,937.28 C276.820008,939.400011 279.209984,940.46 282.33,940.46 C283.530006,940.46 284.649995,940.290002 285.69,939.95 C286.730005,939.609998 287.529997,939.270002 288.09,938.93 C288.650003,938.589998 289.239997,938.030004 289.86,937.25 C290.480003,936.469996 290.859999,935.960001 291,935.72 C291.140001,935.479999 291.409998,934.980004 291.81,934.22 Z M272.73,925.64 L291.63,925.64 C291.55,922.959987 290.750008,920.64001 289.23,918.68 C287.709992,916.71999 285.370016,915.74 282.21,915.74 C279.129985,915.74 276.790008,916.78999 275.19,918.89 C273.589992,920.990011 272.77,923.239988 272.73,925.64 Z M301.19,933.2 L305.81,932.3 C306.410003,937.860028 309.349974,940.64 314.63,940.64 C317.150013,940.64 319.039994,940.180005 320.3,939.26 C321.560006,938.339995 322.19,937.120008 322.19,935.6 C322.19,933.999992 321.600006,932.800004 320.42,932 C319.239994,931.199996 316.770019,930.280005 313.01,929.24 C309.08998,928.159995 306.330008,926.940007 304.73,925.58 C303.129992,924.219993 302.33,922.380012 302.33,920.06 C302.33,917.699988 303.30999,915.650009 305.27,913.91 C307.23001,912.169991 309.929983,911.3 313.37,911.3 C316.850017,911.3 319.60999,912.129992 321.65,913.79 C323.69001,915.450008 325.049997,917.659986 325.73,920.42 L321.47,921.56 C320.229994,917.51998 317.530021,915.5 313.37,915.5 C311.28999,915.5 309.690006,915.939996 308.57,916.82 C307.449994,917.700004 306.89,918.739994 306.89,919.94 C306.89,921.260007 307.429995,922.239997 308.51,922.88 C309.590005,923.520003 312.069981,924.399994 315.95,925.52 C320.070021,926.680006 322.899992,928.009992 324.44,929.51 C325.980008,931.010008 326.77,933.039987 326.81,935.6 C326.81,938.120013 325.80001,940.299991 323.78,942.14 C321.75999,943.980009 318.73002,944.9 314.69,944.9 C310.489979,944.9 307.280011,943.810011 305.06,941.63 C302.839989,939.449989 301.550002,936.640017 301.19,933.2 Z M354.43,933.56 L354.43,923.48 C354.43,921.51999 353.680007,919.740008 352.18,918.14 C350.679993,916.539992 348.690012,915.74 346.21,915.74 C343.089984,915.74 340.680008,916.829989 338.98,919.01 C337.279992,921.190011 336.43,924.219981 336.43,928.1 C336.43,932.02002 337.269992,935.059989 338.95,937.22 C340.630008,939.380011 343.049984,940.46 346.21,940.46 C348.570012,940.46 350.529992,939.770007 352.09,938.39 C353.650008,937.009993 354.43,935.400009 354.43,933.56 Z M354.43,957.5 L354.43,940.94 L354.31,940.94 C352.26999,943.580013 349.29002,944.9 345.37,944.9 C341.249979,944.9 337.910013,943.380015 335.35,940.34 C332.789987,937.299985 331.51,933.220026 331.51,928.1 C331.51,923.019975 332.839987,918.950015 335.5,915.89 C338.160013,912.829985 341.46998,911.3 345.43,911.3 C347.47001,911.3 349.289992,911.699996 350.89,912.5 C352.490008,913.300004 353.709996,914.219995 354.55,915.26 L354.67,915.26 L354.67,912.2 L359.29,912.2 L359.29,957.5 L354.43,957.5 Z M368.19,932.9 L368.19,912.2 L373.11,912.2 L373.11,932.18 C373.11,935.140015 373.679994,937.239994 374.82,938.48 C375.960006,939.720006 377.849987,940.34 380.49,940.34 C382.890012,940.34 384.729994,939.600007 386.01,938.12 C387.290006,936.639993 387.93,934.580013 387.93,931.94 L387.93,912.2 L392.79,912.2 L392.79,944 L387.99,944 L387.99,940.94 L387.87,940.94 C387.669999,941.220001 387.370002,941.579998 386.97,942.02 C386.569998,942.460002 385.640007,943.049996 384.18,943.79 C382.719993,944.530004 381.130009,944.9 379.41,944.9 C375.889982,944.9 373.14001,943.90001 371.16,941.9 C369.17999,939.89999 368.19,936.90002 368.19,932.9 Z M424.01,934.22 L427.97,936.8 C426.769994,939.120012 425.060011,941.049992 422.84,942.59 C420.619989,944.130008 417.890016,944.9 414.65,944.9 C410.329978,944.9 406.790014,943.370015 404.03,940.31 C401.269986,937.249985 399.89,933.180025 399.89,928.1 C399.89,923.019975 401.239986,918.950015 403.94,915.89 C406.640014,912.829985 410.129979,911.3 414.41,911.3 C418.650021,911.3 422.089987,912.799985 424.73,915.8 C427.370013,918.800015 428.69,922.899974 428.69,928.1 L428.69,929.54 L404.81,929.54 C404.85,932.580015 405.699992,935.159989 407.36,937.28 C409.020008,939.400011 411.409984,940.46 414.53,940.46 C415.730006,940.46 416.849995,940.290002 417.89,939.95 C418.930005,939.609998 419.729997,939.270002 420.29,938.93 C420.850003,938.589998 421.439997,938.030004 422.06,937.25 C422.680003,936.469996 423.059999,935.960001 423.2,935.72 C423.340001,935.479999 423.609998,934.980004 424.01,934.22 Z M404.93,925.64 L423.83,925.64 C423.75,922.959987 422.950008,920.64001 421.43,918.68 C419.909992,916.71999 417.570016,915.74 414.41,915.74 C411.329985,915.74 408.990008,916.78999 407.39,918.89 C405.789992,920.990011 404.97,923.239988 404.93,925.64 Z" id="Milieu-Grotesque"></path>
        </g>
    </g>
</svg>