<?xml version="1.0" encoding="UTF-8"?>
<svg width="286px" height="117px" viewBox="0 0 286 117" version="1.1" xmlns="http://www.w3.org/2000/svg" xmlns:xlink="http://www.w3.org/1999/xlink">
    <!-- Generator: Sketch 41.2 (35397) - http://www.bohemiancoding.com/sketch -->
    <title>milleu</title>
    <desc>Created with Sketch.</desc>
    <defs></defs>
    <g id="Page-1" stroke="none" stroke-width="1" fill="none" fill-rule="evenodd">
        <g id="Desktop-HD" transform="translate(-149.000000, -845.000000)" fill="#3A3A3A">
            <path d="M211.86,892 L211.86,847.2 L220.756,847.2 L233.748,876.256 L233.876,876.256 L246.868,847.2 L255.828,847.2 L255.828,892 L247.38,892 L247.38,864.48 L247.252,864.48 L234.516,892 L233.108,892 L220.372,864.48 L220.244,864.48 L220.244,892 L211.86,892 Z M263.428,892 L263.428,858.08 L271.748,858.08 L271.748,892 L263.428,892 Z M263.428,853.152 L263.428,845.28 L271.748,845.28 L271.748,853.152 L263.428,853.152 Z M278.708,892 L278.708,845.28 L287.348,845.28 L287.348,892 L278.708,892 Z M294.308,892 L294.308,845.28 L302.948,845.28 L302.948,892 L294.308,892 Z M331.924,880.288 L337.748,885.408 C334.291983,890.442692 329.620029,892.96 323.732,892.96 C318.995976,892.96 315.134682,891.328016 312.148,888.064 C309.161318,884.799984 307.668,880.458694 307.668,875.04 C307.668,869.621306 309.150652,865.280016 312.116,862.016 C315.081348,858.751984 318.825311,857.12 323.348,857.12 C327.870689,857.12 331.593319,858.751984 334.516,862.016 C337.438681,865.280016 338.9,869.621306 338.9,875.04 L338.9,877.536 L316.116,877.536 C316.244001,880.13868 316.95866,882.133326 318.26,883.52 C319.56134,884.906674 321.342655,885.6 323.604,885.6 C325.52401,885.6 327.113327,885.120005 328.372,884.16 C329.630673,883.199995 330.814661,881.909341 331.924,880.288 Z M316.116,871.328 L330.836,871.328 C330.622666,869.151989 329.876006,867.456006 328.596,866.24 C327.315994,865.023994 325.566678,864.416 323.348,864.416 C321.29999,864.416 319.62534,865.077327 318.324,866.4 C317.02266,867.722673 316.286668,869.365324 316.116,871.328 Z M343.3,879.968 L343.3,858.08 L351.62,858.08 L351.62,879.072 C351.62,881.205344 352.025329,882.719996 352.836,883.616 C353.646671,884.512004 354.947991,884.96 356.74,884.96 C358.745343,884.96 360.36666,884.437339 361.604,883.392 C362.84134,882.346661 363.46,880.693345 363.46,878.432 L363.46,858.08 L371.78,858.08 L371.78,892 L363.844,892 L363.844,888.736 L363.716,888.736 C361.625323,891.552014 358.681352,892.96 354.884,892.96 C350.958647,892.96 348.046676,891.786678 346.148,889.44 C344.249324,887.093322 343.3,883.93602 343.3,879.968 Z M168.716,947.96 C162.955971,947.96 158.273351,945.965353 154.668,941.976 C151.062649,937.986647 149.26,931.96004 149.26,923.896 C149.26,916.813298 151.169314,911.266687 154.988,907.256 C158.806686,903.245313 163.361307,901.24 168.652,901.24 C173.174689,901.24 177.025317,902.60532 180.204,905.336 C183.382683,908.06668 185.291997,911.778643 185.932,916.472 L177.292,917.88 C176.225328,912.119971 173.36669,909.24 168.716,909.24 C165.771985,909.24 163.27601,910.519987 161.228,913.08 C159.17999,915.640013 158.156,919.24531 158.156,923.896 C158.156,929.357361 159.14799,933.399987 161.132,936.024 C163.11601,938.648013 165.643985,939.96 168.716,939.96 C171.489347,939.96 173.675992,939.170675 175.276,937.592 C176.876008,936.013325 177.676,933.794681 177.676,930.936 L169.356,930.936 L169.356,923.576 L185.932,923.576 L185.932,929.528 C185.932,935.202695 184.332016,939.693317 181.132,943 C177.931984,946.306683 173.793359,947.96 168.716,947.96 Z M190.972,947 L190.972,913.08 L198.844,913.08 L198.844,916.664 L198.972,916.664 C199.612003,915.383994 200.561327,914.360004 201.82,913.592 C203.078673,912.823996 204.454659,912.44 205.948,912.44 C207.014672,912.44 208.038662,912.653331 209.02,913.08 L207.74,921.144 C206.801329,920.802665 205.926671,920.632 205.116,920.632 C201.233314,920.632 199.292,923.213308 199.292,928.376 L199.292,947 L190.972,947 Z M224.812,940.472 C227.201345,940.472 229.07866,939.565342 230.444,937.752 C231.80934,935.938658 232.492,933.368017 232.492,930.04 C232.492,926.711983 231.798674,924.141342 230.412,922.328 C229.025326,920.514658 227.158678,919.608 224.812,919.608 C222.465322,919.608 220.598674,920.503991 219.212,922.296 C217.825326,924.088009 217.132,926.669316 217.132,930.04 C217.132,933.410684 217.81466,935.991991 219.18,937.784 C220.54534,939.576009 222.422655,940.472 224.812,940.472 Z M224.812,947.96 C220.203977,947.96 216.406682,946.381349 213.42,943.224 C210.433318,940.066651 208.94,935.672028 208.94,930.04 C208.94,924.493306 210.475985,920.120016 213.548,916.92 C216.620015,913.719984 220.374644,912.12 224.812,912.12 C229.249356,912.12 233.003985,913.719984 236.076,916.92 C239.148015,920.120016 240.684,924.493306 240.684,930.04 C240.684,935.672028 239.190682,940.066651 236.204,943.224 C233.217318,946.381349 229.420023,947.96 224.812,947.96 Z M247.132,934.904 L247.132,920.12 L241.884,920.12 L241.884,913.08 L247.324,913.08 L247.324,904.76 L255.196,904.76 L255.196,913.08 L263.772,913.08 L263.772,920.12 L255.324,920.12 L255.324,934.136 C255.324,935.928009 255.622664,937.186663 256.22,937.912 C256.817336,938.637337 258.033324,939 259.868,939 L262.62,939 L262.62,947 L259.1,947 C254.534644,947 251.398675,946.04001 249.692,944.12 C247.985325,942.19999 247.132,939.128021 247.132,934.904 Z M290.188,935.288 L296.012,940.408 C292.555983,945.442692 287.884029,947.96 281.996,947.96 C277.259976,947.96 273.398682,946.328016 270.412,943.064 C267.425318,939.799984 265.932,935.458694 265.932,930.04 C265.932,924.621306 267.414652,920.280016 270.38,917.016 C273.345348,913.751984 277.089311,912.12 281.612,912.12 C286.134689,912.12 289.857319,913.751984 292.78,917.016 C295.702681,920.280016 297.164,924.621306 297.164,930.04 L297.164,932.536 L274.38,932.536 C274.508001,935.13868 275.22266,937.133326 276.524,938.52 C277.82534,939.906674 279.606655,940.6 281.868,940.6 C283.78801,940.6 285.377327,940.120005 286.636,939.16 C287.894673,938.199995 289.078661,936.909341 290.188,935.288 Z M274.38,926.328 L289.1,926.328 C288.886666,924.151989 288.140006,922.456006 286.86,921.24 C285.579994,920.023994 283.830678,919.416 281.612,919.416 C279.56399,919.416 277.88934,920.077327 276.588,921.4 C275.28666,922.722673 274.550668,924.365324 274.38,926.328 Z M299.324,935.8 L306.812,933.88 C307.409336,938.616024 309.947978,940.984 314.428,940.984 C316.47601,940.984 318.107994,940.653337 319.324,939.992 C320.540006,939.330663 321.148,938.402673 321.148,937.208 C321.148,936.226662 320.678671,935.490669 319.74,935 C318.801329,934.509331 316.838682,933.837338 313.852,932.984 C313.041329,932.770666 312.422669,932.600001 311.996,932.472 C308.070647,931.362661 305.190676,930.050674 303.356,928.536 C301.521324,927.021326 300.604,925.005346 300.604,922.488 C300.604,919.671986 301.745322,917.24001 304.028,915.192 C306.310678,913.14399 309.43598,912.12 313.404,912.12 C320.998705,912.12 325.75599,915.447967 327.676,922.104 L320.764,924.216 C320.166664,922.594659 319.324005,921.314671 318.236,920.376 C317.147995,919.437329 315.558677,918.968 313.468,918.968 C311.846659,918.968 310.556005,919.27733 309.596,919.896 C308.635995,920.51467 308.156,921.250662 308.156,922.104 C308.156,923.042671 308.721328,923.778664 309.852,924.312 C310.982672,924.845336 313.809311,925.751994 318.332,927.032 C322.30002,928.098672 324.99866,929.453325 326.428,931.096 C327.85734,932.738675 328.572,934.839987 328.572,937.4 C328.572,940.13068 327.388012,942.573323 325.02,944.728 C322.651988,946.882677 319.228022,947.96 314.748,947.96 C310.054643,947.96 306.438679,946.776012 303.9,944.408 C301.361321,942.039988 299.836003,939.170684 299.324,935.8 Z M354.668,933.496 L354.668,926.52 C354.668,924.59999 354.006673,922.968007 352.684,921.624 C351.361327,920.279993 349.590678,919.608 347.372,919.608 C344.897321,919.608 342.892008,920.503991 341.356,922.296 C339.819992,924.088009 339.052,926.669316 339.052,930.04 C339.052,933.410684 339.830659,935.991991 341.388,937.784 C342.945341,939.576009 344.939988,940.472 347.372,940.472 C349.590678,940.472 351.361327,939.800007 352.684,938.456 C354.006673,937.111993 354.668,935.458676 354.668,933.496 Z M354.668,961.4 L354.668,943.736 L354.54,943.736 L354.22,944.216 C354.091999,944.408001 353.782669,944.738664 353.292,945.208 C352.801331,945.677336 352.24667,946.103998 351.628,946.488 C351.00933,946.872002 350.166672,947.213332 349.1,947.512 C348.033328,947.810668 346.88134,947.96 345.644,947.96 C341.505313,947.96 337.985348,946.360016 335.084,943.16 C332.182652,939.959984 330.732,935.586694 330.732,930.04 C330.732,924.535972 332.235985,920.173349 335.244,916.952 C338.252015,913.730651 341.761313,912.12 345.772,912.12 C347.00934,912.12 348.171995,912.269332 349.26,912.568 C350.348005,912.866668 351.222663,913.218665 351.884,913.624 C352.545337,914.029335 353.121331,914.434665 353.612,914.84 C354.102669,915.245335 354.433332,915.597332 354.604,915.896 L354.924,916.344 L355.052,916.344 L355.052,913.08 L362.988,913.08 L362.988,961.4 L354.668,961.4 Z M369.628,934.968 L369.628,913.08 L377.948,913.08 L377.948,934.072 C377.948,936.205344 378.353329,937.719996 379.164,938.616 C379.974671,939.512004 381.275991,939.96 383.068,939.96 C385.073343,939.96 386.69466,939.437339 387.932,938.392 C389.16934,937.346661 389.788,935.693345 389.788,933.432 L389.788,913.08 L398.108,913.08 L398.108,947 L390.172,947 L390.172,943.736 L390.044,943.736 C387.953323,946.552014 385.009352,947.96 381.212,947.96 C377.286647,947.96 374.374676,946.786678 372.476,944.44 C370.577324,942.093322 369.628,938.93602 369.628,934.968 Z M427.084,935.288 L432.908,940.408 C429.451983,945.442692 424.780029,947.96 418.892,947.96 C414.155976,947.96 410.294682,946.328016 407.308,943.064 C404.321318,939.799984 402.828,935.458694 402.828,930.04 C402.828,924.621306 404.310652,920.280016 407.276,917.016 C410.241348,913.751984 413.985311,912.12 418.508,912.12 C423.030689,912.12 426.753319,913.751984 429.676,917.016 C432.598681,920.280016 434.06,924.621306 434.06,930.04 L434.06,932.536 L411.276,932.536 C411.404001,935.13868 412.11866,937.133326 413.42,938.52 C414.72134,939.906674 416.502655,940.6 418.764,940.6 C420.68401,940.6 422.273327,940.120005 423.532,939.16 C424.790673,938.199995 425.974661,936.909341 427.084,935.288 Z M411.276,926.328 L425.996,926.328 C425.782666,924.151989 425.036006,922.456006 423.756,921.24 C422.475994,920.023994 420.726678,919.416 418.508,919.416 C416.45999,919.416 414.78534,920.077327 413.484,921.4 C412.18266,922.722673 411.446668,924.365324 411.276,926.328 Z" id="milleu"></path>
        </g>
    </g>
</svg>