<?xml version="1.0" encoding="UTF-8"?>
<svg width="262px" height="23px" viewBox="0 0 262 23" version="1.1" xmlns="http://www.w3.org/2000/svg" xmlns:xlink="http://www.w3.org/1999/xlink">
    <!-- Generator: Sketch 41.2 (35397) - http://www.bohemiancoding.com/sketch -->
    <title>mxb</title>
    <desc>Created with Sketch.</desc>
    <defs></defs>
    <g id="Page-1" stroke="none" stroke-width="1" fill="none" fill-rule="evenodd">
        <g id="Desktop-HD" transform="translate(-1019.000000, -1534.000000)" fill="#3A3A3A">
            <path d="M1019.41,1534.58 L1024.69,1534.58 L1030.6,1551.35 L1030.66,1551.35 L1036.42,1534.58 L1041.64,1534.58 L1041.64,1556 L1038.07,1556 L1038.07,1539.47 L1038.01,1539.47 L1032.07,1556 L1028.98,1556 L1023.04,1539.47 L1022.98,1539.47 L1022.98,1556 L1019.41,1556 L1019.41,1534.58 Z M1056.31,1546.88 C1056.27,1546.34 1056.155,1545.82 1055.965,1545.32 C1055.775,1544.82 1055.515,1544.385 1055.185,1544.015 C1054.855,1543.645 1054.455,1543.345 1053.985,1543.115 C1053.515,1542.885 1052.99,1542.77 1052.41,1542.77 C1051.81,1542.77 1051.265,1542.875 1050.775,1543.085 C1050.285,1543.295 1049.865,1543.585 1049.515,1543.955 C1049.165,1544.325 1048.885,1544.76 1048.675,1545.26 C1048.465,1545.76 1048.35,1546.3 1048.33,1546.88 L1056.31,1546.88 Z M1048.33,1549.13 C1048.33,1549.73 1048.415,1550.31 1048.585,1550.87 C1048.755,1551.43 1049.01,1551.92 1049.35,1552.34 C1049.69,1552.76 1050.12,1553.095 1050.64,1553.345 C1051.16,1553.595 1051.78,1553.72 1052.5,1553.72 C1053.50001,1553.72 1054.305,1553.505 1054.915,1553.075 C1055.525,1552.645 1055.98,1552 1056.28,1551.14 L1059.52,1551.14 C1059.34,1551.98 1059.03,1552.73 1058.59,1553.39 C1058.15,1554.05 1057.62,1554.605 1057,1555.055 C1056.38,1555.505 1055.685,1555.845 1054.915,1556.075 C1054.145,1556.305 1053.34,1556.42 1052.5,1556.42 C1051.27999,1556.42 1050.2,1556.22 1049.26,1555.82 C1048.32,1555.42 1047.525,1554.86 1046.875,1554.14 C1046.225,1553.42 1045.735,1552.56001 1045.405,1551.56 C1045.075,1550.56 1044.91,1549.46001 1044.91,1548.26 C1044.91,1547.15999 1045.085,1546.115 1045.435,1545.125 C1045.785,1544.135 1046.285,1543.265 1046.935,1542.515 C1047.585,1541.765 1048.37,1541.17 1049.29,1540.73 C1050.21,1540.29 1051.24999,1540.07 1052.41,1540.07 C1053.63001,1540.07 1054.725,1540.325 1055.695,1540.835 C1056.665,1541.345 1057.47,1542.02 1058.11,1542.86 C1058.75,1543.7 1059.215,1544.66499 1059.505,1545.755 C1059.795,1546.84501 1059.87,1547.96999 1059.73,1549.13 L1048.33,1549.13 Z M1076.95,1556 L1073.71,1556 L1073.71,1553.9 L1073.65,1553.9 C1073.19,1554.8 1072.52,1555.445 1071.64,1555.835 C1070.76,1556.225 1069.83,1556.42 1068.85,1556.42 C1067.62999,1556.42 1066.565,1556.205 1065.655,1555.775 C1064.745,1555.345 1063.99,1554.76 1063.39,1554.02 C1062.79,1553.28 1062.34,1552.40501 1062.04,1551.395 C1061.74,1550.38499 1061.59,1549.30001 1061.59,1548.14 C1061.59,1546.73999 1061.78,1545.53001 1062.16,1544.51 C1062.54,1543.48999 1063.045,1542.65 1063.675,1541.99 C1064.305,1541.33 1065.025,1540.845 1065.835,1540.535 C1066.645,1540.225 1067.47,1540.07 1068.31,1540.07 C1068.79,1540.07 1069.28,1540.115 1069.78,1540.205 C1070.28,1540.295 1070.76,1540.44 1071.22,1540.64 C1071.68,1540.84 1072.105,1541.095 1072.495,1541.405 C1072.885,1541.715 1073.21,1542.08 1073.47,1542.5 L1073.53,1542.5 L1073.53,1534.58 L1076.95,1534.58 L1076.95,1556 Z M1065.01,1548.41 C1065.01,1549.07 1065.095,1549.72 1065.265,1550.36 C1065.435,1551 1065.695,1551.57 1066.045,1552.07 C1066.395,1552.57 1066.84,1552.97 1067.38,1553.27 C1067.92,1553.57 1068.56,1553.72 1069.3,1553.72 C1070.06,1553.72 1070.715,1553.56 1071.265,1553.24 C1071.815,1552.92 1072.265,1552.5 1072.615,1551.98 C1072.965,1551.46 1073.225,1550.875 1073.395,1550.225 C1073.565,1549.575 1073.65,1548.91 1073.65,1548.23 C1073.65,1546.50999 1073.265,1545.17 1072.495,1544.21 C1071.725,1543.25 1070.68001,1542.77 1069.36,1542.77 C1068.56,1542.77 1067.885,1542.935 1067.335,1543.265 C1066.785,1543.595 1066.335,1544.025 1065.985,1544.555 C1065.635,1545.085 1065.385,1545.685 1065.235,1546.355 C1065.085,1547.025 1065.01,1547.71 1065.01,1548.41 Z M1080.76,1534.58 L1084.18,1534.58 L1084.18,1537.82 L1080.76,1537.82 L1080.76,1534.58 Z M1080.76,1540.49 L1084.18,1540.49 L1084.18,1556 L1080.76,1556 L1080.76,1540.49 Z M1101.52,1556 L1098.16,1556 L1098.16,1553.84 L1098.1,1553.84 C1097.68,1554.62 1097.055,1555.245 1096.225,1555.715 C1095.395,1556.185 1094.55,1556.42 1093.69,1556.42 C1091.64999,1556.42 1090.175,1555.91501 1089.265,1554.905 C1088.355,1553.89499 1087.9,1552.37001 1087.9,1550.33 L1087.9,1540.49 L1091.32,1540.49 L1091.32,1550 C1091.32,1551.36001 1091.58,1552.32 1092.1,1552.88 C1092.62,1553.44 1093.35,1553.72 1094.29,1553.72 C1095.01,1553.72 1095.61,1553.61 1096.09,1553.39 C1096.57,1553.17 1096.96,1552.875 1097.26,1552.505 C1097.56,1552.135 1097.775,1551.69 1097.905,1551.17 C1098.035,1550.65 1098.1,1550.09 1098.1,1549.49 L1098.1,1540.49 L1101.52,1540.49 L1101.52,1556 Z M1105.12,1540.49 L1108.36,1540.49 L1108.36,1542.65 L1108.45,1542.65 C1108.71,1542.27 1108.99,1541.92 1109.29,1541.6 C1109.59,1541.28 1109.925,1541.01 1110.295,1540.79 C1110.665,1540.57 1111.09,1540.395 1111.57,1540.265 C1112.05,1540.135 1112.6,1540.07 1113.22,1540.07 C1114.16,1540.07 1115.035,1540.28 1115.845,1540.7 C1116.655,1541.12 1117.23,1541.77 1117.57,1542.65 C1118.15,1541.85 1118.82,1541.22 1119.58,1540.76 C1120.34,1540.3 1121.28999,1540.07 1122.43,1540.07 C1124.07001,1540.07 1125.345,1540.47 1126.255,1541.27 C1127.165,1542.07 1127.62,1543.40999 1127.62,1545.29 L1127.62,1556 L1124.2,1556 L1124.2,1546.94 C1124.2,1546.32 1124.18,1545.755 1124.14,1545.245 C1124.1,1544.735 1123.985,1544.295 1123.795,1543.925 C1123.605,1543.555 1123.32,1543.27 1122.94,1543.07 C1122.56,1542.87 1122.04,1542.77 1121.38,1542.77 C1120.21999,1542.77 1119.38,1543.13 1118.86,1543.85 C1118.34,1544.57 1118.08,1545.58999 1118.08,1546.91 L1118.08,1556 L1114.66,1556 L1114.66,1546.04 C1114.66,1544.95999 1114.465,1544.145 1114.075,1543.595 C1113.685,1543.045 1112.97001,1542.77 1111.93,1542.77 C1111.49,1542.77 1111.065,1542.86 1110.655,1543.04 C1110.245,1543.22 1109.885,1543.48 1109.575,1543.82 C1109.265,1544.16 1109.015,1544.58 1108.825,1545.08 C1108.635,1545.58 1108.54,1546.15 1108.54,1546.79 L1108.54,1556 L1105.12,1556 L1105.12,1540.49 Z M1140.04,1534.58 L1155.46,1534.58 L1155.46,1537.82 L1143.79,1537.82 L1143.79,1543.43 L1154.59,1543.43 L1154.59,1546.49 L1143.79,1546.49 L1143.79,1552.76 L1155.67,1552.76 L1155.67,1556 L1140.04,1556 L1140.04,1534.58 Z M1162.63,1547.84 L1157.26,1540.49 L1161.4,1540.49 L1164.64,1545.26 L1168.03,1540.49 L1171.99,1540.49 L1166.71,1547.66 L1172.65,1556 L1168.54,1556 L1164.61,1550.27 L1160.8,1556 L1156.78,1556 L1162.63,1547.84 Z M1173.01,1540.49 L1175.59,1540.49 L1175.59,1535.84 L1179.01,1535.84 L1179.01,1540.49 L1182.1,1540.49 L1182.1,1543.04 L1179.01,1543.04 L1179.01,1551.32 C1179.01,1551.68 1179.025,1551.99 1179.055,1552.25 C1179.085,1552.51 1179.155,1552.73 1179.265,1552.91 C1179.375,1553.09 1179.54,1553.225 1179.76,1553.315 C1179.98,1553.405 1180.28,1553.45 1180.66,1553.45 C1180.9,1553.45 1181.14,1553.445 1181.38,1553.435 C1181.62,1553.425 1181.86,1553.39 1182.1,1553.33 L1182.1,1555.97 C1181.72,1556.01 1181.35,1556.05 1180.99,1556.09 C1180.63,1556.13 1180.26,1556.15 1179.88,1556.15 C1178.98,1556.15 1178.255,1556.065 1177.705,1555.895 C1177.155,1555.725 1176.725,1555.475 1176.415,1555.145 C1176.105,1554.815 1175.895,1554.4 1175.785,1553.9 C1175.675,1553.4 1175.61,1552.83 1175.59,1552.19 L1175.59,1543.04 L1173.01,1543.04 L1173.01,1540.49 Z M1184.56,1540.49 L1187.77,1540.49 L1187.77,1543.49 L1187.83,1543.49 C1187.93,1543.07 1188.125,1542.66 1188.415,1542.26 C1188.705,1541.86 1189.055,1541.495 1189.465,1541.165 C1189.875,1540.835 1190.33,1540.57 1190.83,1540.37 C1191.33,1540.17 1191.84,1540.07 1192.36,1540.07 C1192.76,1540.07 1193.035,1540.08 1193.185,1540.1 C1193.335,1540.12 1193.49,1540.14 1193.65,1540.16 L1193.65,1543.46 C1193.41,1543.42 1193.165,1543.385 1192.915,1543.355 C1192.665,1543.325 1192.42,1543.31 1192.18,1543.31 C1191.6,1543.31 1191.055,1543.425 1190.545,1543.655 C1190.035,1543.885 1189.59,1544.225 1189.21,1544.675 C1188.83,1545.125 1188.53,1545.68 1188.31,1546.34 C1188.09,1547 1187.98,1547.76 1187.98,1548.62 L1187.98,1556 L1184.56,1556 L1184.56,1540.49 Z M1208.11,1552.55 C1208.11,1552.97 1208.165,1553.27 1208.275,1553.45 C1208.385,1553.63 1208.6,1553.72 1208.92,1553.72 L1209.28,1553.72 C1209.42,1553.72 1209.58,1553.7 1209.76,1553.66 L1209.76,1556.03 C1209.64,1556.07 1209.485,1556.115 1209.295,1556.165 C1209.105,1556.215 1208.91,1556.26 1208.71,1556.3 C1208.51,1556.34 1208.31,1556.37 1208.11,1556.39 C1207.91,1556.41 1207.74,1556.42 1207.6,1556.42 C1206.9,1556.42 1206.32,1556.28 1205.86,1556 C1205.4,1555.72 1205.1,1555.23 1204.96,1554.53 C1204.28,1555.19 1203.445,1555.67 1202.455,1555.97 C1201.465,1556.27 1200.51,1556.42 1199.59,1556.42 C1198.89,1556.42 1198.22,1556.325 1197.58,1556.135 C1196.94,1555.945 1196.375,1555.665 1195.885,1555.295 C1195.395,1554.925 1195.005,1554.455 1194.715,1553.885 C1194.425,1553.315 1194.28,1552.65 1194.28,1551.89 C1194.28,1550.93 1194.455,1550.15 1194.805,1549.55 C1195.155,1548.95 1195.615,1548.48 1196.185,1548.14 C1196.755,1547.8 1197.395,1547.555 1198.105,1547.405 C1198.815,1547.255 1199.53,1547.14 1200.25,1547.06 C1200.87,1546.94 1201.46,1546.855 1202.02,1546.805 C1202.58,1546.755 1203.075,1546.67 1203.505,1546.55 C1203.935,1546.43 1204.275,1546.245 1204.525,1545.995 C1204.775,1545.745 1204.9,1545.37 1204.9,1544.87 C1204.9,1544.43 1204.795,1544.07 1204.585,1543.79 C1204.375,1543.51 1204.115,1543.295 1203.805,1543.145 C1203.495,1542.995 1203.15,1542.895 1202.77,1542.845 C1202.39,1542.795 1202.03,1542.77 1201.69,1542.77 C1200.73,1542.77 1199.94,1542.97 1199.32,1543.37 C1198.7,1543.77 1198.35,1544.39 1198.27,1545.23 L1194.85,1545.23 C1194.91,1544.22999 1195.15,1543.4 1195.57,1542.74 C1195.99,1542.08 1196.525,1541.55 1197.175,1541.15 C1197.825,1540.75 1198.56,1540.47 1199.38,1540.31 C1200.2,1540.15 1201.04,1540.07 1201.9,1540.07 C1202.66,1540.07 1203.41,1540.15 1204.15,1540.31 C1204.89,1540.47 1205.555,1540.73 1206.145,1541.09 C1206.735,1541.45 1207.21,1541.915 1207.57,1542.485 C1207.93,1543.055 1208.11,1543.75 1208.11,1544.57 L1208.11,1552.55 Z M1204.69,1548.23 C1204.17,1548.57 1203.53,1548.775 1202.77,1548.845 C1202.01,1548.915 1201.25,1549.02 1200.49,1549.16 C1200.13,1549.22 1199.78,1549.305 1199.44,1549.415 C1199.1,1549.525 1198.8,1549.675 1198.54,1549.865 C1198.28,1550.055 1198.075,1550.305 1197.925,1550.615 C1197.775,1550.925 1197.7,1551.3 1197.7,1551.74 C1197.7,1552.12 1197.81,1552.44 1198.03,1552.7 C1198.25,1552.96 1198.515,1553.165 1198.825,1553.315 C1199.135,1553.465 1199.475,1553.57 1199.845,1553.63 C1200.215,1553.69 1200.55,1553.72 1200.85,1553.72 C1201.23,1553.72 1201.64,1553.67 1202.08,1553.57 C1202.52,1553.47 1202.935,1553.3 1203.325,1553.06 C1203.715,1552.82 1204.04,1552.515 1204.3,1552.145 C1204.56,1551.775 1204.69,1551.32 1204.69,1550.78 L1204.69,1548.23 Z M1224.37,1543.55 L1230.49,1543.55 C1231.39,1543.55 1232.14,1543.295 1232.74,1542.785 C1233.34,1542.275 1233.64,1541.54 1233.64,1540.58 C1233.64,1539.49999 1233.37,1538.74 1232.83,1538.3 C1232.29,1537.86 1231.51001,1537.64 1230.49,1537.64 L1224.37,1537.64 L1224.37,1543.55 Z M1220.62,1534.58 L1231.03,1534.58 C1232.95001,1534.58 1234.48999,1535.02 1235.65,1535.9 C1236.81001,1536.78 1237.39,1538.10999 1237.39,1539.89 C1237.39,1540.97001 1237.125,1541.895 1236.595,1542.665 C1236.065,1543.435 1235.31,1544.03 1234.33,1544.45 L1234.33,1544.51 C1235.65001,1544.79 1236.65,1545.415 1237.33,1546.385 C1238.01,1547.355 1238.35,1548.56999 1238.35,1550.03 C1238.35,1550.87 1238.2,1551.655 1237.9,1552.385 C1237.6,1553.115 1237.13,1553.745 1236.49,1554.275 C1235.85,1554.805 1235.03001,1555.225 1234.03,1555.535 C1233.02999,1555.845 1231.84001,1556 1230.46,1556 L1220.62,1556 L1220.62,1534.58 Z M1224.37,1552.94 L1231,1552.94 C1232.14001,1552.94 1233.025,1552.645 1233.655,1552.055 C1234.285,1551.465 1234.6,1550.63001 1234.6,1549.55 C1234.6,1548.48999 1234.285,1547.675 1233.655,1547.105 C1233.025,1546.535 1232.14001,1546.25 1231,1546.25 L1224.37,1546.25 L1224.37,1552.94 Z M1248.37,1556.42 C1247.12999,1556.42 1246.025,1556.215 1245.055,1555.805 C1244.085,1555.395 1243.265,1554.83 1242.595,1554.11 C1241.925,1553.39 1241.415,1552.53001 1241.065,1551.53 C1240.715,1550.53 1240.54,1549.43001 1240.54,1548.23 C1240.54,1547.04999 1240.715,1545.96 1241.065,1544.96 C1241.415,1543.95999 1241.925,1543.1 1242.595,1542.38 C1243.265,1541.66 1244.085,1541.095 1245.055,1540.685 C1246.025,1540.275 1247.12999,1540.07 1248.37,1540.07 C1249.61001,1540.07 1250.715,1540.275 1251.685,1540.685 C1252.655,1541.095 1253.475,1541.66 1254.145,1542.38 C1254.815,1543.1 1255.325,1543.95999 1255.675,1544.96 C1256.025,1545.96 1256.2,1547.04999 1256.2,1548.23 C1256.2,1549.43001 1256.025,1550.53 1255.675,1551.53 C1255.325,1552.53001 1254.815,1553.39 1254.145,1554.11 C1253.475,1554.83 1252.655,1555.395 1251.685,1555.805 C1250.715,1556.215 1249.61001,1556.42 1248.37,1556.42 Z M1248.37,1553.72 C1249.13,1553.72 1249.79,1553.56 1250.35,1553.24 C1250.91,1552.92 1251.37,1552.5 1251.73,1551.98 C1252.09,1551.46 1252.355,1550.875 1252.525,1550.225 C1252.695,1549.575 1252.78,1548.91 1252.78,1548.23 C1252.78,1547.57 1252.695,1546.91 1252.525,1546.25 C1252.355,1545.59 1252.09,1545.005 1251.73,1544.495 C1251.37,1543.985 1250.91,1543.57 1250.35,1543.25 C1249.79,1542.93 1249.13,1542.77 1248.37,1542.77 C1247.61,1542.77 1246.95,1542.93 1246.39,1543.25 C1245.83,1543.57 1245.37,1543.985 1245.01,1544.495 C1244.65,1545.005 1244.385,1545.59 1244.215,1546.25 C1244.045,1546.91 1243.96,1547.57 1243.96,1548.23 C1243.96,1548.91 1244.045,1549.575 1244.215,1550.225 C1244.385,1550.875 1244.65,1551.46 1245.01,1551.98 C1245.37,1552.5 1245.83,1552.92 1246.39,1553.24 C1246.95,1553.56 1247.61,1553.72 1248.37,1553.72 Z M1259.14,1534.58 L1262.56,1534.58 L1262.56,1556 L1259.14,1556 L1259.14,1534.58 Z M1280.89,1556 L1277.65,1556 L1277.65,1553.9 L1277.59,1553.9 C1277.13,1554.8 1276.46,1555.445 1275.58,1555.835 C1274.7,1556.225 1273.77,1556.42 1272.79,1556.42 C1271.56999,1556.42 1270.505,1556.205 1269.595,1555.775 C1268.685,1555.345 1267.93,1554.76 1267.33,1554.02 C1266.73,1553.28 1266.28,1552.40501 1265.98,1551.395 C1265.68,1550.38499 1265.53,1549.30001 1265.53,1548.14 C1265.53,1546.73999 1265.72,1545.53001 1266.1,1544.51 C1266.48,1543.48999 1266.985,1542.65 1267.615,1541.99 C1268.245,1541.33 1268.965,1540.845 1269.775,1540.535 C1270.585,1540.225 1271.41,1540.07 1272.25,1540.07 C1272.73,1540.07 1273.22,1540.115 1273.72,1540.205 C1274.22,1540.295 1274.7,1540.44 1275.16,1540.64 C1275.62,1540.84 1276.045,1541.095 1276.435,1541.405 C1276.825,1541.715 1277.15,1542.08 1277.41,1542.5 L1277.47,1542.5 L1277.47,1534.58 L1280.89,1534.58 L1280.89,1556 Z M1268.95,1548.41 C1268.95,1549.07 1269.035,1549.72 1269.205,1550.36 C1269.375,1551 1269.635,1551.57 1269.985,1552.07 C1270.335,1552.57 1270.78,1552.97 1271.32,1553.27 C1271.86,1553.57 1272.5,1553.72 1273.24,1553.72 C1274,1553.72 1274.655,1553.56 1275.205,1553.24 C1275.755,1552.92 1276.205,1552.5 1276.555,1551.98 C1276.905,1551.46 1277.165,1550.875 1277.335,1550.225 C1277.505,1549.575 1277.59,1548.91 1277.59,1548.23 C1277.59,1546.50999 1277.205,1545.17 1276.435,1544.21 C1275.665,1543.25 1274.62001,1542.77 1273.3,1542.77 C1272.5,1542.77 1271.825,1542.935 1271.275,1543.265 C1270.725,1543.595 1270.275,1544.025 1269.925,1544.555 C1269.575,1545.085 1269.325,1545.685 1269.175,1546.355 C1269.025,1547.025 1268.95,1547.71 1268.95,1548.41 Z" id="mxb"></path>
        </g>
    </g>
</svg>