<?xml version="1.0" encoding="UTF-8"?>
<svg width="207px" height="56px" viewBox="0 0 207 56" version="1.1" xmlns="http://www.w3.org/2000/svg" xmlns:xlink="http://www.w3.org/1999/xlink">
    <!-- Generator: Sketch 41.2 (35397) - http://www.bohemiancoding.com/sketch -->
    <title>Optimo</title>
    <desc>Created with Sketch.</desc>
    <defs></defs>
    <g id="Page-1" stroke="none" stroke-width="1" fill="none" fill-rule="evenodd">
        <g id="Desktop-HD" transform="translate(-618.000000, -874.000000)" fill="#3A3A3A">
            <path d="M618.921875,897.25 C618.921875,889.791629 620.60415,884.140644 623.96875,880.296875 C627.33335,876.453106 632.109344,874.53125 638.296875,874.53125 C644.484406,874.53125 649.265608,876.453106 652.640625,880.296875 C656.015642,884.140644 657.703125,889.791629 657.703125,897.25 C657.703125,904.708371 656.015642,910.359356 652.640625,914.203125 C649.265608,918.046894 644.484406,919.96875 638.296875,919.96875 C632.109344,919.96875 627.33335,918.046894 623.96875,914.203125 C620.60415,910.359356 618.921875,904.708371 618.921875,897.25 Z M627.859375,903.96875 C627.859375,905.427091 628.140622,906.708328 628.703125,907.8125 C629.265628,908.916672 630.01562,909.854163 630.953125,910.625 C631.89063,911.395837 632.984369,911.968748 634.234375,912.34375 C635.484381,912.718752 636.838534,912.90625 638.296875,912.90625 C639.755216,912.90625 641.114577,912.718752 642.375,912.34375 C643.635423,911.968748 644.73437,911.395837 645.671875,910.625 C646.60938,909.854163 647.354164,908.911464 647.90625,907.796875 C648.458336,906.682286 648.734375,905.406257 648.734375,903.96875 L648.734375,890.53125 C648.734375,889.072909 648.458336,887.791672 647.90625,886.6875 C647.354164,885.583328 646.60938,884.645837 645.671875,883.875 C644.73437,883.104163 643.635423,882.526044 642.375,882.140625 C641.114577,881.755206 639.755216,881.5625 638.296875,881.5625 C636.838534,881.5625 635.484381,881.755206 634.234375,882.140625 C632.984369,882.526044 631.89063,883.104163 630.953125,883.875 C630.01562,884.645837 629.265628,885.583328 628.703125,886.6875 C628.140622,887.791672 627.859375,889.072909 627.859375,890.53125 L627.859375,903.96875 Z M664.140625,929.875 L664.140625,886.375 L672.140625,886.375 L672.140625,890.78125 C673.161463,889.156242 674.458325,887.885421 676.03125,886.96875 C677.604175,886.052079 679.484364,885.59375 681.671875,885.59375 C683.838552,885.59375 685.734367,886.041662 687.359375,886.9375 C688.984383,887.833338 690.32812,889.046867 691.390625,890.578125 C692.45313,892.109383 693.239581,893.921865 693.75,896.015625 C694.260419,898.109385 694.515625,900.333322 694.515625,902.6875 C694.515625,905.083345 694.260419,907.31249 693.75,909.375 C693.239581,911.43751 692.45313,913.239576 691.390625,914.78125 C690.32812,916.322924 688.984383,917.541662 687.359375,918.4375 C685.734367,919.333338 683.838552,919.78125 681.671875,919.78125 C679.505198,919.78125 677.630216,919.322921 676.046875,918.40625 C674.463534,917.489579 673.161463,916.218758 672.140625,914.59375 L672.140625,929.875 L664.140625,929.875 Z M672.140625,905.125 C672.140625,907.687513 672.723952,909.734367 673.890625,911.265625 C675.057298,912.796883 676.921862,913.5625 679.484375,913.5625 C681.567719,913.5625 683.208327,912.994797 684.40625,911.859375 C685.604173,910.723953 686.203125,909.197926 686.203125,907.28125 L686.203125,898.0625 C686.203125,896.145824 685.609381,894.625006 684.421875,893.5 C683.234369,892.374994 681.588552,891.8125 679.484375,891.8125 C676.921862,891.8125 675.057298,892.578117 673.890625,894.109375 C672.723952,895.640633 672.140625,897.687487 672.140625,900.25 L672.140625,905.125 Z M697.671875,892.5625 L697.671875,886.375 L704.140625,886.375 L704.140625,875.46875 L712.140625,875.46875 L712.140625,886.375 L720.265625,886.375 L720.265625,892.5625 L712.140625,892.5625 L712.140625,912.78125 L720.265625,912.78125 L720.265625,919 L704.140625,919 L704.140625,892.5625 L697.671875,892.5625 Z M725.765625,882.59375 L725.765625,875.46875 L734.015625,875.46875 L734.015625,882.59375 L725.765625,882.59375 Z M725.890625,919 L725.890625,886.375 L733.890625,886.375 L733.890625,919 L725.890625,919 Z M741.734375,919 L741.734375,886.375 L749.734375,886.375 L749.734375,891.09375 C750.67188,889.343741 751.864576,887.989588 753.3125,887.03125 C754.760424,886.072912 756.567698,885.59375 758.734375,885.59375 C761.088553,885.59375 763.020826,886.119786 764.53125,887.171875 C766.041674,888.223964 767.161455,889.729157 767.890625,891.6875 C770.015636,887.62498 773.328102,885.59375 777.828125,885.59375 C781.161475,885.59375 783.666658,886.661448 785.34375,888.796875 C787.020842,890.932302 787.859375,893.874981 787.859375,897.625 L787.859375,919 L779.859375,919 L779.859375,898.1875 C779.859375,894.145813 778.32814,892.125 775.265625,892.125 L775.203125,892.125 C773.286449,892.125 771.739589,892.859368 770.5625,894.328125 C769.385411,895.796882 768.796875,897.729155 768.796875,900.125 L768.796875,919 L760.796875,919 L760.796875,898.1875 C760.796875,894.145813 759.255224,892.125 756.171875,892.125 L756.109375,892.125 C754.192699,892.125 752.651048,892.859368 751.484375,894.328125 C750.317702,895.796882 749.734375,897.729155 749.734375,900.125 L749.734375,919 L741.734375,919 Z M793.765625,902.6875 C793.765625,900.124987 794.109372,897.796885 794.796875,895.703125 C795.484378,893.609365 796.47916,891.807299 797.78125,890.296875 C799.08334,888.786451 800.682282,887.625004 802.578125,886.8125 C804.473968,885.999996 806.640613,885.59375 809.078125,885.59375 C811.515637,885.59375 813.682282,885.999996 815.578125,886.8125 C817.473968,887.625004 819.07291,888.786451 820.375,890.296875 C821.67709,891.807299 822.666663,893.609365 823.34375,895.703125 C824.020837,897.796885 824.359375,900.124987 824.359375,902.6875 C824.359375,905.250013 824.020837,907.572906 823.34375,909.65625 C822.666663,911.739594 821.67709,913.541659 820.375,915.0625 C819.07291,916.583341 817.473968,917.749996 815.578125,918.5625 C813.682282,919.375004 811.515637,919.78125 809.078125,919.78125 C806.640613,919.78125 804.473968,919.375004 802.578125,918.5625 C800.682282,917.749996 799.08334,916.583341 797.78125,915.0625 C796.47916,913.541659 795.484378,911.739594 794.796875,909.65625 C794.109372,907.572906 793.765625,905.250013 793.765625,902.6875 Z M802.109375,907.40625 C802.109375,909.364593 802.770827,910.880203 804.09375,911.953125 C805.416673,913.026047 807.078115,913.5625 809.078125,913.5625 C811.078135,913.5625 812.739577,913.041672 814.0625,912 C815.385423,910.958328 816.046875,909.427093 816.046875,907.40625 L816.046875,897.9375 C816.046875,895.93749 815.385423,894.416672 814.0625,893.375 C812.739577,892.333328 811.078135,891.8125 809.078125,891.8125 C807.078115,891.8125 805.416673,892.343745 804.09375,893.40625 C802.770827,894.468755 802.109375,895.979157 802.109375,897.9375 L802.109375,907.40625 Z" id="Optimo"></path>
        </g>
    </g>
</svg>