<?xml version="1.0" encoding="UTF-8"?>
<svg width="233px" height="74px" viewBox="0 0 233 74" version="1.1" xmlns="http://www.w3.org/2000/svg" xmlns:xlink="http://www.w3.org/1999/xlink">
    <!-- Generator: Sketch 41.2 (35397) - http://www.bohemiancoding.com/sketch -->
    <title>OrType</title>
    <desc>Created with Sketch.</desc>
    <defs>
        <polygon id="path-1" points="43.6671296 0.232525862 0 0.232525862 0 56.4538872 43.6671296 56.4538872 43.6671296 0.232525862"></polygon>
        <polygon id="path-3" points="0.287260274 55.1810345 37.4564399 55.1810345 37.4564399 0.169039634 0.287260274 0.169039634 0.287260274 55.1810345"></polygon>
    </defs>
    <g id="Page-1" stroke="none" stroke-width="1" fill="none" fill-rule="evenodd">
        <g id="Desktop-HD" transform="translate(-174.000000, -1845.000000)">
            <g id="st-copy" transform="translate(85.000000, 1727.000000)">
                <g id="OrType" transform="translate(89.000000, 118.000000)">
                    <g id="Group-3" transform="translate(0.000000, 0.086440)">
                        <mask id="mask-2" fill="white">
                            <use xlink:href="#path-1"></use>
                        </mask>
                        <g id="Clip-2"></g>
                        <path d="M33.6434126,25.9639207 C33.450629,24.2147138 33.19784,20.8505845 32.6801332,17.5276017 C32.1838112,14.3411362 31.2125523,11.2726879 29.2828016,8.60358448 C26.353066,4.55112759 20.8140496,3.54861897 16.6826085,6.34945517 C14.5766715,7.77714483 13.3360263,9.86796379 12.4538181,12.1900328 C10.9479359,16.1541362 10.36384,20.2949466 10.15414,24.5024207 C9.87709342,30.0661362 10.0331715,35.6046534 11.3465893,41.0493948 C12.0347373,43.9012655 12.9692907,46.6558517 14.9472373,48.938369 C17.8460126,52.2830414 23.0489345,53.0342052 26.7494852,50.6205931 C28.9878811,49.1606879 30.312151,47.0194724 31.2377674,44.5950155 C33.3325332,39.1091276 33.5821304,33.3623259 33.6434126,25.9639207 M0.00140438356,27.7931879 C0.140885205,22.3474897 1.01192219,17.1668517 3.38884137,12.3306966 C5.97290712,7.07382586 9.7187811,2.98660172 15.4850523,1.25653276 C22.022777,-0.704786207 28.2039797,0.0792310345 33.7828934,4.23248103 C37.7075071,7.15420517 40.0394222,11.1913517 41.6017989,15.7088603 C43.8283852,22.1471793 44.1555427,28.763481 43.057251,35.4416621 C42.1957893,40.6787569 40.3640263,45.5566966 36.8428537,49.6349897 C33.3124249,53.7234897 28.820951,56.0079207 23.4038605,56.3922741 C18.8680208,56.7141103 14.6436989,55.7903862 10.8087742,53.2609897 C7.73157836,51.2314121 5.49541671,48.4876707 3.81909342,45.2457052 C0.969152329,39.7336621 -0.0442380822,33.8264207 0.00140438356,27.7931879" id="Fill-1" fill="#3A3A3A" mask="url(#mask-2)"></path>
                    </g>
                    <g id="Group-6" transform="translate(157.354795, 18.586440)">
                        <mask id="mask-4" fill="white">
                            <use xlink:href="#path-3"></use>
                        </mask>
                        <g id="Clip-5"></g>
                        <path d="M28.3305658,19.4127198 C28.2456644,17.7432543 28.2226836,16.0677284 28.0611795,14.4055991 C27.8377548,12.1045819 27.4783603,9.81919397 26.3778342,7.73411638 C25.3280575,5.74472845 23.6696082,4.72084914 21.4136575,4.73552155 C19.1918589,4.749875 17.5002151,5.73834914 16.5599164,7.74846983 C16.0150795,8.91301293 15.5889767,10.1671853 15.3329959,11.4261422 C14.4428082,15.8080905 14.5008986,20.2413922 14.8954027,24.6689526 C15.0936123,26.8908664 15.4948192,29.086625 16.4967192,31.121625 C17.4868096,33.1330216 19.073763,34.2650302 21.3402466,34.3058578 C23.5633219,34.3463664 25.2217712,33.341944 26.2661219,31.389556 C26.6261548,30.7165388 26.9121384,29.9912112 27.1377973,29.2607802 C28.128526,26.052625 28.2791781,22.7424009 28.3305658,19.4127198 M13.7556178,34.2289871 L13.7556178,55.181194 L5.12727671,55.181194 L5.12727671,54.1790043 C5.12727671,39.1898578 5.12280822,24.2010302 5.1333411,9.21188362 C5.13461781,7.48468534 4.71489863,5.95301293 3.12156164,5.0726681 C2.27988904,4.60793534 1.29554384,4.40156466 0.287260274,4.04751293 L0.287260274,0.867426724 L12.7578671,0.867426724 C12.9627795,2.10756466 13.173437,3.38215086 13.4042027,4.77794397 C13.8200918,4.2956681 14.1590589,3.8998319 14.5008986,3.50654741 C18.066437,-0.595668103 25.5186068,-0.833297414 29.9472027,2.33721983 C33.5711507,4.93136638 35.6266575,8.52993534 36.6205781,12.7664353 C38.0910315,19.0331509 37.7009959,25.1611164 34.813711,30.9946767 C33.3148507,34.0229353 31.1141178,36.4343147 27.9698945,37.8524353 C24.0558137,39.6182284 17.2337014,38.8683405 14.1399082,34.5836767 C14.0706466,34.4873491 13.9634027,34.4184526 13.7556178,34.2289871" id="Fill-4" fill="#3A3A3A" mask="url(#mask-4)"></path>
                    </g>
                    <path d="M95.1355278,5.39440862 C92.5166716,5.48818448 89.9849511,5.13668448 87.5103634,5.85818448 C83.5190415,7.02145172 81.4156579,9.78879655 80.7709182,13.7921328 C80.7415538,13.9733052 80.7195305,14.1557534 80.6869744,14.3870034 L78.0429032,14.3870034 L78.0429032,1.31452069 L121.562515,1.31452069 L121.562515,14.4358052 C120.837343,14.4358052 120.097488,14.4862017 119.373592,14.4010379 C119.187511,14.3793483 118.951,13.946831 118.908231,13.6763483 C118.402972,10.4822276 116.874109,7.96941724 113.92235,6.54045172 C112.798843,5.99661552 111.513194,5.63522759 110.271591,5.52327069 C108.40408,5.35517586 106.510077,5.47957241 104.525109,5.47957241 L104.525109,6.38511552 C104.525109,20.0454517 104.524789,33.7061069 104.525428,47.3664431 C104.525747,50.1867362 105.80597,51.7219172 108.604843,52.1346586 C109.265861,52.2319431 109.441728,52.4689345 109.405342,53.0883655 C109.357465,53.9061931 109.393532,54.7291241 109.393532,55.6069172 L90.3644538,55.6069172 L90.3644538,52.3336931 C91.0194073,52.1598569 91.7005333,52.0354603 92.339847,51.798469 C94.1633114,51.123219 95.1336127,49.7060552 95.1339319,47.7699345 C95.1368045,33.9236414 95.1355278,20.0770293 95.1355278,6.23073621 L95.1355278,5.39440862 Z" id="Fill-7" fill="#3A3A3A"></path>
                    <path d="M224.178588,35.7048405 C224.132307,34.6557629 224.131669,33.7071595 224.041342,32.7671681 C223.795574,30.2144871 223.291911,27.7326164 221.853057,25.5365388 C220.315257,23.1899095 217.952062,22.2244009 215.408851,22.9615302 C213.602622,23.4852716 212.48135,24.8185474 211.636166,26.3993405 C210.183906,29.1156509 209.938777,32.1088233 209.710884,35.1023147 C209.664922,35.7051595 210.026551,35.7109009 210.467336,35.709625 C213.601026,35.700694 216.735036,35.7048405 219.869046,35.7048405 L224.178588,35.7048405 M232.742455,40.1767371 L231.846203,40.1767371 C224.798751,40.1767371 217.75098,40.1764181 210.703528,40.177056 C209.69684,40.177375 209.725247,40.177694 209.805042,41.1897716 C209.952502,43.0576336 210.309024,44.8719095 211.135376,46.5649784 C213.116833,50.6241336 217.480317,52.4492543 221.802307,51.0633491 C224.587455,50.1702457 226.813084,48.5569181 228.381206,46.069625 C228.44951,45.9608578 228.53505,45.8629353 228.680595,45.6696422 C229.880066,46.7142543 231.049535,47.7323922 232.380188,48.8915129 C231.348285,49.9980043 230.446926,51.1532974 229.360125,52.0948836 C226.050887,54.9617457 222.148615,56.4911853 217.780025,56.540944 C213.314085,56.5916595 209.423305,55.0389353 206.252909,51.8036681 C202.65641,48.1333319 201.045837,43.6547371 200.682932,38.6157198 C200.420568,34.9753664 200.868694,31.4654698 202.336274,28.1131422 C204.087605,24.1139526 206.937865,21.1823405 211.034515,19.6120733 C215.440131,17.9231509 219.862662,17.9569612 224.191036,19.9418836 C227.185565,21.3153491 229.332037,23.5914871 230.738974,26.533306 C232.649255,30.5277112 233.371555,35.6212716 232.742455,40.1767371" id="Fill-9" fill="#3A3A3A"></path>
                    <path d="M119.818909,22.7932121 C119.818909,21.7875138 119.816675,20.8606 119.821144,19.9336862 C119.822101,19.778669 119.853062,19.6239707 119.874446,19.4274879 L138.179629,19.4274879 L138.179629,22.7271862 C137.546698,22.7983155 136.94026,22.8321259 136.346908,22.9392983 C134.09766,23.3466172 133.31727,24.7108328 134.140749,26.8804362 C135.044662,29.2608759 136.006664,31.6193069 136.947601,33.9857121 C137.858855,36.2771603 138.775853,38.5660569 139.729877,40.9554276 C139.851164,40.7241776 139.947237,40.5796862 140.006923,40.4217983 C141.798789,35.6829276 143.586825,30.9424621 145.375498,26.2019966 C145.403586,26.1276776 145.430397,26.0524017 145.45657,25.9774448 C146.064604,24.2330224 145.558068,23.2522034 143.744818,22.7310138 L143.744818,19.4459879 L155.505892,19.4459879 L155.505892,22.7539793 C153.187701,22.7766259 151.783318,24.1491345 150.783971,26.0721776 C150.564057,26.4951259 150.369359,26.9330655 150.189981,27.3748328 C144.331467,41.8016431 138.470081,56.2274966 132.63742,70.6648328 C132.334201,71.4153586 131.983425,71.7237983 131.151966,71.661281 C130.017607,71.5757983 128.871757,71.6399103 127.605259,71.6399103 C127.875922,70.9467983 128.103496,70.3394879 128.349263,69.7398328 C130.632344,64.1675052 132.909679,58.5929448 135.216379,53.0305052 C135.459912,52.4436086 135.467892,51.9712207 135.209357,51.3833672 C131.760957,43.5390483 128.338411,35.6835655 124.911077,27.8303155 C124.709675,27.3684534 124.512742,26.9043586 124.329853,26.4354793 C123.536057,24.3995224 122.178593,23.0471086 119.818909,22.7932121" id="Fill-11" fill="#3A3A3A"></path>
                    <path d="M67.7717525,55.6219405 L49.4107141,55.6219405 C49.4107141,54.6082681 49.3858182,53.6338284 49.4346525,52.6628974 C49.4429511,52.4963974 49.7503196,52.2287853 49.9434223,52.2051819 C52.7946401,51.8575095 54.278499,49.9998543 54.2966922,46.8800526 C54.3337168,40.6363026 54.3164812,34.3922336 54.2947771,28.1484836 C54.2925429,27.4665353 54.1990237,26.7597078 54.0020908,26.1086991 C53.452147,24.2902767 52.2086292,23.1952681 50.3095196,22.9359491 C49.6456292,22.8453629 49.3037895,22.631975 49.3893292,21.891975 C49.4560374,21.3152853 49.4285881,20.7229664 49.3957127,20.1405353 C49.3653908,19.6033974 49.5361511,19.3874578 50.11131,19.3909664 C53.5941812,19.4120181 57.0773716,19.4078716 60.5602429,19.394475 C61.0613525,19.3925612 61.2407305,19.5657595 61.3013744,20.0751474 C61.4919237,21.6817767 61.7437552,23.2813888 61.9793086,24.8825957 C62.0278237,25.2117681 62.1095333,25.536156 62.1631552,25.8005784 C62.8934347,24.6181733 63.4960429,23.3655957 64.3504826,22.3184319 C66.0609579,20.2215526 68.2549881,18.8059836 70.9925785,18.4308802 C72.8878579,18.1715612 74.6273785,18.6136474 76.1444319,19.8333716 C76.4795689,20.1028974 76.5204237,20.3303198 76.3043401,20.7060612 C75.153384,22.7075698 74.0126415,24.7148198 72.9009442,26.7380181 C72.5996401,27.2860009 72.2909949,27.1491647 71.869999,26.9348198 C70.6226511,26.2988026 69.3092333,25.8487422 67.8898484,26.0436302 C65.9569059,26.3093284 64.8183977,27.5966733 64.0188566,29.2543371 C63.1436703,31.0695698 62.9569511,33.0331216 62.9301401,34.9966733 C62.8771566,38.9285612 62.9062018,42.861406 62.9224799,46.7936129 C62.9247141,47.3728543 62.9955716,47.9616647 63.1152634,48.5291043 C63.5448771,50.5704836 64.9626662,51.898975 67.0370045,52.1506388 C67.6281223,52.222406 67.8055853,52.435794 67.7813278,52.9984491 C67.7446223,53.8437078 67.7717525,54.6915181 67.7717525,55.6219405" id="Fill-13" fill="#3A3A3A"></path>
                </g>
            </g>
        </g>
    </g>
</svg>