<?xml version="1.0" encoding="UTF-8"?>
<svg width="303px" height="43px" viewBox="0 0 303 43" version="1.1" xmlns="http://www.w3.org/2000/svg" xmlns:xlink="http://www.w3.org/1999/xlink">
    <!-- Generator: Sketch 41.2 (35397) - http://www.bohemiancoding.com/sketch -->
    <title>RadimPesko</title>
    <desc>Created with Sketch.</desc>
    <defs>
        <polygon id="path-1" points="29.9238366 0.1128 6.70472622e-05 0.1128 6.70472622e-05 42.1895195 29.9238366 42.1895195 29.9238366 0.1128"></polygon>
    </defs>
    <g id="Page-1" stroke="none" stroke-width="1" fill="none" fill-rule="evenodd">
        <g id="Desktop-HD" transform="translate(-569.000000, -1860.000000)">
            <g id="RadimPesko" transform="translate(515.000000, 1727.000000)">
                <g transform="translate(54.000000, 133.000000)">
                    <g id="Group-3" transform="translate(0.000000, 0.087200)">
                        <mask id="mask-2" fill="white">
                            <use xlink:href="#path-1"></use>
                        </mask>
                        <g id="Clip-2"></g>
                        <path d="M12.0648129,5.9688 L12.0648129,5.9256 C10.2679849,5.9256 8.47095722,5.939 6.674329,5.9166 C6.19536131,5.9108 6.04555906,6.0648 6.0479559,6.546 C6.06493349,10.0444 6.05634483,13.543 6.05774298,17.0414 C6.05794272,17.6548 6.08870211,17.6854 6.71068102,17.6856 C9.65559334,17.6872 12.6003059,17.6954 15.5450185,17.6804 C16.3581451,17.6762 17.1824569,17.6714 17.9814022,17.5424 C19.6557918,17.2724 21.1420297,16.5876 22.1423092,15.148 C23.4258148,13.301 23.3283435,10.164 21.9433719,8.3634 C20.8152611,6.8968 19.2681036,6.098 17.4527001,5.9918 C15.6624635,5.8868 13.8612413,5.9688 12.0648129,5.9688 M29.9238366,42.1266 C29.607654,42.1536 29.4648425,42.1762 29.322031,42.1764 C27.1251312,42.1784 24.9282314,42.172 22.7315314,42.1838 C22.400768,42.1854 22.1836546,42.0752 21.9673402,41.8246 C18.2264786,37.4908 14.47583,33.1656 10.7275782,28.8384 C9.35459071,27.2534 7.97940613,25.6702 6.61320969,24.0792 C6.48557818,23.9306 6.41626968,23.7322 6.31979703,23.5568 L6.0859058,23.7136 C6.07631846,23.9008 6.05834219,24.0882 6.05834219,24.2756 C6.0567443,30.0082 6.05714377,35.7408 6.05694403,41.4734 C6.05694403,42.1772 6.05614509,42.1776 5.34288668,42.1778 C3.77855181,42.178 2.21381747,42.1586 0.64988207,42.189 C0.155934146,42.1986 -0.00385491101,42.0784 0.000139815425,41.5568 C0.024707383,38.3242 0.0125234674,35.091 0.0125234674,31.8582 C0.0125234674,21.5262 0.012323731,11.1942 0.0125234674,0.8622 C0.0125234674,0.1258 0.01292294,0.1246 0.743957877,0.1254 C6.16939558,0.1324 11.5960317,0.07 17.0196718,0.1712 C20.678242,0.2394 23.8660337,1.6054 26.3453606,4.3712 C27.920681,6.1284 28.8049137,8.213 29.0210284,10.5846 C29.2139737,12.7014 29.0118405,14.7408 28.0269407,16.6552 C26.5187318,19.5866 24.135478,21.4896 21.061536,22.5794 C18.9591115,23.325 16.782385,23.5014 14.5739005,23.4544 C14.3344167,23.4494 14.0941339,23.4776 13.8542506,23.4904 L13.7791497,23.6224 C19.1270897,29.752 24.4750297,35.8816 29.9238366,42.1266" id="Fill-1" fill="#3A3A3A" mask="url(#mask-2)"></path>
                    </g>
                    <path d="M170.935962,6.05714 L170.935962,6.01274 C169.055844,6.01274 167.175726,6.02734 165.295808,6.00314 C164.799463,5.99674 164.634281,6.13934 164.637077,6.65234 C164.657251,10.13414 164.647264,13.61594 164.648263,17.09774 C164.648462,17.75074 164.669834,17.77274 165.320575,17.77294 C168.431868,17.77434 171.542961,17.78254 174.654253,17.76754 C175.483958,17.76374 176.32345,17.75374 177.140771,17.62994 C178.748448,17.38634 180.212715,16.75214 181.175644,15.39334 C182.526461,13.48694 182.544238,11.37194 181.605876,9.31754 C180.65633,7.23874 178.814162,6.25034 176.622655,6.08634 C174.736744,5.94534 172.832259,6.05714 170.935962,6.05714 M158.603043,21.25874 C158.603043,14.47774 158.603043,7.69694 158.603243,0.91594 C158.603243,0.21334 158.603842,0.21254 159.3177,0.21254 C164.658849,0.21234 169.999998,0.20514 175.340947,0.21574 C178.079532,0.22114 180.708461,0.72574 183.044976,2.23474 C186.161263,4.24734 187.914149,7.11174 188.198573,10.83994 C188.335193,12.63294 188.236523,14.40654 187.613346,16.10994 C186.416326,19.38314 184.147721,21.61374 180.915188,22.86174 C179.079212,23.57054 177.158547,23.84854 175.196937,23.85094 C171.902486,23.85514 168.608035,23.85174 165.313385,23.85234 C164.649261,23.85254 164.647863,23.85434 164.647863,24.51054 C164.647264,30.19194 164.647264,35.87334 164.646864,41.55454 C164.646665,42.26434 164.646265,42.26474 163.939598,42.26494 C162.358885,42.26514 160.777772,42.24554 159.197658,42.27654 C158.702112,42.28614 158.592457,42.12074 158.593456,41.65154 C158.607437,34.85394 158.603043,28.05634 158.603043,21.25874" id="Fill-4" fill="#3A3A3A"></path>
                    <path d="M133.813429,34.30704 C133.968025,33.83744 134.101049,33.49304 134.194925,33.13844 C135.02403,30.00624 135.840153,26.87064 136.672454,23.73924 C137.393702,21.02524 138.133526,18.31604 138.85737,15.60264 C138.940261,15.29144 139.110436,15.16964 139.426019,15.17084 C141.239825,15.17764 143.05363,15.17724 144.867436,15.17184 C145.200197,15.17084 145.358787,15.29504 145.452064,15.63724 C146.147346,18.18744 146.876584,20.72824 147.577458,23.27704 C148.34844,26.08124 149.089662,28.89364 149.86344,31.69724 C150.748073,34.90204 151.654676,38.10064 152.550094,41.30244 C152.625994,41.57344 152.690309,41.84764 152.777793,42.19024 C152.612212,42.21664 152.460812,42.26104 152.309411,42.26164 C150.745276,42.26684 149.180941,42.25724 147.616806,42.27064 C147.252288,42.27384 147.103684,42.14484 147.010007,41.78204 C146.391823,39.38404 145.738885,36.99504 145.107719,34.60024 C144.476352,32.20524 143.857369,29.80684 143.232794,27.40984 C142.939381,26.28384 142.647566,25.15744 142.34956,24.03244 C142.313008,23.89444 142.242701,23.76544 142.135442,23.50424 C141.884574,24.38524 141.662467,25.13944 141.454941,25.89744 C140.81898,28.22224 140.188812,30.54844 139.555648,32.87404 C138.91809,35.21584 138.28153,37.55784 137.640576,39.89884 C137.456419,40.57184 137.277855,41.24764 137.052952,41.90724 C137.00162,42.05784 136.770325,42.24644 136.619724,42.24844 C134.739606,42.27184 132.859088,42.25684 130.978771,42.27064 C130.624438,42.27324 130.568712,42.02804 130.502999,41.79944 C130.209786,40.77704 129.930555,39.75044 129.651723,38.72384 C129.08547,36.63844 128.52521,34.55144 127.958158,32.46644 C127.251691,29.86804 126.541828,27.27064 125.830567,24.67364 C125.744481,24.35884 125.641217,24.04864 125.507993,23.61184 C125.393344,23.82224 125.31285,23.91984 125.283489,24.03084 C124.672696,26.34524 124.071489,28.66204 123.460296,30.97624 C122.950968,32.90544 122.427859,34.83104 121.917333,36.75984 C121.492094,38.36644 121.064259,39.97264 120.663189,41.58544 C120.543347,42.06724 120.369776,42.30244 119.800927,42.28224 C118.355036,42.23044 116.905949,42.26504 115.45826,42.26504 L114.828491,42.26504 C115.011849,41.56564 115.167244,40.94684 115.336421,40.33204 C115.913858,38.23244 116.496489,36.13444 117.076524,34.03544 C117.705094,31.76044 118.331467,29.48464 118.961235,27.21004 C119.591004,24.93624 120.22317,22.66304 120.855335,20.39004 C121.295953,18.80484 121.74516,17.22204 122.173794,15.63344 C122.261279,15.31004 122.402692,15.16584 122.754428,15.16844 C124.568233,15.18184 126.382239,15.18944 128.195845,15.16444 C128.683401,15.15784 128.720752,15.48724 128.804841,15.79684 C129.223488,17.33664 129.630151,18.87964 130.042407,20.42124 C130.900674,23.63144 131.760938,26.84104 132.617807,30.05164 C132.969343,31.36844 133.313888,32.68704 133.663826,34.00404 C133.679406,34.06244 133.717355,34.11484 133.813429,34.30704" id="Fill-6" fill="#3A3A3A"></path>
                    <path d="M82.380367,19.8435 C82.1808305,19.8435 81.9806947,19.8349 81.7815575,19.8447 C78.6744593,19.9981 76.3379438,21.3849 74.8836637,24.1769 C73.9367138,25.9947 73.6976294,27.9357 73.9095496,29.9479 C74.2401132,33.0855 75.6574422,35.5153 78.5933664,36.8601 C80.7157645,37.8323 82.9402279,37.9119 85.1696848,37.2515 C87.9152603,36.4383 89.5487039,34.5261 90.2843328,31.8163 C90.7573084,30.0743 90.7996525,28.2985 90.4890625,26.5175 C90.120549,24.4055 89.2019616,22.6067 87.4578641,21.3049 C85.955048,20.1829 84.2213367,19.8111 82.380367,19.8435 M95.8733545,21.2039 C95.8733545,27.9853 95.8733545,34.7667 95.8731548,41.5481 C95.8731548,42.2635 95.8725556,42.2645 95.1672866,42.2647 C93.6864415,42.2655 92.205197,42.2465 90.7247514,42.2753 C90.2316024,42.2849 90.083398,42.1149 90.1153558,41.6427 C90.1503097,41.1287 90.1327329,40.6099 90.1139577,40.0941 C90.109164,39.9605 90.0460473,39.7689 89.9495747,39.7175 C89.8708786,39.6757 89.6723407,39.7715 89.5778654,39.8605 C86.7489999,42.5251 83.340899,43.1553 79.6264026,42.7123 C76.3744956,42.3245 73.7000262,40.8315 71.5500645,38.3939 C70.1854659,36.8467 69.2952411,35.0243 68.7651409,33.0395 C68.0794461,30.4709 67.9849709,27.8547 68.5664033,25.2691 C69.6813314,20.3099 72.5002102,16.7771 77.4580651,15.2225 C80.905514,14.1415 84.28705,14.3785 87.5125918,16.0693 C88.1547441,16.4059 88.7174013,16.8935 89.3236011,17.3009 C89.528131,17.4383 89.754632,17.5435 89.9711462,17.6633 C90.0218792,17.4159 90.116754,17.1683 90.1171535,16.9207 C90.1255424,11.6223 90.123545,6.3237 90.123545,1.0251 C90.123545,0.2131 90.1237448,0.2127 90.9436624,0.2125 C92.3747731,0.2123 93.8062833,0.2319 95.2365951,0.2023 C95.7449241,0.1917 95.8845397,0.3571 95.8833413,0.8595 C95.8683611,7.6409 95.8733545,14.4225 95.8733545,21.2039" id="Fill-8" fill="#3A3A3A"></path>
                    <path d="M48.4379555,19.7459 C47.5535231,19.8767 46.6435244,19.9155 45.7896516,20.1553 C43.2332264,20.8731 41.5184901,22.5485 40.5495692,25.0127 C39.7208632,27.1205 39.6972943,29.2815 40.2160096,31.4423 C40.6670142,33.3219 41.6307419,34.9145 43.2418151,36.0545 C45.3604183,37.5535 47.7101163,37.8929 50.2253958,37.4849 C53.2384183,36.9959 55.6106866,34.8141 56.3403233,31.8439 C56.7801427,30.0535 56.8472541,28.2529 56.5204855,26.4447 C56.1060326,24.1515 55.0434354,22.2541 53.0268975,20.9873 C51.6301414,20.1097 50.0785897,19.8133 48.4379555,19.7459 M61.9181599,28.7519 C61.9181599,33.0347 61.9183596,37.3173 61.9179601,41.5999 C61.9177604,42.2623 61.916562,42.2641 61.2604281,42.2647 C59.7791836,42.2657 58.2981388,42.2659 56.8168942,42.2645 C56.1697485,42.2641 56.1695488,42.2621 56.1683504,41.5909 C56.1673517,41.0909 56.1781374,40.5905 56.1585633,40.0913 C56.1533701,39.9579 56.0570972,39.8281 56.0023695,39.6967 C55.8737393,39.7503 55.7153484,39.7725 55.6206734,39.8621 C52.8235659,42.5057 49.4416305,43.1395 45.7648843,42.7311 C42.3445995,42.3513 39.5486905,40.7793 37.3463978,38.1601 C36.0746767,36.6475 35.2645461,34.8825 34.7793866,32.9697 C34.2452917,30.8627 34.1378336,28.7233 34.3897011,26.5719 C34.9919061,21.4293 37.9941427,16.8679 43.4447472,15.2183 C46.9179621,14.1671 50.3122811,14.3645 53.5514051,16.0703 C54.2640643,16.4455 54.8786529,17.0057 55.5467709,17.4685 C55.6823919,17.5623 55.855763,17.6013 56.0117571,17.6657 C56.0636885,17.5189 56.1553675,17.3735 56.1605606,17.2249 C56.1791361,16.6923 56.1787367,16.1585 56.1651546,15.6255 C56.1569654,15.3013 56.3007755,15.1743 56.6109661,15.1749 C58.225235,15.1779 59.839504,15.1831 61.4537729,15.1713 C61.934738,15.1677 61.9207564,15.4665 61.920357,15.8041 C61.9169614,20.1201 61.9181599,24.4361 61.9181599,28.7519" id="Fill-10" fill="#3A3A3A"></path>
                    <path d="M253.130035,26.05774 C253.425645,25.83694 253.60341,25.72234 253.760603,25.58434 C257.58775,22.22534 261.409904,18.86074 265.24584,15.51214 C265.451369,15.33274 265.769749,15.19154 266.037396,15.18854 C268.250274,15.16274 270.463552,15.17274 272.676831,15.17594 C272.815248,15.17614 272.953665,15.21154 273.231099,15.24954 C272.805261,15.63554 272.485084,15.93754 272.152722,16.22554 C267.7008,20.08174 263.249476,23.93834 258.789364,27.78454 C258.510732,28.02514 258.514127,28.16754 258.772985,28.40874 C263.558069,32.86474 268.33716,37.32714 273.120245,41.78534 C273.23789,41.89514 273.387093,41.97094 273.521515,42.06254 C273.489757,42.11774 273.457999,42.17294 273.426241,42.22834 C273.271645,42.24054 273.117049,42.26334 272.962653,42.26354 C270.782731,42.26574 268.602609,42.27574 266.422887,42.25094 C266.157437,42.24794 265.835262,42.11974 265.638522,41.94054 C263.104867,39.63214 260.590586,37.30234 258.068316,34.98134 C256.574688,33.60674 255.075866,32.23774 253.577045,30.86894 C253.484966,30.78514 253.371117,30.72534 253.182965,30.59654 C253.160794,30.89194 253.132232,31.09734 253.132032,31.30274 C253.129236,34.75194 253.121846,38.20114 253.139622,41.65014 C253.142019,42.12374 253.015786,42.28514 252.526432,42.27574 C251.01263,42.24654 249.49783,42.25254 247.983829,42.27314 C247.567179,42.27874 247.443342,42.14134 247.443542,41.72954 C247.452131,28.08294 247.452929,14.43614 247.441345,0.78934 C247.440945,0.30934 247.612918,0.19834 248.052937,0.20454 C249.533583,0.22534 251.015227,0.23274 252.495672,0.20134 C253.007796,0.19054 253.140821,0.35774 253.140022,0.85714 C253.12604,8.98854 253.130035,17.11994 253.130035,25.25134 L253.130035,26.05774 Z" id="Fill-12" fill="#3A3A3A"></path>
                    <path d="M203.881849,19.49448 C203.028775,19.60748 202.165515,19.67108 201.324225,19.84248 C198.211335,20.47628 196.015633,23.02248 195.790131,26.20748 C195.741995,26.88668 195.787934,26.93788 196.459847,26.82248 C197.606134,26.62568 198.749824,26.41368 199.894513,26.20868 C203.148817,25.62648 206.401922,25.03908 209.658423,24.47028 C210.013155,24.40848 210.100639,24.24388 209.956829,23.96828 C209.568142,23.22288 209.242572,22.41908 208.726653,21.77028 C207.507463,20.23748 205.816495,19.62488 203.881849,19.49448 M203.39609,14.54508 C208.71367,14.52088 213.12245,17.73448 215.003367,22.51168 C215.698849,24.27788 215.977881,26.09448 216.116298,27.95848 C216.145659,28.35308 215.996057,28.54168 215.613961,28.60668 C213.566264,28.95508 211.519566,29.30928 209.473467,29.66808 C207.755136,29.96928 206.039001,30.28188 204.321069,30.58448 C202.635694,30.88148 200.94932,31.17268 199.263346,31.46528 C198.41207,31.61328 197.560194,31.75868 196.708918,31.90588 C196.352189,31.96768 196.210776,32.11328 196.323827,32.52248 C196.906058,34.63108 198.237301,36.07808 200.220083,36.90768 C202.900744,38.02928 205.581605,37.95388 208.165194,36.61668 C209.421336,35.96648 210.413826,34.96048 211.180214,33.76228 C211.419099,33.38868 211.605653,33.40188 211.921635,33.65688 C212.996217,34.52368 214.081384,35.37788 215.177138,36.21768 C215.477142,36.44748 215.462361,36.63408 215.264023,36.91928 C213.50914,39.44248 211.260908,41.31588 208.27425,42.18188 C206.045992,42.82808 203.773991,43.04868 201.463442,42.69848 C196.973169,42.01808 193.696295,39.62568 191.684351,35.57808 C190.285598,32.76428 189.933862,29.74868 190.311963,26.63048 C190.622553,24.06828 191.419701,21.69828 192.97345,19.62728 C194.566147,17.50448 196.634017,16.02188 199.18485,15.24488 C199.645042,15.10468 200.103837,14.93408 200.576013,14.86408 C201.511378,14.72568 202.455532,14.64788 203.39609,14.54508" id="Fill-14" fill="#3A3A3A"></path>
                    <path d="M288.538791,19.77468 C287.813948,19.85888 287.083112,19.90888 286.36526,20.03388 C284.007573,20.44448 282.217336,21.71248 281.067853,23.79928 C279.652721,26.36848 279.521095,29.10688 280.314448,31.88368 C280.936627,34.06168 282.249094,35.77048 284.303582,36.75888 C286.276777,37.70808 288.389987,37.82668 290.547139,37.47888 C293.556167,36.99348 296.132366,34.61328 296.844426,31.65848 C297.236708,30.03168 297.33418,28.41248 297.044762,26.75848 C296.664863,24.58808 295.71252,22.75868 293.946652,21.41228 C292.355552,20.19908 290.505994,19.81228 288.538791,19.77468 M288.846385,42.88508 C285.284487,42.90168 282.293036,42.09988 279.63854,40.22208 C277.262077,38.54088 275.69195,36.26808 274.830487,33.48588 C273.9874,30.76248 273.89692,27.99108 274.498725,25.23988 C275.40413,21.10088 277.739248,17.95128 281.588566,16.11548 C286.160331,13.93528 290.835159,13.94068 295.424501,16.05328 C299.137,17.76208 301.463928,20.72268 302.431451,24.69688 C303.334059,28.40388 303.114149,32.03948 301.430772,35.51008 C300.044002,38.36948 297.820737,40.37448 294.92496,41.63608 C292.883655,42.52528 290.738886,42.91928 288.846385,42.88508" id="Fill-16" fill="#3A3A3A"></path>
                    <path d="M227.838643,20.68316 C227.99264,20.88776 228.136849,21.10076 228.302231,21.29576 C231.875314,25.50936 235.451193,29.72056 239.025075,33.93336 C239.757109,34.79616 240.495334,35.65416 241.2034,36.53616 C241.355998,36.72616 241.464855,37.00956 241.468849,37.25176 C241.492618,38.75116 241.470247,40.25096 241.488024,41.75036 C241.492618,42.14256 241.36259,42.27136 240.972105,42.27076 C234.382604,42.26216 227.792903,42.26216 221.203203,42.27076 C220.822106,42.27116 220.723835,42.12736 220.727431,41.76956 C220.742611,40.32016 220.7508,38.87016 220.723636,37.42096 C220.715047,36.96016 220.855462,36.82236 221.314855,36.82396 C225.458185,36.83916 229.601715,36.83276 233.745245,36.83276 L234.33227,36.83276 C234.362031,36.79216 234.391992,36.75156 234.421752,36.71096 C234.169685,36.40296 233.922412,36.09096 233.664552,35.78796 C229.470289,30.85736 225.270633,25.93096 221.090152,20.98856 C220.887619,20.74916 220.757391,20.37336 220.749402,20.05716 C220.713649,18.62516 220.746206,17.19136 220.726032,15.75876 C220.72004,15.33796 220.830894,15.16596 221.282698,15.16676 C227.639506,15.17776 233.996114,15.17656 240.352723,15.16876 C240.752795,15.16816 240.912584,15.28816 240.906392,15.71156 C240.885619,17.12756 240.879427,18.54456 240.909188,19.96016 C240.919375,20.44656 240.725031,20.54636 240.293601,20.54516 C236.383163,20.53456 232.472526,20.53916 228.562088,20.53916 L227.922732,20.53916 C227.894769,20.58716 227.866606,20.63516 227.838643,20.68316" id="Fill-18" fill="#3A3A3A"></path>
                    <path d="M103.887934,28.70322 C103.887934,24.42282 103.887734,20.14242 103.888134,15.86202 C103.888134,15.17722 103.889532,15.17482 104.583017,15.17422 C106.096618,15.17262 107.61042,15.18682 109.123822,15.16542 C109.560246,15.15922 109.69367,15.29942 109.693071,15.73782 C109.682085,24.39862 109.682884,33.05942 109.691673,41.72002 C109.692072,42.11362 109.608382,42.28082 109.171959,42.27442 C107.592244,42.25062 106.011531,42.24922 104.431816,42.27462 C103.976218,42.28182 103.878347,42.11762 103.879745,41.69442 C103.893127,37.36402 103.887934,33.03362 103.887934,28.70322" id="Fill-20" fill="#3A3A3A"></path>
                    <path d="M106.791681,9.45154 C104.519081,9.44934 102.737433,7.69934 102.73204,5.46394 C102.726448,3.21254 104.526471,1.45314 106.827034,1.46134 C109.099035,1.46914 110.859311,3.22334 110.852121,5.47234 C110.84493,7.71614 109.071871,9.45374 106.791681,9.45154" id="Fill-22" fill="#3A3A3A"></path>
                </g>
            </g>
        </g>
    </g>
</svg>