<?xml version="1.0" encoding="UTF-8"?>
<svg width="185px" height="101px" viewBox="0 0 185 101" version="1.1" xmlns="http://www.w3.org/2000/svg" xmlns:xlink="http://www.w3.org/1999/xlink">
    <!-- Generator: Sketch 41.2 (35397) - http://www.bohemiancoding.com/sketch -->
    <title>st</title>
    <desc>Created with Sketch.</desc>
    <defs>
        <polygon id="path-1" points="35.7110436 0.108627002 0.0717855362 0.108627002 0.0717855362 43.8650165 35.7110436 43.8650165 35.7110436 0.108627002"></polygon>
        <polygon id="path-3" points="0.216076405 30.7391304 31.8573801 30.7391304 31.8573801 0.0889281442 0.216076405 0.0889281442 0.216076405 30.7391304"></polygon>
        <polygon id="path-5" points="29.3081983 30.7302956 29.3081983 0.084197783 0.175738169 0.084197783 0.175738169 30.7302956 29.3081983 30.7302956"></polygon>
    </defs>
    <g id="Page-1" stroke="none" stroke-width="1" fill="none" fill-rule="evenodd">
        <g id="Desktop-HD" transform="translate(-197.000000, -1203.000000)">
            <g id="st" transform="translate(197.000000, 1203.000000)">
                <path d="M138.051706,100.410895 L137.271799,100.410895 C127.911076,100.410895 118.550584,100.406966 109.18986,100.42222 C108.718825,100.422913 108.493688,100.279387 108.295079,99.8513503 C106.231475,95.4055014 104.14319,90.9712085 102.064131,86.5327554 C101.847529,86.0705128 101.623084,85.6242176 101.05309,85.5206753 C100.488171,85.4180574 100.159692,85.6702108 100.159231,86.2218973 C100.157155,89.5537416 100.161999,92.8853549 100.154617,96.2169682 C100.153464,96.7316753 100.319087,97.1384487 100.702466,97.4909087 C101.703358,98.4116959 102.684411,99.3542085 103.755658,100.365595 L86.9238878,100.365595 C87.0782082,100.191561 87.184318,100.052888 87.3095736,99.9343229 C88.0910948,99.1940414 88.8550848,98.4327279 89.6691309,97.729657 C90.2310511,97.2443023 90.4296608,96.672046 90.4264314,95.951641 C90.4109763,92.5814304 90.4197419,89.2112199 90.4197419,85.8410094 C90.4197419,78.1763343 90.4123603,70.5114281 90.4298915,62.8467531 C90.4317369,61.9781993 90.2107519,61.2926936 89.522884,60.7195128 C88.7563566,60.0811558 88.0668741,59.3505815 87.3287195,58.6768629 C87.1928529,58.5527508 86.9850162,58.5076822 86.8103965,58.4263275 C86.8726783,58.3431238 86.9349601,58.2599201 86.9972419,58.1764854 C91.3532768,57.6629339 95.7093117,57.1491513 100.15554,56.6247371 L100.15554,85.1078927 C100.714923,84.6916432 101.157815,84.3639133 101.599324,84.0338721 C104.278364,82.0305128 106.958096,80.028078 109.635521,78.0226387 C110.424193,77.4318927 110.452105,77.2465334 109.877959,76.4237416 C108.689069,74.7203778 107.495334,73.0204808 106.305521,71.3178103 C106.189262,71.151403 106.087535,70.9750574 105.929985,70.7259087 L120.649711,70.7259087 C120.412348,70.9209751 120.264717,71.0501719 120.109012,71.1687371 C116.683052,73.7780963 113.255708,76.3863 109.829287,78.9954281 C109.083289,79.5635243 109.051918,79.6795471 109.482585,80.5298423 C112.078582,85.6579613 114.690266,90.7779911 117.269655,95.9144304 C118.00112,97.3711879 119.217921,98.3728675 120.355141,99.4586753 C120.61857,99.7101352 120.895378,99.947959 121.220397,100.241021 C121.723956,99.7716135 122.231899,99.3121444 122.724387,98.8367279 C125.032273,96.609181 124.629517,97.560014 124.634823,94.4562863 C124.653046,83.8834121 124.635515,73.3107691 124.653969,62.737895 C124.655353,61.9234236 124.439904,61.2959293 123.814779,60.7620391 C123.069935,60.1262245 122.385758,59.4194556 121.657984,58.7626089 C121.492591,58.6133046 121.256151,58.5428126 121.052466,58.4362657 C121.118439,58.3493641 121.184642,58.2624625 121.250845,58.1755609 C125.607342,57.6615471 129.963838,57.1475334 134.39092,56.6251993 L134.39092,85.0431787 C134.606369,84.9206844 134.735546,84.8640597 134.845808,84.7817805 C137.880085,82.5147119 140.913439,80.2464876 143.944025,77.9747966 C144.642734,77.4510757 144.67895,77.2227279 144.174237,76.4981627 C142.965047,74.7622108 141.748015,73.0313435 140.535596,71.2972405 C140.419106,71.1303709 140.313919,70.9554121 140.158676,70.715046 L154.904006,70.715046 C154.664106,70.9147348 154.51832,71.0453183 154.363308,71.1634213 C150.921431,73.7838744 147.47794,76.4024785 144.036064,79.0233938 C143.370802,79.5300117 143.313825,79.7105174 143.645764,80.3664396 C146.240839,85.4947897 148.858981,90.6118149 151.426375,95.7542634 C152.218507,97.340911 153.523888,98.4341146 154.763526,99.606824 C154.998582,99.8291627 155.237791,100.047803 155.547354,100.335549 C155.342286,100.370911 155.226718,100.408122 155.111382,100.408353 C151.151874,100.411357 147.192136,100.402343 143.232859,100.423607 C142.821107,100.425918 142.716612,100.205197 142.584667,99.9232291 C140.505378,95.4863938 138.430471,91.0472474 136.331575,86.6194259 C136.152342,86.2415426 135.874611,85.8331513 135.530446,85.6279156 C134.901631,85.2528057 134.413757,85.5948652 134.413526,86.3161947 C134.412373,89.5900277 134.419754,92.8640918 134.406837,96.1379247 C134.40453,96.7168835 134.573844,97.1641032 135.013969,97.5597828 C135.999175,98.4454396 136.948626,99.3706181 138.051706,100.410895" id="Fill-1" fill="#3A3A3A"></path>
                <g id="Group-5" transform="translate(65.049875, 0.122494)">
                    <mask id="mask-2" fill="white">
                        <use xlink:href="#path-1"></use>
                    </mask>
                    <g id="Clip-4"></g>
                    <path d="M16.9658379,43.8650165 L0.15136783,43.8650165 C0.319067332,43.6768838 0.429098504,43.5340508 0.558275561,43.4115565 C1.35386783,42.6574078 2.13723441,41.8891606 2.95843142,41.1641332 C3.42831297,40.7492705 3.66106234,40.2669204 3.65229676,39.6519066 C3.64999002,39.4785657 3.6536808,39.3052247 3.6536808,39.1318838 C3.6536808,28.2310485 3.64629925,17.3302133 3.6665985,6.42960915 C3.66844389,5.47322929 3.42323815,4.73317895 2.6698591,4.1070714 C1.80391147,3.38689748 1.01662344,2.5715016 0.0717855362,1.68122243 C4.59482793,1.14710114 8.9607818,0.631700686 13.3906322,0.108442105 L13.3906322,20.3962682 C13.4263865,20.4043574 13.4621409,20.4122156 13.4976646,20.4200737 C13.6570599,20.0606801 13.8106883,19.698513 13.9767731,19.342124 C16.2558254,14.4478998 21.8787182,12.2917693 26.79898,14.4405039 C29.3384626,15.5496549 30.6902082,17.6549387 31.4825711,20.1963483 C32.0719414,22.086227 32.2977706,24.037584 32.2825461,26.0071995 C32.2479451,30.4729249 32.1815112,34.9384192 32.0980075,39.4032201 C32.0837057,40.163378 32.3282195,40.7203803 32.890601,41.2163666 C33.8252893,42.0407762 34.7168416,42.9141835 35.7110436,43.8458334 L18.9491671,43.8458334 C19.8540985,42.9146458 20.7283504,41.9820714 21.6420474,41.0899432 C22.0524152,40.6894101 22.2913928,40.2692316 22.2987743,39.6824146 C22.3518292,35.5252362 22.4542481,31.368751 22.4717793,27.2115725 C22.4798529,25.3089822 22.3753579,23.3980714 21.7197843,21.5761423 C20.6868292,18.7070027 17.7639676,17.7386046 15.2512431,19.4789478 C14.6168915,19.9183094 14.1126397,20.5545863 13.5843978,21.133314 C13.4499152,21.2807693 13.4000898,21.5537236 13.3998591,21.7691286 C13.3901708,27.7394535 13.3945536,33.7097785 13.3880948,39.6803346 C13.3874027,40.1948105 13.5435686,40.6052819 13.928101,40.957973 C14.8208067,41.7766046 15.6939052,42.6167304 16.5730012,43.4501538 C16.691798,43.562941 16.7988304,43.6879776 16.9658379,43.8650165" id="Fill-3" fill="#3A3A3A" mask="url(#mask-2)"></path>
                </g>
                <path d="M181.667393,14.3390648 C180.752312,15.0395934 179.967331,15.6432822 179.179351,16.2428108 C176.395585,18.3619618 173.610205,20.4792638 170.82644,22.5984149 C170.084825,23.162813 170.051147,23.2758314 170.458285,24.081289 C173.07735,29.2611792 175.706564,34.4357535 178.318248,39.6193416 C179.014189,41.0007535 180.174706,41.95644 181.262792,42.9840053 C181.582044,43.2856185 181.905679,43.5823783 182.31028,43.9586437 C182.074762,43.985916 181.938665,44.0152684 181.802568,44.0152684 C177.882275,44.0178108 173.961751,44.0094904 170.041458,44.0291357 C169.631321,44.0312158 169.483921,43.8592616 169.330984,43.5317627 C167.224706,39.0230487 165.106895,34.5196506 162.990698,30.015559 C162.659681,29.3113325 162.173883,29.0011677 161.619345,29.1382227 C161.315548,29.2133371 161.128933,29.3508542 161.130548,29.7282753 C161.144388,33.0980236 161.140467,36.4675407 161.137468,39.837289 C161.137007,40.3741838 161.349457,40.7885842 161.744139,41.150289 C162.732113,42.0551288 163.700018,42.9814629 164.759962,43.9780579 L147.857375,43.9780579 C148.642125,43.2336162 149.294931,42.4981883 150.062612,41.9139137 C151.13455,41.0980556 151.433503,40.0996117 151.427506,38.7711265 C151.378372,27.9692112 151.393827,17.1668336 151.41205,6.36468719 C151.413435,5.52779703 151.170305,4.89175126 150.539875,4.34075812 C149.647861,3.56118604 148.805211,2.72498924 147.826234,1.80443318 C152.330822,1.27239199 156.685012,0.75814714 161.108634,0.235581922 L161.108634,28.6898474 C161.344844,28.5430854 161.488322,28.4679709 161.616346,28.3722867 C164.634476,26.116543 167.651683,23.8598748 170.666814,21.6006643 C171.400124,21.0510579 171.43657,20.8354217 170.913865,20.0854332 C169.704214,18.3499435 168.487643,16.6195384 167.275224,14.8861288 C167.16773,14.7324332 167.070386,14.572035 166.919295,14.3390648 L181.667393,14.3390648 Z" id="Fill-6" fill="#3A3A3A"></path>
                <path d="M6.02869327,42.9297842 L6.02869327,28.5027316 C6.21438529,28.7883975 6.32649252,28.9446355 6.42222195,29.1101183 C8.96262718,33.5035027 11.5062618,37.8952693 14.0346721,42.2955874 C14.3816047,42.8992762 14.7922032,43.3453403 15.5312805,43.3971114 C17.4149589,43.5286195 19.2984065,43.6092808 21.1350274,43.0550519 C23.6901958,42.2840314 25.4280885,40.6950725 25.9214988,37.9844822 C26.4317481,35.1812121 25.5888678,32.8133746 23.2057818,31.2412876 C21.2907319,29.9779787 19.2029077,28.9769924 17.1872843,27.8678414 C15.0032693,26.6662419 12.7396721,25.5903723 10.646081,24.2477888 C8.00694763,22.5557499 6.02292643,20.2322876 5.21164838,17.1146927 C3.64468454,11.0937522 6.04391771,4.7755897 13.2849838,2.28941808 C16.0496035,1.34020297 18.900495,1.10284142 21.80398,1.21978879 C25.1722718,1.35522586 28.497197,1.77517323 31.8096658,2.56791922 L31.8096658,16.2923632 C31.6334314,16.0402098 31.5227082,15.8964524 31.4272095,15.7434501 C28.912409,11.7147751 26.3849214,7.69395812 23.8980324,3.64818009 C23.4115424,2.85705195 22.8230948,2.40104966 21.8863304,2.3439627 C19.7692107,2.21499703 17.7498965,2.43895355 15.9541047,3.71335629 C13.2167045,5.65569954 12.3878953,10.8751114 15.7001334,13.5011114 C16.9397718,14.4838391 18.3245037,15.3096355 19.7219227,16.0600863 C22.5280636,17.5672281 25.4103267,18.9319993 28.2180823,20.4359055 C29.9536683,21.3654753 31.5056384,22.5753952 32.7637307,24.1174364 C34.9648155,26.8148529 35.4554576,29.9426172 34.8787743,33.2615188 C34.0317419,38.1358666 31.0320661,41.2629375 26.5833005,43.1151435 C23.4899713,44.4029513 20.2344788,44.7279078 16.922702,44.5890039 C13.442303,44.4429352 10.0015798,43.9894753 6.62590648,43.0996584 C6.44090648,43.0508918 6.2575212,42.9949604 6.02869327,42.9297842" id="Fill-8" fill="#3A3A3A"></path>
                <path d="M23.1956783,59.3705966 L23.1956783,60.0567957 C23.1956783,71.535203 23.2002918,83.0138414 23.185298,94.4922487 C23.1843753,95.2662739 23.4185087,95.8403792 24.004419,96.3553174 C25.3185648,97.5097682 26.583808,98.7199192 27.8748865,99.9007178 C28.0119065,100.025986 28.1890636,100.107109 28.3477668,100.209034 C28.3076297,100.262423 28.2674925,100.316043 28.227586,100.369663 L7.33365835,100.369663 C7.50735536,100.183841 7.6289202,100.035924 7.76824688,99.9071892 C9.06786035,98.7074387 10.3584776,97.4972876 11.6781596,96.3197247 C12.22301,95.8336767 12.4587581,95.2727453 12.4582968,94.5472556 C12.4495312,83.030251 12.4522993,71.5132465 12.4509152,59.9962419 C12.4509152,59.8083403 12.4340761,59.6204387 12.4239264,59.4068826 C11.0465761,59.4068826 9.70498005,59.3601961 8.37122693,59.4427064 C8.06973691,59.4611961 7.69650748,59.8765211 7.52442519,60.1991664 C5.60868329,63.7956446 3.72569701,67.409457 1.83440648,71.0191092 C1.32577182,71.9893563 0.820366584,72.9614524 0.31034788,73.9310062 C0.242991272,74.0588162 0.157180798,74.1769192 9.22693267e-05,74.4269924 L9.22693267e-05,58.2503517 L35.6423491,58.2503517 L35.6423491,74.2677499 L35.5447743,74.3019558 C35.0822743,73.4285485 34.6170062,72.556759 34.1577357,71.6815027 C32.1658716,67.8862602 30.1668566,64.0944844 28.1939077,60.2890725 C27.8746559,59.6735966 27.4700549,59.3463288 26.7586584,59.3632007 C25.5928354,59.3907041 24.4260898,59.3705966 23.1956783,59.3705966" id="Fill-10" fill="#3A3A3A"></path>
                <g id="Group-14" transform="translate(35.293017, 70.152243)">
                    <mask id="mask-4" fill="white">
                        <use xlink:href="#path-3"></use>
                    </mask>
                    <g id="Clip-13"></g>
                    <path d="M11.023947,15.348487 C11.0700817,15.3514915 11.1162163,15.354265 11.1625817,15.3572696 C11.1205991,18.4187021 11.2114844,21.4738943 11.7754807,24.4914137 C12.0446764,25.9303748 12.421366,27.3476105 13.3881178,28.5124618 C14.6012288,29.9740728 17.0212226,30.0859355 18.3840405,28.7641529 C19.2799757,27.895368 19.6605867,26.7700384 19.9671515,25.6139698 C20.7027687,22.8400522 20.8054183,19.9896334 20.839558,17.1482284 C20.8695455,14.6528119 20.7659732,12.1525419 20.6349507,9.65920549 C20.5246889,7.56455332 20.2370393,5.48584851 19.3706303,3.54119405 C18.7551939,2.15978215 17.7669894,1.23321693 16.1889532,1.16434279 C14.584851,1.09431304 13.4478622,1.83575011 12.7297762,3.27424897 C12.0492899,4.63763341 11.7007425,6.09785767 11.565568,7.5904389 C11.3318959,10.1716014 11.1990281,12.7620087 11.023947,15.348487 M15.9066091,0.0930956522 C18.9884046,0.0561162471 21.845063,0.531763844 24.5051877,1.88266773 C27.6349632,3.47208879 29.7827625,5.95687368 30.8577001,9.29426499 C32.2135979,13.5041391 32.2159046,17.7449835 30.7070704,21.9188027 C29.39823,25.5395487 26.8619769,28.0349652 23.29323,29.4302444 C19.5039595,30.9119629 15.5940468,31.0409286 11.6306178,30.2904778 C8.68722631,29.7332444 6.09422756,28.4946654 4.00801808,26.2990133 C2.33771259,24.5413359 1.31260037,22.4358211 0.777899626,20.0855487 C-0.0589831671,16.408178 -0.000622817955,12.7513771 1.22194576,9.16691716 C2.50864152,5.39455561 5.07049938,2.80345492 8.75573628,1.32890114 C11.0892276,0.395171167 13.5276752,0.0459469108 15.9066091,0.0930956522" id="Fill-12" fill="#3A3A3A" mask="url(#mask-4)"></path>
                </g>
                <g id="Group-17" transform="translate(155.473815, 70.152243)">
                    <mask id="mask-6" fill="white">
                        <use xlink:href="#path-5"></use>
                    </mask>
                    <g id="Clip-16"></g>
                    <path d="M16.484884,17.349951 C16.5261746,17.3497199 16.5672344,17.3497199 16.6085249,17.3494888 C16.6085249,16.8299281 16.6327456,16.3085185 16.5942232,15.7917314 C16.5819975,15.629022 16.4299838,15.3768686 16.2931945,15.3382714 C13.9938429,14.6881272 11.5581633,15.0606947 10.2892294,17.6707474 C9.34969701,19.6036146 9.28487781,21.6478824 9.87078803,23.6898389 C10.251399,25.0169373 11.0382257,26.075935 12.4981571,26.3035895 C14.1585436,26.5626764 15.3778828,25.7398847 16.3349464,24.4615529 C16.43898,24.322649 16.4779638,24.1047016 16.4786559,23.9230403 C16.4883441,21.7320105 16.484884,19.5409808 16.484884,17.349951 M16.6615798,14.8023011 C16.6615798,13.8584018 16.6650399,13.0157336 16.6608878,12.1728343 C16.6507382,10.1727108 16.6793416,8.17096934 16.6085249,6.17269474 C16.5681571,5.03257346 16.240601,3.93474737 15.6300087,2.94832174 C14.6655636,1.3905643 13.0282444,0.964145538 11.4250648,1.26876339 C11.153101,1.32053455 10.8682195,1.65958947 10.7171284,1.93601053 C9.18568828,4.734427 7.68123691,7.54740412 6.16663591,10.3548343 C6.07805736,10.5189304 5.9661808,10.670546 5.79294514,10.9407268 C5.4552394,10.2011387 5.15213466,9.55654142 4.86517706,8.90454828 C3.99761471,6.93493272 3.13789526,4.96185034 2.27125561,2.99154142 C1.98360599,2.33769931 1.97760848,2.31643616 2.63779551,2.10103112 C6.06398628,0.983097483 9.546,0.182262243 13.1735686,0.0974407323 C15.547889,0.0419716247 17.8908379,0.132571167 20.1613554,0.920463616 C23.073606,1.93092586 24.8862369,3.95577941 25.7217357,6.90511808 C26.4518167,9.48281373 26.4070661,12.1136673 26.2903454,14.7512233 C26.1694726,17.4793789 26.0315299,20.2070723 25.9364925,22.9361524 C25.9131945,23.6036307 25.9805511,24.2840517 26.0924277,24.9436719 C26.1985374,25.5697794 26.4933379,26.1452714 27.1842045,26.2982737 C27.8838367,26.4531249 28.5186496,26.2802462 28.99499,25.6945849 C29.0623466,25.6116124 29.1382382,25.5355735 29.3052456,25.3516009 C29.353687,26.7468801 28.8342107,27.7786055 28.0337743,28.6880677 C26.6718791,30.2351936 24.8631696,30.7566032 22.8982943,30.7230906 C20.588793,30.6835689 18.5904701,29.8954453 17.3515237,27.8033355 C16.9979015,27.2065803 16.8498092,26.4868686 16.6145224,25.8210082 C16.5589302,25.6638458 16.53148,25.4967451 16.3630885,25.3023721 C16.1972344,25.6294087 16.0424526,25.9629167 15.8636808,26.2827886 C14.0819601,29.4692577 10.8783691,31.1014362 7.2844788,30.6588389 C3.65575686,30.2118503 1.18709102,28.0668137 0.421024938,24.4934476 C-0.570639651,19.867324 1.46712843,15.7367245 6.12488404,13.9790471 C9.12340648,12.8474773 12.1445349,12.9685849 15.1377519,14.0407565 C15.6182444,14.2129419 16.0585998,14.4972211 16.6615798,14.8023011" id="Fill-15" fill="#3A3A3A" mask="url(#mask-6)"></path>
                </g>
                <path d="M142.526238,25.925868 C142.006992,24.7848222 141.535957,23.7595682 141.072765,22.7303851 C139.992752,20.3301906 138.90605,17.9330007 137.846799,15.5235613 C137.586368,14.9311975 137.108875,14.9201037 136.606238,14.9254195 C134.76385,14.9443714 133.439785,15.8307215 132.535084,17.4007284 C131.613775,18.9998565 131.243314,20.7667787 131.031555,22.5679069 C130.742983,25.0205659 130.691312,27.4810831 131.01956,29.9365156 C131.345041,32.3718405 131.983083,34.6946094 133.680839,36.5713142 C135.307547,38.3692066 137.368844,39.0697352 139.753314,38.8041769 C142.478719,38.5009458 144.420065,36.9986574 145.829941,34.7163348 C145.957042,34.5106368 146.097522,34.3132593 146.231543,34.1119526 L146.392784,34.1738931 C146.161418,35.0260373 145.984723,35.8978268 145.689922,36.7270899 C144.023999,41.4130739 140.679236,43.9489366 135.7539,44.4058634 C132.714548,44.6876002 129.833208,44.1657284 127.152784,42.651884 C124.354024,41.0712455 122.412908,38.7443165 121.381799,35.7233302 C119.883806,31.3341059 119.905259,26.9157604 121.576256,22.5716048 C122.892248,19.1503165 125.351917,16.7797055 128.678918,15.3100053 C131.158426,14.2144904 133.780259,13.786916 136.475215,13.8100281 C139.745471,13.8377627 142.917459,14.4606346 146.022784,15.463932 C146.366948,15.5751014 146.422079,15.7357307 146.300514,16.0604561 C145.121312,19.2078657 143.953413,22.3596666 142.778825,25.5089252 C142.740764,25.6106185 142.665795,25.6982135 142.526238,25.925868" id="Fill-18" fill="#3A3A3A"></path>
                <path d="M59.8138909,25.9094352 C59.3029495,24.7898838 58.8369894,23.7812705 58.3814096,22.7678037 C57.2947076,20.3498128 56.2045455,17.9334398 55.1353747,15.507822 C54.8874009,14.9455039 54.4267463,14.9226229 53.9416403,14.924703 C52.1017899,14.9325611 50.7627313,15.7964924 49.8497263,17.3648815 C48.9318772,18.941822 48.5519582,20.687481 48.3369707,22.4685016 C48.0343273,24.9782476 47.9791964,27.4960828 48.3222076,30.0088334 C48.646765,32.3836046 49.2811166,34.6458197 50.9069021,36.49687 C52.8434046,38.7019982 55.9907113,39.4526801 58.7454121,38.4334352 C60.6685355,37.7220439 62.0786415,36.4305382 63.1321266,34.7040622 C63.2562288,34.5004444 63.3983236,34.3081515 63.5321141,34.1105428 C63.5997014,34.1392018 63.6675193,34.1676297 63.7353373,34.1962888 C63.3685667,35.3528197 63.0979869,36.5511835 62.6179557,37.6582545 C60.812245,41.8232911 57.5542151,43.9893597 53.0835355,44.4028357 C50.0218086,44.6859593 47.1224757,44.1682476 44.427058,42.6419227 C41.6499819,41.0693735 39.7180929,38.7546938 38.6872138,35.7572819 C37.1714595,31.3504924 37.1926814,26.9127327 38.878442,22.5507808 C40.1997388,19.132497 42.6649445,16.765584 45.9930991,15.3007373 C48.4739906,14.2086892 51.0965156,13.7838883 53.7914719,13.810005 C57.0610355,13.8418998 60.233255,14.463616 63.3369645,15.4710737 C63.6423759,15.5699936 63.7274944,15.7119021 63.611235,16.0225291 C62.4271889,19.1881973 61.252831,22.3571011 60.071553,25.5236938 C60.0344146,25.6235382 59.9516029,25.7062796 59.8138909,25.9094352" id="Fill-20" fill="#3A3A3A"></path>
                <path d="M102.127681,14.322632 L115.333037,14.322632 L115.333037,15.0439616 C115.333037,23.2270416 115.340188,31.4101217 115.32058,39.5932018 C115.318735,40.3279364 115.516653,40.8745382 116.078804,41.3575817 C116.92376,42.0833025 117.714277,42.8725817 118.525325,43.6378243 C118.61621,43.7238014 118.689564,43.8282682 118.82174,43.9838128 L101.930225,43.9838128 C102.299533,43.6447579 102.559271,43.4094764 102.81578,43.170497 C103.532943,42.5023254 104.241802,41.8246778 104.968423,41.1669066 C105.35111,40.8204558 105.531728,40.4122957 105.531266,39.8966641 C105.527114,32.8689593 105.526883,25.8410233 105.531497,18.8130874 C105.531958,18.2174879 105.331964,17.7249684 104.897376,17.3242041 C103.909171,16.4124307 102.920967,15.5008883 101.932532,14.589346 C101.997582,14.5003643 102.062632,14.4116137 102.127681,14.322632" id="Fill-22" fill="#3A3A3A"></path>
                <path d="M85.8448672,100.384501 L68.9205966,100.384501 C69.6107712,99.7292721 70.218134,99.159327 70.8181153,98.5815238 C72.7952163,96.67824 72.4517438,97.5058854 72.4591253,94.850533 C72.4773485,88.401787 72.4552039,81.953041 72.4773485,75.504295 C72.4801166,74.6923659 72.2492126,74.0715741 71.6605343,73.5097183 C70.7489133,72.6395467 69.8961141,71.7074346 68.943664,70.7242446 L82.2807338,70.7242446 L82.2807338,71.5294712 C82.2807338,79.6723362 82.286962,87.81497 82.2705842,95.957835 C82.2689695,96.7062057 82.4728847,97.2699105 83.0539507,97.7695947 C83.9826415,98.5678876 84.8465131,99.4415261 85.8448672,100.384501" id="Fill-24" fill="#3A3A3A"></path>
                <path d="M115.09858,6.49540938 C115.110575,9.07310503 113.059659,10.9664506 110.255133,10.9669128 C107.512658,10.9673751 105.451592,9.05484645 105.451592,6.50927666 C105.451592,3.85669771 107.492358,1.86165881 110.214073,1.85380069 C113.048817,1.84548032 115.085893,3.78112105 115.09858,6.49540938" id="Fill-26" fill="#3A3A3A"></path>
                <path d="M82.0301534,62.8472384 C82.0728279,65.4249341 80.1040312,67.3069547 77.3091933,67.3603437 C74.5840187,67.412346 72.465515,65.5460416 72.4274539,63.0601011 C72.3854713,60.3190027 74.3452718,58.28606 77.0674476,58.2474627 C79.9598603,58.2063231 81.98448,60.0830279 82.0301534,62.8472384" id="Fill-28" fill="#3A3A3A"></path>
            </g>
        </g>
    </g>
</svg>