<?xml version="1.0" encoding="UTF-8"?>
<svg width="291px" height="97px" viewBox="0 0 291 97" version="1.1" xmlns="http://www.w3.org/2000/svg" xmlns:xlink="http://www.w3.org/1999/xlink">
    <!-- Generator: Sketch 41.2 (35397) - http://www.bohemiancoding.com/sketch -->
    <title>Page 1</title>
    <desc>Created with Sketch.</desc>
    <defs></defs>
    <g id="Page-1" stroke="none" stroke-width="1" fill="none" fill-rule="evenodd">
        <g fill="#3A3A3A">
            <path d="M98.9450032,2.18720669 L98.9450032,3.14785365 C98.9450032,11.5144431 98.9692658,19.8813342 98.9171239,28.2477728 C98.9097396,29.4101134 99.323258,30.2186981 100.138088,30.9154991 C100.442048,31.1754229 100.760476,31.433989 101.1107,31.6215022 C104.295425,33.326017 107.444584,33.1232673 110.472582,31.2709143 C112.557052,29.9957339 113.788716,28.0251103 114.4643,25.7045022 C115.388839,22.5283933 115.543456,19.2770076 115.316202,16.0001274 C115.157064,13.7042596 114.683115,11.468583 113.702215,9.37727512 C111.973093,5.69112426 109.249056,3.1561507 105.18033,2.29144774 C103.175429,1.86528134 101.134511,2.03182566 99.1050457,2.08085365 C99.0847013,2.08145708 99.0651104,2.10619736 98.9450032,2.18720669 M98.7949069,31.6641942 L98.7949069,33.8684928 L92.2560721,33.8684928 C92.4014967,33.5608988 92.4846827,33.3080652 92.6276961,33.09551 C93.2725376,32.1366733 93.9265718,31.1835691 94.594621,30.2404213 C94.8218753,29.9195519 94.9293238,29.5938552 94.9288717,29.1949936 C94.9202818,21.2762938 94.9190762,13.3575939 94.9312829,5.43889409 C94.9318857,4.99522846 94.78194,4.68959549 94.473911,4.38999673 C93.5012989,3.44428445 92.5514424,2.47518958 91.5942016,1.51378834 C91.4029644,1.32174946 91.1538587,1.15052862 91.3179701,0.770373095 C91.4903699,0.756192691 91.6829633,0.726172473 91.8757075,0.726323328 C95.7429483,0.727681026 99.6104905,0.707918974 103.47743,0.74578367 C105.956129,0.77022224 108.378467,1.19141042 110.678889,2.14647574 C114.616054,3.78099362 117.323966,6.63713826 118.663832,10.6690496 C120.305699,15.6100154 120.317454,20.6143404 118.62887,25.5485177 C117.0078,30.2849236 113.627317,33.1519299 108.775257,34.2572471 C106.845405,34.6968397 104.887522,34.6731554 102.950134,34.2165162 C101.410592,33.853709 100.097851,33.1220605 99.1526666,31.814597 C99.0947981,31.7344928 99.0620964,31.6359843 99.0177909,31.5460745 C98.9434962,31.5854477 98.8692016,31.624821 98.7949069,31.6641942" id="Fill-1"></path>
            <path d="M184.160684,34.154047 C183.669706,35.9867888 183.442452,37.7622056 184.17937,39.5131838 C184.844556,41.0938463 186.164982,41.9282274 187.756063,42.3734016 C189.403355,42.8344156 191.08561,42.8543285 192.757767,42.5886722 C193.617355,42.4521481 194.483272,42.2211885 195.284991,41.8861387 C196.560358,41.352865 197.311744,40.3635555 197.394327,38.9332958 C197.479924,37.4479739 196.870497,36.3793145 195.546756,35.6800998 C194.45268,35.1021729 193.285515,34.8918806 192.073593,34.8120781 C189.870824,34.6669552 187.668507,34.5130827 185.466944,34.3497064 C185.049507,34.318781 184.636592,34.227061 184.160684,34.154047 M194.508439,20.9443969 C194.508439,20.5678619 194.538428,20.1883098 194.503164,19.8149428 C194.361959,18.3174016 193.96773,16.9007188 193.063234,15.6689848 C192.220073,14.5208246 191.126298,13.7774093 189.671298,13.6805602 C187.236151,13.5186924 185.350453,14.949103 184.85405,17.4036706 C184.428627,19.5068961 184.64925,21.5684855 185.630904,23.490232 C185.979019,24.1717966 186.456886,24.8197204 186.994279,25.3659677 C188.903185,27.3067219 192.704118,27.272176 194.087084,23.8248292 C194.458859,22.8984264 194.579569,21.9343098 194.508439,20.9443969 M186.647973,27.4847313 C186.047587,28.6422445 185.475383,29.7456006 184.854201,30.9430905 C185.195535,30.9719039 185.410431,31.0059972 185.625328,31.0056955 C188.011348,31.0029801 190.391339,31.1001309 192.764398,31.3674467 C194.502411,31.5631061 196.146086,32.0363393 197.718481,32.816865 C199.838968,33.8693829 200.697199,35.6662212 200.43875,38.1115866 C200.199742,40.3717017 198.915182,41.8802554 196.887375,42.7908184 C195.221396,43.5389101 193.468615,43.9450128 191.643498,44.0211947 C188.908158,44.1353922 186.23355,43.8499739 183.670158,42.8116364 C182.429151,42.3086846 181.079791,41.4991947 180.092862,40.6007002 C181.186938,38.4134482 182.292919,36.202512 183.424217,33.9408883 C183.173152,33.790033 182.963681,33.6667841 182.756771,33.5391605 C180.962246,32.4323347 180.698371,30.1320921 182.191498,28.6306286 C182.887276,27.9308106 183.750782,27.5511076 184.686624,27.3056659 C184.899109,27.2498495 185.110691,27.1907142 185.44253,27.1005026 C185.011832,26.8543067 184.687076,26.6784093 184.371813,26.4871247 C180.212668,23.9643705 180.076738,18.7658946 182.024976,16.0121807 C182.82775,14.8772958 183.854915,13.9937359 185.125007,13.4545788 C188.109001,12.1879972 191.132477,12.1536022 194.112854,13.4422087 C194.949083,13.8036582 195.675905,14.4191481 196.555837,14.9841014 C196.684082,14.9210439 196.928667,14.8063938 197.168278,14.682089 C198.215185,14.1390096 199.254105,13.5796379 200.311108,13.0569241 C200.609493,12.9093876 200.959567,12.8663938 201.28583,12.775428 C201.463354,13.408568 201.507659,16.2009008 201.376551,17.5896753 C200.773604,17.439725 200.180754,17.2946022 199.589109,17.1446519 C198.991285,16.9930423 198.394668,16.8366053 197.743045,16.6682507 C197.937296,17.398089 198.152343,18.0119194 198.260998,18.6440034 C198.99234,22.9000858 196.589594,26.5406784 192.394884,27.5458277 C190.685654,27.9554 188.96678,27.9808946 187.246851,27.5937997 C187.077616,27.5557841 186.905367,27.5311947 186.647973,27.4847313" id="Fill-3"></path>
            <path d="M179.238504,76.6789978 C179.238504,74.7193866 179.212734,72.7593229 179.253875,70.8007677 C179.266534,70.1997599 179.052993,69.8036137 178.609184,69.4577023 C176.312078,67.6681051 173.746877,67.2428439 171.013346,68.1159947 C168.764011,68.8345188 167.497535,70.563623 166.920659,72.7732016 C166.217497,75.4664224 166.355085,78.1616044 167.324231,80.7721565 C168.577897,84.148903 171.219201,85.853116 174.790921,85.6506681 C176.314037,85.564228 177.691879,85.0986883 178.753554,83.9218656 C179.087805,83.5515157 179.255533,83.152805 179.248751,82.6328065 C179.223133,80.6484551 179.238504,78.663651 179.238504,76.6789978 M185.405715,87.429102 L179.28733,87.429102 C179.256437,86.9490802 179.226749,86.4871611 179.192541,85.9563011 C179.05224,86.0128719 178.954888,86.0265997 178.892951,86.0807568 C177.6426,87.1779278 176.165598,87.76913 174.537595,87.9759527 C172.411683,88.2459838 170.321788,88.1403851 168.364507,87.1441362 C166.038617,85.9603742 164.441207,84.0840351 163.547259,81.6729138 C162.219449,78.0911549 162.265865,74.5086417 164.11856,71.1039869 C165.690352,68.2155593 168.208082,66.6282591 171.467101,66.2040538 C173.13097,65.9874255 174.787605,65.9964768 176.384112,66.5291471 C177.324625,66.8430771 178.20516,67.3366759 179.150345,67.7664628 C179.167525,67.7003882 179.232777,67.5679372 179.231572,67.4362404 C179.211981,65.3253213 179.228256,63.2124411 179.134521,61.1046899 C179.100765,60.344228 178.850604,59.5783353 178.604211,58.8469885 C178.3432,58.0721953 177.788176,57.4749589 177.097823,56.9389698 C177.275648,56.8196432 177.405701,56.7161565 177.549619,56.6386168 C178.853166,55.9350274 180.165906,55.2481829 181.460713,54.5287537 C181.882972,54.2941736 182.296942,54.2232715 182.846241,54.3495375 L182.846241,55.3009823 C182.846241,64.4518687 182.850762,73.6027552 182.835993,82.7534908 C182.835089,83.3620414 182.957155,83.8636355 183.347918,84.3444115 C183.949509,85.0845079 184.498205,85.8685033 185.048859,86.6482747 C185.193982,86.8537397 185.264057,87.1121549 185.405715,87.429102" id="Fill-5"></path>
            <path d="M52.4831535,33.8867916 L44.3711706,33.8867916 C44.4760572,33.5966967 44.5257879,33.3409969 44.6516217,33.1310062 C45.1805756,32.2475972 45.7485606,31.3874199 46.2656093,30.4973733 C46.4208294,30.2305101 46.5344565,29.8947061 46.5359635,29.5898274 C46.5510334,26.4485661 46.5460603,23.3070031 46.5309904,20.1657418 C46.5260173,19.1284603 46.3501515,18.1156174 45.9479355,17.1515008 C45.2813933,15.5534899 44.0572644,14.7188072 42.3569262,14.5910327 C39.662878,14.3884339 37.4121867,15.8194479 36.6761722,18.2144277 C36.5162804,18.7344261 36.4320396,19.2981726 36.4282721,19.8426096 C36.4056673,23.0592986 36.4216414,26.2762893 36.4110924,29.4931291 C36.4097361,29.8871633 36.5025668,30.2229673 36.7150526,30.5525863 C37.2456642,31.3756532 37.7592468,32.2100342 38.2693633,33.0463764 C38.4068009,33.2716034 38.5070158,33.5197605 38.6307398,33.7703313 C38.0079003,33.9504526 31.3729195,33.9745894 30.5481432,33.802916 C30.6684011,33.5461602 30.7586699,33.2963437 30.8939977,33.0739829 C31.4164715,32.2159176 31.9440691,31.3605677 32.4891479,30.5168336 C32.7029899,30.1858569 32.7872307,29.8468849 32.7867786,29.454661 C32.7795451,22.5433733 32.7863265,15.6322364 32.7744213,8.72109953 C32.7732157,7.96923639 32.7277046,7.20967963 32.6133239,6.46747123 C32.3866724,4.99602799 31.8666098,3.6535661 30.5731592,2.66048523 C30.7928786,2.52275428 30.9467424,2.41353499 31.1114565,2.32468118 C32.3928511,1.63376361 33.683137,0.959138414 34.9553389,0.25192846 C35.3986958,0.00558164852 35.836326,-0.065622084 36.3945155,0.062755832 L36.3945155,15.8654588 C36.6338257,15.6521493 36.7724689,15.5673686 36.8592716,15.4456283 C39.2103286,12.1485334 44.4196958,11.3827916 48.0396393,14.4591851 C49.3223902,15.5492659 49.8816346,17.0691337 50.0927641,18.7066687 C50.1887595,19.4520451 50.2210091,20.2097916 50.2250779,20.9622582 C50.2399972,23.7517247 50.2402985,26.541493 50.2226668,29.3309596 C50.2195021,29.8548802 50.3231831,30.3047309 50.6179505,30.7441726 C51.1353006,31.5154961 51.6115098,32.314577 52.0958568,33.1076236 C52.220485,33.3117309 52.3107538,33.5368072 52.4831535,33.8867916" id="Fill-7"></path>
            <path d="M63.2992965,54.3158816 L85.4614105,54.3158816 C85.9918714,56.685216 86.5167564,59.0302627 87.0420935,61.3763653 C86.5431287,61.6586157 86.267048,61.3801367 85.9798154,61.0772191 C84.4242991,59.4357619 82.8528087,57.8095411 81.309499,56.1567697 C80.942396,55.7634897 80.5778548,55.5684337 80.0139387,55.5747697 C77.1511075,55.606751 74.2876735,55.5886484 71.424541,55.5909112 C71.1789014,55.5912129 70.9334125,55.6120309 70.6392479,55.6254571 L70.6392479,68.3381896 C70.921658,68.3541802 71.1656399,68.3793731 71.4097724,68.3798257 C72.9921132,68.3834462 74.574454,68.3707743 76.156644,68.3884244 C76.6295379,68.3937044 77.0267807,68.291877 77.4098579,67.9954462 C78.1446668,67.427174 78.9094648,66.8972191 79.6704954,66.3637946 C79.862034,66.2295333 80.0868771,66.1427914 80.3138299,66.0251243 C80.4878874,66.664751 80.5202877,71.953891 80.3796854,72.7786173 C80.0416673,72.9430496 79.8701717,72.6758848 79.6786331,72.4939532 C78.8586792,71.7155395 78.0439998,70.931695 77.2317315,70.1454369 C77.0088475,69.9297137 76.7829496,69.7848925 76.4429723,69.7882114 C74.6097176,69.8060123 72.7761614,69.7990729 70.9427559,69.803146 C70.8698175,69.8032969 70.7968791,69.8278863 70.6482898,69.8548894 C70.6293017,70.0541694 70.5913255,70.268384 70.5911748,70.4829003 C70.5877088,74.5808863 70.5932846,78.6790232 70.581078,82.77716 C70.5798724,83.1809998 70.7038978,83.4997572 70.934166,83.8151958 C71.6157781,84.7486888 72.2851836,85.6910823 72.9494654,86.6370963 C73.0988082,86.8498023 73.2076129,87.0911709 73.3899589,87.4174711 L63.9313286,87.4174711 C63.7562163,87.1183249 63.9860324,86.9152736 64.1358273,86.7031709 C64.8172888,85.7386017 65.4934757,84.7698086 66.1976927,83.8221351 C66.4671427,83.4596297 66.5741391,83.0918443 66.5735363,82.6404851 C66.5628367,74.7963078 66.562686,66.9519796 66.573687,59.1078023 C66.5742898,58.628384 66.4615669,58.2483793 66.1413312,57.8807448 C65.3325291,56.9526826 64.5574835,55.9950527 63.7770127,55.0427028 C63.6284234,54.8612238 63.5166047,54.6495737 63.2992965,54.3158816" id="Fill-10"></path>
            <path d="M8.73723356,33.8693829 C8.90948265,33.5406691 9.0041217,33.2928137 9.15406732,33.0850858 C9.84472139,32.127456 10.5430611,31.1752569 11.2555665,30.2340703 C11.4939726,29.9192351 11.6056406,29.5979132 11.6053392,29.1969397 C11.5967494,20.374767 11.5988591,11.5524435 11.5972015,2.73012006 C11.5970508,2.53355552 11.5744459,2.33684012 11.5598281,2.09758351 C11.3413143,2.07495521 11.1494744,2.03859907 10.9574837,2.03799565 C9.5513102,2.03301742 8.14498602,2.04961151 6.73941533,2.02637978 C6.32062248,2.01944044 6.04092491,2.17120093 5.76725531,2.47019627 C4.17361212,4.21257574 2.56233713,5.93896454 0.962967374,7.67621493 C0.698490419,7.96344355 0.446521491,8.23784946 0.00271258415,8.07960218 C-0.0595261523,7.53938911 0.988435526,1.81804852 1.35041481,0.764022084 L25.9396888,0.764022084 C26.4088151,3.17499253 26.8770373,5.58143733 27.3469171,7.99663173 C26.8728177,8.28084323 26.587695,8.02574681 26.301668,7.71513561 C24.7185738,5.996893 23.1184505,4.29433935 21.5528374,2.56055863 C21.199448,2.16908896 20.8365645,2.01235023 20.3169539,2.02487123 C19.037217,2.05579658 17.7561238,2.03497854 16.4756334,2.03497854 L15.6546245,2.03497854 C15.641363,2.34136579 15.6219228,2.5836395 15.6219228,2.82576236 C15.6202651,11.597851 15.622827,20.3697888 15.6136344,29.1417266 C15.6131823,29.567893 15.7243982,29.9104855 15.9814909,30.2474964 C16.6976132,31.1861185 17.3920347,32.1413347 18.0838944,33.0980594 C18.2348949,33.3068432 18.3397815,33.5492678 18.5176064,33.8693829 L8.73723356,33.8693829 Z" id="Fill-12"></path>
            <path d="M211.638302,12.7295076 L211.638302,15.6978886 C211.686526,15.7076942 211.73475,15.7174998 211.782973,15.7273054 C211.878215,15.6244221 211.981143,15.5277238 212.067343,15.4177502 C214.045118,12.8980131 216.65372,12.1573132 219.712761,12.7153272 C220.838483,12.9206414 221.869115,13.3896507 222.816861,14.0157005 C224.407039,15.0659555 225.188866,16.6398295 225.501265,18.4602012 C225.631921,19.2221717 225.658293,20.0085807 225.663116,20.7844299 C225.681049,23.6490224 225.677583,26.5139166 225.662965,29.3785092 C225.660705,29.8508373 225.764386,30.254828 226.024492,30.6500691 C226.548925,31.4470379 227.047287,32.2616569 227.53932,33.079293 C227.672538,33.3007487 227.744572,33.5593148 227.88005,33.8865201 L219.775603,33.8865201 C219.913944,33.5737969 219.994568,33.3218684 220.127786,33.1020722 C220.648452,32.2429509 221.199408,31.4022339 221.707867,30.5363241 C221.85299,30.289223 221.968576,29.9804221 221.969631,29.6993785 C221.981235,26.4077145 222.000223,23.1152961 221.939491,19.8245372 C221.924572,19.0133879 221.707867,18.1808171 221.445349,17.404968 C220.970044,15.9997502 219.955085,15.1250908 218.50762,14.7517238 C215.452798,13.9639571 212.573993,15.5965138 211.780562,18.6081904 C211.654728,19.0857984 211.630315,19.6006678 211.628205,20.0986414 C211.614944,23.2397518 211.625041,26.3810131 211.615999,29.5221235 C211.614944,29.9146491 211.706569,30.2503023 211.922069,30.5815807 C212.456146,31.4023848 212.967167,32.2382743 213.47442,33.0759742 C213.609748,33.2995418 213.698208,33.5514703 213.850113,33.8815418 L205.742802,33.8815418 C205.882801,33.5520737 205.965535,33.273293 206.110357,33.0317736 C206.613994,32.1919617 207.155455,31.3746274 207.646584,30.5277253 C207.802105,30.2596554 207.926734,29.9267176 207.927638,29.6230457 C207.938639,26.3313816 207.952955,23.0389633 207.891621,19.7482044 C207.875948,18.9095994 207.653365,18.0596802 207.422946,17.2441561 C207.165703,16.3329897 206.580538,15.6011904 205.808808,14.9795154 C205.959507,14.8837222 206.055352,14.8040706 206.16491,14.7560986 C207.543506,14.1511686 208.916827,13.5335667 210.308985,12.9618249 C210.661772,12.8170037 211.076044,12.8222837 211.638302,12.7295076" id="Fill-14"></path>
            <path d="M142.797784,66.4332484 L142.797784,69.2590711 C142.870421,69.29769 142.943209,69.336309 143.015846,69.3747771 C143.085016,69.2460975 143.136857,69.1038409 143.225468,68.9903977 C145.218464,66.441998 147.846657,65.6946605 150.937646,66.283449 C152.06367,66.4979653 153.092041,66.9701426 154.034664,67.6037351 C155.566671,68.6336247 156.335839,70.1642033 156.652308,71.9284568 C156.78869,72.6889187 156.814008,73.4763837 156.819282,74.252082 C156.837818,77.0676465 156.837215,79.8835128 156.818077,82.6992281 C156.814008,83.2985765 156.917086,83.8220446 157.265502,84.3268067 C157.778783,85.0702219 158.238717,85.851351 158.706337,86.6253899 C158.841815,86.8498627 158.925905,87.1052608 159.03908,87.3586978 C158.281214,87.5499824 151.61097,87.5329358 150.955881,87.3327507 C151.079906,87.0845936 151.181025,86.8394537 151.317709,86.6161877 C151.829182,85.780449 152.375165,84.9649249 152.859211,84.1139498 C153.035981,83.802886 153.162116,83.4147351 153.164979,83.0605267 C153.188338,80.0690649 153.190297,77.0771504 153.171007,74.0855376 C153.164376,73.0542904 153.029802,72.0364692 152.666768,71.0536465 C152.106921,69.5384552 151.059712,68.6128067 149.484455,68.2602577 C146.473335,67.5862359 143.675004,69.2536403 142.931906,72.20769 C142.811196,72.6877118 142.78829,73.2021286 142.786331,73.7008565 C142.773672,76.8182826 142.785577,79.9358596 142.772768,83.0531348 C142.77111,83.4770384 142.887149,83.8292857 143.113499,84.178365 C143.632808,84.979407 144.134033,85.7923666 144.629532,86.6083432 C144.765613,86.8325143 144.85558,87.0847445 144.971317,87.3344101 C144.35963,87.5202639 137.938943,87.5635594 136.93604,87.3941488 C137.037159,87.1366387 137.0997,86.8804863 137.229301,86.6644614 C137.73354,85.8243479 138.249232,84.990872 138.78105,84.1681068 C138.993385,83.8396947 139.105957,83.509774 139.103546,83.1128736 C139.083804,79.8448938 139.103847,76.5764614 139.048842,73.3092359 C139.03558,72.5187538 138.841028,71.7183152 138.635324,70.9475952 C138.377628,69.9815174 137.817178,69.1782126 136.948398,68.5343619 C137.195695,68.3987429 137.360409,68.2914848 137.538083,68.2136434 C138.779693,67.6699607 140.02914,67.1442297 141.26427,66.5863666 C141.717573,66.3816558 142.164245,66.294914 142.797784,66.4332484" id="Fill-16"></path>
            <path d="M89.7386734,76.4237204 C89.7386734,76.8254482 89.7171235,77.2283829 89.7422902,77.6284513 C89.8622467,79.5263627 90.2480365,81.3606131 91.1780007,83.0393316 C92.1867806,84.8603067 93.5686916,86.2487795 95.6612995,86.7850703 C98.2066077,87.4373689 100.45097,86.5904669 101.827757,84.3573549 C102.270059,83.6400376 102.628723,82.8436722 102.874362,82.0371994 C103.625899,79.5690547 103.657998,77.0487142 103.232574,74.5157017 C102.928011,72.7022694 102.246851,71.0570407 101.113895,69.593442 C98.4835926,66.1958774 92.9978433,66.3165617 90.8981525,70.6566706 C90.0109867,72.4903176 89.6990396,74.4165897 89.7386734,76.4237204 M97.1384523,88.0925337 C94.3845766,88.0816722 92.1503114,87.5440236 90.1149691,86.256624 C87.1315787,84.369725 85.6176553,81.6267219 85.3580007,78.1439241 C85.2430173,76.6027857 85.3644808,75.0821636 85.8003026,73.5962383 C86.7035932,70.5156208 88.7612389,68.4019863 91.6195491,67.1637655 C96.1224388,65.2133565 100.398074,65.7924902 104.274658,68.829963 C106.235254,70.366274 107.356908,72.4246955 107.714064,74.9011372 C107.997982,76.8707048 107.897013,78.8149288 107.304163,80.7120858 C106.389118,83.6406411 104.40652,85.6482243 101.7185,87.0090905 C100.164943,87.7956504 98.5063482,88.1291916 97.1384523,88.0925337" id="Fill-18"></path>
            <path d="M111.671318,68.4910212 C113.056243,67.8112669 114.420522,67.1214053 115.806351,66.4783089 C116.08213,66.3503835 116.440644,66.4010709 116.859436,66.3597365 C116.882041,66.7030834 116.917305,66.9909154 116.917606,67.2785966 C116.921223,71.5517257 116.916551,75.8248547 116.92273,80.0979838 C116.924237,81.10434 116.98964,82.1078299 117.324192,83.0696837 C118.185287,85.5459745 119.660029,86.1601067 121.664629,86.2118501 C122.356187,86.2298019 123.071254,86.1127381 123.743824,85.9360865 C125.526746,85.4678314 126.499207,84.1657988 126.973005,82.4765204 C127.173887,81.7607117 127.25421,80.991651 127.264759,80.2450678 C127.296405,77.9834442 127.278472,75.7209154 127.254059,73.45899 C127.247277,72.8330911 127.183381,72.2031191 127.087687,71.5840087 C126.89434,70.3317583 126.645234,69.8769294 125.516197,68.5127443 C125.768618,68.3884395 126.006873,68.2674535 126.248142,68.1531051 C127.336491,67.6368781 128.430718,67.1328703 129.512134,66.6026137 C129.937709,66.3938299 130.357707,66.3263975 130.920568,66.4704644 L130.920568,67.3368267 C130.920568,72.4895935 130.925391,77.642511 130.913486,82.7952778 C130.912129,83.3395639 131.008727,83.8242622 131.285411,84.2988532 C131.702395,85.0143602 132.079746,85.7538532 132.455288,86.4925919 C132.585492,86.7487443 132.660088,87.0334084 132.762564,87.3121891 C132.139574,87.4852202 128.69414,87.5304768 127.439268,87.3942544 C127.406868,86.7591533 127.373563,86.1050445 127.340108,85.4509356 C127.281637,85.4219714 127.223316,85.3930072 127.164845,85.3640429 C127.087084,85.4897054 127.020927,85.624721 126.929604,85.7398236 C125.879683,87.064032 124.523843,87.8391269 122.835862,88.0178905 C120.717786,88.2422124 118.696007,87.9782156 116.766907,86.9975048 C114.832232,86.013777 113.817424,84.4070165 113.442635,82.3457288 C113.313486,81.6350491 113.288018,80.898875 113.280935,80.1737132 C113.26044,78.0876852 113.299471,76.0007521 113.262098,73.9151767 C113.244617,72.9394442 113.127071,71.96341 113.014951,70.9920523 C112.910517,70.0876743 112.535125,69.3074504 111.808906,68.7221316 C111.75586,68.6794395 111.733557,68.598581 111.671318,68.4910212" id="Fill-20"></path>
            <path d="M70.9342263,20.7169523 C71.0249472,19.4526334 70.7948296,18.3625526 70.37242,17.3064142 C69.4001093,14.8749274 67.4838193,13.5949196 64.8880269,13.6863379 C63.1781947,13.7465292 61.8069834,14.4882851 60.8193014,15.8971233 C59.798767,17.3528776 59.3404909,19.0051964 59.1775852,20.7530067 C59.1599534,20.9409725 59.1979296,21.1340673 59.2145065,21.3947454 C63.1347934,21.1680098 66.999623,20.9444421 70.9342263,20.7169523 M73.6035598,28.6332384 C73.969608,28.7872617 74.3312859,28.9394748 74.7342553,29.1090362 C74.3505753,30.1264048 73.791783,30.9484157 73.1255422,31.6998263 C71.4994987,33.533775 69.4103568,34.3738885 67.0064045,34.514184 C64.3331528,34.6701684 61.7901051,34.2316319 59.5404687,32.6929072 C56.573203,30.6634499 55.1376432,27.760691 54.9067721,24.2243395 C54.7293993,21.5074344 55.4149296,19.0021793 56.8437079,16.6925837 C57.7766862,15.1846334 59.0990709,14.1330207 60.7211963,13.4784593 C63.6714329,12.2879087 66.6819492,12.1628496 69.6879446,13.2266816 C72.3907333,14.1832555 73.9901031,16.1756023 74.656796,18.9290145 C74.9343837,20.0750627 75.0680539,21.2457003 74.9251911,22.5110751 C73.166231,22.6005323 71.4166142,22.5379274 69.6691072,22.5493924 C67.9371222,22.5608574 66.2049865,22.5519569 64.4728509,22.5519569 L59.1139902,22.5519569 C59.1888876,23.2730456 59.2218907,23.8923068 59.3219549,24.5004048 C59.6411357,26.4394997 60.3209394,28.2061669 61.6344329,29.7273924 C64.5352403,33.0872431 69.6903558,32.7506848 72.1149539,30.3547998 C72.6288379,29.8470207 73.0651119,29.2606459 73.6035598,28.6332384" id="Fill-22"></path>
            <path d="M139.909892,20.7168467 C140.010559,19.4372914 139.773961,18.0942261 139.230691,17.0020333 C138.13993,14.808898 136.461745,13.5399026 133.906943,13.6788404 C132.165313,13.7734267 130.77647,14.4976834 129.777938,15.9439337 C128.82567,17.3230535 128.376134,18.8777689 128.188363,20.521489 C128.158374,20.7847316 128.184144,21.054461 128.184144,21.3967518 C132.139694,21.1673008 136.011456,20.942828 139.909892,20.7168467 M143.967917,22.5485325 L128.214585,22.5485325 C128.080463,23.2842541 128.213078,23.9222215 128.320979,24.5571717 C128.645584,26.4703194 129.319963,28.2122463 130.613263,29.7147658 C133.521304,33.0931717 138.672501,32.7481655 141.091975,30.3663101 C141.607216,29.8589835 142.045599,29.273363 142.586006,28.6467098 C142.909105,28.7773505 143.289771,28.9313739 143.713085,29.1027456 C143.361052,30.1211701 142.790505,30.9339788 142.129388,31.6840317 C140.509373,33.5220535 138.422491,34.3722743 136.017183,34.5121173 C133.181477,34.6770022 130.510185,34.1755589 128.179321,32.4440411 C125.706349,30.6069244 124.371004,28.1096647 123.9822,25.0702308 C123.65021,22.4753677 124.111349,20.0360364 125.262992,17.6946103 C126.316228,15.5529166 127.950711,14.0754392 130.176085,13.2854096 C132.931919,12.3069617 135.738389,12.2147891 138.517281,13.1611048 C141.342437,14.1231095 143.016102,16.1688591 143.672698,19.0530628 C143.833343,19.7589151 143.890157,20.4905636 143.960985,21.2137642 C143.999715,21.6094579 143.967917,22.0122417 143.967917,22.5485325" id="Fill-24"></path>
            <path d="M246.381638,20.7038731 C246.500539,19.3639757 246.151671,17.7510302 245.509843,16.6239897 C244.369352,14.621083 242.707744,13.533265 240.338151,13.6783879 C238.628319,13.7832323 237.259368,14.4981359 236.270631,15.9069742 C235.448266,17.0788187 234.976276,18.3969928 234.757461,19.799646 C234.67955,20.2994299 234.516342,20.8180706 234.706374,21.3956958 C238.620784,21.1535729 242.511383,20.9654563 246.381638,20.7038731 M250.369739,22.5575838 L234.575567,22.5575838 C234.63645,23.1940426 234.663877,23.7384796 234.744199,24.2749213 C235.047406,26.2977409 235.725703,28.1442106 237.094804,29.7281919 C240.002242,33.0925683 245.159468,32.7484672 247.579545,30.3489617 C248.092977,29.8399757 248.529401,29.2534501 249.054739,28.6403739 C249.379043,28.7705621 249.741776,28.9162883 250.155294,29.0823801 C250.095015,29.2763801 250.067135,29.4439804 249.994348,29.5889524 C248.479068,32.6062106 246.02855,34.2366554 242.67248,34.4985403 C240.694554,34.6530162 238.747672,34.475912 236.905225,33.7015714 C233.539661,32.2873023 231.446601,29.7662075 230.655732,26.20587 C229.906908,22.8345543 230.48062,19.6684019 232.284639,16.7228 C233.344657,14.9920364 234.900474,13.8861157 236.778638,13.2406056 C239.467863,12.3163148 242.203806,12.2261033 244.910211,13.1357611 C247.95569,14.1593148 249.654069,16.3762852 250.23411,19.4956725 C250.413743,20.4617502 250.475379,21.4364267 250.369739,22.5575838" id="Fill-26"></path>
            <path d="M223.62372,66.7296792 L229.470695,66.7296792 C229.426239,66.9959389 229.439651,67.2472639 229.343354,67.4451862 C225.805843,74.7242593 223.073668,82.3453215 219.878696,89.7696683 C219.382444,90.922505 218.930648,92.094802 218.430025,93.2456776 C218.272394,93.6080322 218.288067,93.8979762 218.49573,94.2297072 C218.881972,94.8465547 219.2438,95.4796947 219.594477,96.1176621 C219.719105,96.3446994 219.781495,96.6059809 219.900698,96.9282079 L214.072259,96.9282079 C214.131483,96.6986061 214.179858,96.4993261 214.23637,96.3024599 C214.249481,96.256449 214.286854,96.2155672 214.319104,96.1774008 C215.85955,94.3635159 216.705877,92.1868238 217.545873,90.0057569 C217.789554,89.3732204 218.031878,88.7385719 218.31474,88.1232328 C218.511252,87.6957087 218.484729,87.3437631 218.254762,86.9237818 C216.964627,84.5669684 215.704933,82.1932593 214.434992,79.8252826 C212.275021,75.7972935 210.113694,71.7700586 207.959149,67.7392033 C207.812669,67.4652499 207.718633,67.1632375 207.598526,66.8704272 C208.212022,66.6614925 214.904269,66.6278518 215.769583,66.8188347 C215.663792,67.0731768 215.589045,67.3261613 215.460499,67.5480695 C215.020156,68.3088331 214.5661,69.0617523 214.106166,69.8105983 C213.938137,70.0842499 213.866856,70.3204894 214.035036,70.6446776 C216.127945,74.6790026 218.205936,78.7211722 220.290858,82.7597212 C220.322203,82.8205159 220.393183,82.8609451 220.499425,82.9620182 C220.61682,82.7167274 220.729694,82.5076418 220.819812,82.2890524 C222.389343,78.4823681 223.948326,74.671309 225.53353,70.8712624 C225.730644,70.3987834 225.722054,70.0454801 225.406942,69.6297227 C224.907224,68.970183 224.461004,68.2688565 224.010715,67.5731115 C223.870715,67.3567849 223.791297,67.1012359 223.62372,66.7296792" id="Fill-28"></path>
            <path d="M274.569893,34.2600379 L274.569893,28.2505636 C274.70944,28.2300473 274.847933,28.1980659 274.98748,28.1926351 C275.135617,28.1867518 275.284809,28.2059104 275.453592,28.2152635 C275.710384,28.7375247 275.937186,29.2656694 276.220048,29.7618327 C277.845338,32.6119431 280.896845,33.9151826 284.055348,33.1239462 C285.689227,32.7148264 286.710063,31.5621406 286.850515,29.9730302 C286.932646,29.0430068 286.66621,28.2365341 286.013381,27.5637191 C285.213018,26.7391437 284.242968,26.1610659 283.209172,25.6949229 C281.951437,25.1277067 280.673509,24.6051437 279.406732,24.0578404 C278.365702,23.6082914 277.371842,23.0798451 276.510144,22.3264734 C274.872949,20.8953086 274.111466,19.1401064 274.532218,16.9560224 C274.790667,15.6143148 275.587865,14.653517 276.720068,13.935898 C278.090827,13.0669711 279.607162,12.6653941 281.204572,12.5603988 C283.154619,12.4321717 285.067744,12.6400504 286.888491,13.3944781 C288.297829,13.9784392 289.411496,14.9075574 290.139674,16.3510924 C289.781613,16.6197658 289.445403,16.8751639 289.105878,17.1260364 C288.237248,17.7674734 287.357165,18.3938249 286.5024,19.0530628 C286.143435,19.3298824 285.875944,19.3054439 285.58856,18.915181 C285.62518,18.7534641 285.664965,18.5611235 285.712134,18.3705932 C286.311765,15.9449897 284.668241,13.7698062 282.181555,13.6808016 C281.258975,13.6477642 280.384166,13.7652806 279.584858,14.271702 C277.803595,15.400251 277.545447,17.8780504 279.067207,19.3399897 C279.948947,20.1870426 280.988771,20.7889555 282.107109,21.25887 C283.425727,21.8128109 284.753537,22.3444252 286.072305,22.8977627 C287.600394,23.538898 288.952617,24.4229104 289.956876,25.7762339 C291.467182,27.8117253 291.128712,30.8846491 289.208353,32.5356103 C288.335052,33.2864174 287.320847,33.7750379 286.21788,34.0675465 C283.738578,34.7249742 281.261084,34.7749073 278.799264,33.967982 C278.585723,33.8979851 278.352893,33.8343241 278.180794,33.700968 C277.656964,33.295167 277.143985,33.3159851 276.580068,33.6121142 C276.204225,33.8095838 275.8002,33.9598358 275.397231,34.097265 C275.150989,34.1812914 274.882895,34.2010535 274.569893,34.2600379" id="Fill-31"></path>
            <path d="M159.095231,18.8951927 C159.490213,17.9140294 159.485541,16.957003 159.099902,16.0060107 C158.623995,14.8325068 157.807808,14.0384042 156.543292,13.7905488 C155.356838,13.5580807 154.198263,13.6013762 153.131916,14.274342 C151.347337,15.4006281 151.09145,17.8707339 152.61547,19.3397635 C153.495703,20.188174 154.536281,20.7890309 155.65477,21.2586437 C156.973086,21.8122829 158.301046,22.3431429 159.619664,22.8960278 C161.123641,23.5267541 162.444519,24.4048832 163.461286,25.7126484 C164.931657,27.6039221 164.852238,31.0698241 162.472398,32.7755457 C161.283231,33.6278785 159.958285,34.1336966 158.525889,34.3528894 C156.443981,34.6713451 154.374581,34.6713451 152.352952,33.9710745 C152.140466,33.8974571 151.907636,33.8366624 151.734332,33.7042114 C151.211858,33.3047463 150.700084,33.3088194 150.133757,33.6093233 C149.758968,33.8084524 149.353889,33.9567432 148.951221,34.0947759 C148.704225,34.1792549 148.435981,34.2015815 148.127349,34.2614711 L148.127349,28.2200154 L149.008637,28.2200154 C149.249454,28.7155753 149.462844,29.2222984 149.731993,29.6976437 C151.367229,32.5850154 154.316109,33.880863 157.530522,33.1401631 C159.529696,32.6796017 160.704697,30.9824788 160.358089,29.0734042 C160.199554,28.2001025 159.701644,27.5336235 159.001044,27.0673295 C158.106946,26.4725068 157.171707,25.9246002 156.205876,25.4563451 C154.965472,24.8548848 153.670665,24.3674711 152.411273,23.8040263 C151.015196,23.1796359 149.803575,22.3122176 148.89712,21.0504633 C147.554541,19.181667 147.305888,15.6044337 150.458061,13.8196639 C152.464469,12.6838739 154.611781,12.4017743 156.853732,12.5775208 C158.082683,12.6737666 159.290085,12.8970325 160.434494,13.3873124 C161.715436,13.9361243 162.762644,14.7600963 163.486452,15.9672409 C163.549143,16.0717837 163.590133,16.1893 163.651619,16.3234104 C163.510564,16.4511849 163.391512,16.5782051 163.253924,16.6803342 C162.205208,17.4581445 161.155137,18.2341445 160.100846,19.0041103 C159.649653,19.3335784 159.644529,19.326639 159.095231,18.8951927" id="Fill-33"></path>
            <path d="M197.438753,87.4233544 L189.267395,87.4233544 C189.420505,87.0751802 189.507308,86.7979081 189.654541,86.5575955 C190.166616,85.7224602 190.689693,84.8936608 191.229648,84.0763264 C191.433393,83.7681289 191.520196,83.4548023 191.518387,83.0880729 C191.502865,79.9207137 191.504372,76.7533544 191.485686,73.586146 C191.479959,72.6250465 191.282995,71.6930621 190.956882,70.7868739 C190.643127,69.9149299 190.093376,69.2142067 189.336415,68.5760885 C189.554627,68.4516328 189.710601,68.3434695 189.881343,68.2683435 C191.144804,67.7127432 192.415349,67.172681 193.674741,66.6080294 C194.132113,66.403017 194.586169,66.3680185 195.164553,66.4884011 C195.186856,67.2076795 195.209612,67.9385737 195.238697,68.8688988 C197.389926,66.3096375 200.012393,65.673933 203.000003,66.2992285 C204.587919,66.6317137 205.845503,67.4870636 206.765974,68.9224524 C205.737,70.3377774 204.722494,71.7330387 203.719139,73.1129128 C203.000003,72.8922114 203.039938,72.8815006 202.953587,72.2509252 C202.852016,71.5106779 202.756171,70.7473498 202.494106,70.0562813 C202.035378,68.8464213 201.082959,68.2442067 199.781521,68.1149236 C197.18814,67.8575644 195.81919,69.7357137 195.411247,71.4237852 C195.265521,72.0267541 195.215338,72.6654757 195.211721,73.2882067 C195.192733,76.5561865 195.206296,79.8243171 195.197857,83.0924477 C195.196802,83.4842191 195.283153,83.8230403 195.4982,84.1544695 C196.031073,84.9764804 196.541943,85.8128226 197.052813,86.648863 C197.177591,86.8531212 197.268312,87.0781974 197.438753,87.4233544" id="Fill-35"></path>
            <path d="M254.111448,14.9888835 C255.723476,14.2837855 257.21389,13.6275647 258.708524,12.9808477 C259.113453,12.8055538 259.532547,12.8182257 260.026388,12.9496207 L260.026388,15.2614792 C260.676203,14.6882288 261.162961,14.1542008 261.748276,13.7716316 C262.349114,13.3789551 263.021533,13.0484309 263.70842,12.8483967 C264.420473,12.6411215 265.186929,12.5490997 265.930629,12.543518 C266.64871,12.5382381 267.391506,12.6257342 268.080352,12.8229022 C268.767992,13.0196176 269.433328,13.3510468 270.051346,13.7194356 C270.67735,14.0925009 271.17963,14.63377 271.592696,15.347165 C270.646155,16.7861743 269.571067,18.1628804 268.565151,19.5690033 C267.868619,19.3365351 267.889567,19.3214496 267.802764,18.68484 C267.708426,17.9921121 267.636694,17.2773594 267.404014,16.6264185 C266.948149,15.3507855 265.994525,14.6529286 264.620752,14.5686005 C262.479016,14.4370546 260.927719,15.5229115 260.325978,17.6646051 C260.138357,18.332291 260.054569,19.0493065 260.048541,19.7449006 C260.02036,23.0121261 260.039499,26.2796533 260.030758,29.5470297 C260.029854,29.9143625 260.116657,30.22784 260.31573,30.5370935 C260.859453,31.3817327 261.388557,32.2361774 261.905606,33.0974107 C262.036714,33.3160002 262.101515,33.5745663 262.224335,33.8838198 L254.283998,33.8838198 C254.074978,33.5789411 254.283094,33.3561277 254.421285,33.1351246 C254.940895,32.3046658 255.458999,31.4728493 256.001968,30.6577778 C256.262979,30.2661572 256.390621,29.8668431 256.38821,29.3905927 C256.373743,26.6510593 256.387758,23.911375 256.376154,21.1718415 C256.373291,20.4945009 256.35581,19.8117295 256.267801,19.1414792 C256.060439,17.5618726 255.581517,16.099179 254.111448,14.9888835" id="Fill-37"></path>
            <path d="M176.467328,33.8730487 L168.141352,33.8730487 C168.295065,33.554593 168.385635,33.3049274 168.525936,33.0872431 C169.083674,32.2220876 169.650755,31.3629663 170.22748,30.5106334 C170.430773,30.2104313 170.544702,29.9091731 170.542893,29.5344484 C170.529783,26.7463395 170.547113,23.9580798 170.526919,21.1699709 C170.521494,20.4188621 170.466941,19.6611156 170.351505,18.9195106 C170.12621,17.4731093 169.588516,16.1683613 168.328973,15.1973053 C168.555775,15.0527858 168.710844,14.9407003 168.877517,14.8500362 C170.155597,14.1548947 171.443622,13.4772524 172.711755,12.7641591 C173.15692,12.5137392 173.593797,12.4739134 174.155905,12.5722711 L174.155905,13.4754421 C174.155905,18.6247392 174.16992,23.7741871 174.141136,28.9234841 C174.136766,29.7163799 174.31007,30.3813504 174.77573,31.0175075 C175.279065,31.7051062 175.722422,32.4376599 176.174218,33.1617656 C176.296887,33.358481 176.355358,33.5951731 176.467328,33.8730487" id="Fill-39"></path>
            <path d="M171.845763,2.94831726 C172.801647,3.9334028 173.72046,4.88032193 174.699552,5.88924261 C173.749997,6.8728196 172.836308,7.81928616 171.850886,8.84012442 C170.906455,7.85172006 169.999246,6.90223639 169.034471,5.89271229 C169.972573,4.91019129 170.884001,3.95572939 171.845763,2.94831726" id="Fill-41"></path>
        </g>
    </g>
</svg>