<?xml version="1.0" encoding="UTF-8"?>
<svg width="16px" height="13px" viewBox="0 0 16 13" version="1.1" xmlns="http://www.w3.org/2000/svg" xmlns:xlink="http://www.w3.org/1999/xlink">
    <!-- Generator: Sketch 41.2 (35397) - http://www.bohemiancoding.com/sketch -->
    <title>twtr</title>
    <desc>Created with Sketch.</desc>
    <defs></defs>
    <g id="Page-1" stroke="none" stroke-width="1" fill="none" fill-rule="evenodd">
        <g id="Desktop-HD" transform="translate(-31.000000, -980.000000)" fill="#000000">
            <g id="twtr" transform="translate(31.000000, 980.000000)">
                <g id="Layer_1">
                    <path d="M15.712,1.75959756 C15.1436863,2.01474634 14.5324863,2.18691707 13.8907922,2.2641561 C14.5456627,1.86781463 15.048251,1.23985122 15.2850824,0.491146341 C14.6723451,0.858539024 13.9940392,1.12529268 13.2715922,1.26911707 C12.6933333,0.646290244 11.8691765,0.25705122 10.9572706,0.25705122 C9.20618039,0.25705122 7.78647843,1.69193415 7.78647843,3.46170976 C7.78647843,3.71283171 7.81449412,3.95729512 7.86858039,4.19183415 C5.23331765,4.05837805 2.89675294,2.78266585 1.33289412,0.843668293 C1.06004706,1.31680488 0.903654902,1.8672122 0.903654902,2.45474878 C0.903654902,3.56650244 1.46340392,4.54730488 2.31419608,5.12215854 C1.79457255,5.10529024 1.30544314,4.96130732 0.878054902,4.7211561 C0.877772549,4.73447317 0.877772549,4.74794878 0.877772549,4.76174146 C0.877772549,6.31413171 1.97076078,7.6093439 3.42142745,7.90396829 C3.15532549,7.97705366 2.87516863,8.01637073 2.5859451,8.01637073 C2.38142745,8.01637073 2.18290196,7.99639512 1.98927059,7.95879024 C2.39294118,9.23187073 3.5638902,10.1584854 4.95115294,10.1843268 C3.86597647,11.0439122 2.49891765,11.5562073 1.01317647,11.5562073 C0.757364706,11.5562073 0.505066667,11.540861 0.256909804,11.5114683 C1.66039216,12.4208659 3.32690196,12.9512976 5.1174902,12.9512976 C10.949898,12.9512976 14.138949,8.06808537 14.138949,3.8332561 C14.138949,3.69453659 14.1361882,3.55597561 14.1300706,3.41865122 C14.7493961,2.96688537 15.2872157,2.40243171 15.712,1.75959756 Z" id="Shape"></path>
                </g>
            </g>
        </g>
    </g>
</svg>